<svg width="47" height="46" viewBox="0 0 47 46" fill="none" xmlns="http://www.w3.org/2000/svg">
<g clip-path="url(#clip0_469_525)">
<path d="M23.8769 0.755901C36.6031 0.779481 46.884 10.715 46.8754 22.9794C46.8668 35.2452 36.5369 45.2099 23.8581 45.1849C11.116 45.16 0.802043 35.1703 0.859615 22.9101C0.917187 10.6512 11.2226 0.732321 23.8769 0.755901ZM27.157 29.4501C26.0099 28.3446 24.9088 27.2849 23.8351 26.2515C20.1448 29.8079 16.4112 33.4046 12.6431 37.0359C15.8269 39.3953 19.4467 40.6229 23.5329 40.7297C23.4695 36.5213 24.6296 32.7416 27.157 29.4515V29.4501ZM17.2014 19.7462C13.7197 22.2138 9.82212 23.4066 5.474 23.3179C5.58339 27.2599 6.86436 30.7262 9.21474 33.7098C12.9814 30.0812 16.7235 26.4748 20.4499 22.8837C19.4208 21.8906 18.3298 20.8364 17.2 19.7462H17.2014ZM24.5907 5.23612C24.5576 9.50411 23.1586 13.2603 20.6025 16.4838C21.7438 17.5949 22.8391 18.6587 23.9042 19.6963C27.5974 16.1343 31.3281 12.5376 35.0919 8.90767C32.0348 6.64953 28.569 5.41643 24.5907 5.2375V5.23612ZM30.5264 26.1794C33.9735 23.6327 37.8668 22.3178 42.2466 22.2748C42.0523 18.4618 40.7886 15.1148 38.5059 12.2214C34.7378 15.8485 30.9942 19.4535 27.2722 23.0377C28.3128 24.0419 29.4023 25.0933 30.5279 26.1794H30.5264ZM12.6834 8.93541C14.2033 10.4015 15.7218 11.8663 17.2647 13.3532C18.9458 11.0562 19.9188 8.50959 19.985 5.62865C17.3971 6.1169 13.9716 7.68706 12.6849 8.93541H12.6834ZM38.4656 33.7763C40.1107 31.7013 41.2621 29.3682 41.8436 26.7079C38.8355 26.805 36.2088 27.726 33.8526 29.3405C35.3927 30.8219 36.9126 32.2839 38.4656 33.7763ZM28.1084 40.2442C30.7294 39.6339 33.0337 38.5672 34.9983 37.097C33.4712 35.6211 31.9585 34.1605 30.4429 32.6972C28.9086 34.9109 28.1285 37.4215 28.1084 40.2442ZM5.98207 18.8807C8.89953 18.8585 11.5032 18.1053 13.845 16.5865C12.302 15.1009 10.7965 13.6514 9.26655 12.1798C7.7006 14.1425 6.5909 16.3576 5.98207 18.8807Z" fill="#FDD017"/>
</g>
<defs>
<clipPath id="clip0_469_525">
<rect width="46.0158" height="44.429" fill="white" transform="translate(0.859375 0.755859)"/>
</clipPath>
</defs>
</svg>
