<svg width="20" height="20" viewBox="0 0 20 20" fill="none" xmlns="http://www.w3.org/2000/svg">
<path d="M10 20C8.61667 20 7.31667 19.7373 6.1 19.212C4.88333 18.6867 3.825 17.9743 2.925 17.075C2.025 16.175 1.31267 15.1167 0.788 13.9C0.263333 12.6833 0.000666667 11.3833 0 10C0 8.61667 0.262667 7.31667 0.788 6.1C1.31333 4.88333 2.02567 3.825 2.925 2.925C3.825 2.025 4.88333 1.31267 6.1 0.788C7.31667 0.263333 8.61667 0.000666667 10 0C11.3833 0 12.6833 0.262667 13.9 0.788C15.1167 1.31333 16.175 2.02567 17.075 2.925C17.975 3.825 18.6877 4.88333 19.213 6.1C19.7383 7.31667 20.0007 8.61667 20 10C20 11.3833 19.7373 12.6833 19.212 13.9C18.6867 15.1167 17.9743 16.175 17.075 17.075C16.175 17.975 15.1167 18.6877 13.9 19.213C12.6833 19.7383 11.3833 20.0007 10 20ZM9 17.95V16C8.45 16 7.97933 15.8043 7.588 15.413C7.19667 15.0217 7.00067 14.5507 7 14V13L2.2 8.2C2.15 8.5 2.10433 8.8 2.063 9.1C2.02167 9.4 2.00067 9.7 2 10C2 12.0167 2.66267 13.7833 3.988 15.3C5.31333 16.8167 6.984 17.7 9 17.95ZM15.9 15.4C16.2333 15.0333 16.5333 14.6377 16.8 14.213C17.0667 13.7883 17.2873 13.3467 17.462 12.888C17.6373 12.4293 17.7707 11.9583 17.862 11.475C17.9533 10.9917 17.9993 10.5 18 10C18 8.36667 17.5457 6.875 16.637 5.525C15.7283 4.175 14.516 3.2 13 2.6V3C13 3.55 12.8043 4.021 12.413 4.413C12.0217 4.805 11.5507 5.00067 11 5H9V7C9 7.28333 8.904 7.521 8.712 7.713C8.52 7.905 8.28267 8.00067 8 8H6V10H12C12.2833 10 12.521 10.096 12.713 10.288C12.905 10.48 13.0007 10.7173 13 11V14H14C14.4333 14 14.825 14.1293 15.175 14.388C15.525 14.6467 15.7667 14.984 15.9 15.4Z" fill="#8B8B87"/>
</svg>
