<svg width="146" height="135" viewBox="0 0 146 135" fill="none" xmlns="http://www.w3.org/2000/svg">
<g opacity="0.08" clip-path="url(#clip0_1759_2377)">
<path d="M119.414 53.2723C119.414 67.0833 119.414 80.8943 119.414 94.7096C119.414 101.929 115.09 106.251 107.869 106.255C88.2346 106.264 68.6049 106.264 48.9709 106.255C41.9155 106.255 37.4936 101.822 37.4893 94.7651C37.4808 67.0364 37.485 39.3034 37.4893 11.5746C37.4893 4.42377 41.9198 0.00356033 49.0776 -0.000706288C68.6561 -0.0049729 88.2346 -0.0049729 107.813 -0.000706288C115.099 -0.000706288 119.41 4.33844 119.41 11.6728C119.414 25.5393 119.41 39.4015 119.41 53.268L119.414 53.2723ZM81.1963 45.4644C89.7456 41.522 92.9468 36.6879 91.5937 29.7035C90.4242 23.6662 85.2639 19.1777 79.1731 18.9004C73.0268 18.6188 67.3927 22.5356 65.6641 28.3467C64.7848 31.2992 64.8659 34.2602 66.0269 37.1231C67.858 41.6415 71.375 44.2526 76.0061 45.5497C74.8152 45.6521 73.6927 45.6052 72.5786 45.6606C65.6043 46.019 60.4141 50.7976 59.6544 57.7053C59.4324 59.7063 59.5434 61.7543 59.5818 63.7767C59.6416 67.1004 61.6946 69.1654 65.0153 69.1782C74.0299 69.2081 83.0444 69.2081 92.059 69.1782C95.4565 69.1654 97.5053 67.0321 97.4797 63.6231C97.4669 61.9164 97.3943 60.2098 97.3303 58.5074C97.0998 52.4019 93.0449 47.3758 87.0566 46.0361C85.1529 45.6094 83.1468 45.6393 81.1963 45.4644ZM78.4816 87.3753C82.0499 87.3753 85.6224 87.3924 89.1907 87.3711C92.3236 87.354 94.6071 85.2122 94.637 82.3109C94.6626 79.4522 92.3407 77.1653 89.259 77.1483C82.067 77.1141 74.8707 77.1141 67.6787 77.1483C64.533 77.1653 62.3434 79.3584 62.3604 82.3151C62.3775 85.2463 64.6141 87.3497 67.7726 87.3668C71.3408 87.3881 74.9134 87.3711 78.4816 87.3668V87.3753Z" fill="#EFE796"/>
<path d="M30.6938 10.4316V12.5479C30.6938 40.0676 30.6852 67.5872 30.698 95.1069C30.7023 104.109 36.3791 111.12 45.0052 112.766C46.4095 113.035 47.8692 113.074 49.3034 113.074C68.7752 113.091 88.2469 112.984 107.714 113.129C118.351 113.21 124.681 105.923 125.893 98.9938C126.166 97.4279 126.243 95.8109 126.243 94.2195C126.264 73.0485 126.256 51.8733 126.256 30.7023C126.256 30.0197 126.256 29.3413 126.256 28.3258C130.874 29.4266 135.36 30.1477 139.594 31.6069C144.289 33.2239 146.79 38.4164 145.757 43.323C141.946 61.4049 138.092 79.4783 134.25 97.5559C132.27 106.878 130.276 116.201 128.322 125.532C127.041 131.633 122.504 135.533 116.93 134.949C114.083 134.65 111.278 133.89 108.466 133.297C93.5609 130.14 78.6604 126.966 63.7557 123.808C58.7917 122.759 55.4326 119.951 53.9728 115.011C53.9131 114.81 53.7978 114.627 53.6399 114.29C49.0259 115.518 44.4162 116.747 39.8022 117.967C38.001 118.441 36.2126 119.03 34.3773 119.316C28.7688 120.186 23.8774 116.969 22.3579 111.41C19.3658 100.47 16.425 89.5176 13.4799 78.5695C9.15614 62.4673 4.83667 46.3693 0.512922 30.2757C-1.32243 23.4491 1.85316 18.0518 8.66956 16.2726C15.264 14.5489 21.8414 12.7569 28.4273 10.9991C29.0889 10.8199 29.759 10.6663 30.6938 10.4316Z" fill="#EFE796"/>
</g>
<defs>
<clipPath id="clip0_1759_2377">
<rect width="146" height="135" fill="white"/>
</clipPath>
</defs>
</svg>
