<svg width="27" height="27" viewBox="0 0 27 27" fill="none" xmlns="http://www.w3.org/2000/svg">
<path d="M7.66293 26.1646H6.32721C6.13394 26.1329 5.94134 26.0953 5.74741 26.0696C3.43283 25.7602 1.66837 24.2122 1.08065 21.9544C0.971158 21.5349 0.91641 21.1009 0.835938 20.6734C0.835938 20.2282 0.835938 19.783 0.835938 19.3378C0.861003 19.1603 0.888706 18.9829 0.911133 18.8055C1.15189 16.9368 1.77259 15.1896 2.64987 13.5346C4.79955 9.47878 7.85487 6.24611 11.6767 3.73107C13.5823 2.47718 15.6291 1.52934 17.8783 1.06697C18.3605 0.968028 18.8513 0.911303 19.3381 0.835449H20.6738C20.8835 0.869089 21.0933 0.905366 21.3037 0.935048C23.5965 1.25957 25.3412 2.80632 25.9203 5.04696C26.0285 5.46647 26.0852 5.89982 26.1651 6.32658V7.66226C26.1406 7.83244 26.1136 8.00195 26.0918 8.17279C25.855 10.0421 25.239 11.792 24.3604 13.4449C22.0458 17.7983 18.7312 21.2123 14.5249 23.763C12.8396 24.7847 11.0408 25.5498 9.09824 25.939C8.62398 26.034 8.1418 26.09 7.66293 26.1646ZM23.8887 10.8745C23.8518 10.831 23.8096 10.7742 23.7594 10.7248C21.2655 8.22951 18.7701 5.73624 16.2788 3.23901C16.1765 3.13678 16.0928 3.10841 15.9602 3.17239C15.1528 3.56222 14.3178 3.90125 13.5394 4.34054C10.7341 5.92423 8.37926 8.04087 6.36811 10.546C5.04558 12.193 3.94997 13.9759 3.17756 15.9494C3.12875 16.0741 3.11754 16.1598 3.22901 16.2713C5.73356 18.7672 8.23349 21.2684 10.7308 23.7716C10.8284 23.8692 10.9056 23.8896 11.0296 23.8336C11.4643 23.6377 11.9115 23.4668 12.3396 23.2577C15.141 21.891 17.5189 19.9696 19.6012 17.6703C21.3789 15.7073 22.8446 13.5412 23.8168 11.0625C23.8379 11.009 23.8584 10.955 23.8894 10.8751L23.8887 10.8745ZM24.3801 9.19582C24.3887 9.18526 24.4039 9.17405 24.4078 9.15954C24.6658 8.05142 24.7917 6.93407 24.5741 5.80616C24.2377 4.06483 23.2298 2.93032 21.4924 2.48971C20.6349 2.27205 19.7635 2.27469 18.8922 2.39869C18.5221 2.45146 18.1554 2.52665 17.7801 2.59327C19.9964 4.81017 22.1843 6.99871 24.3815 9.19648L24.3801 9.19582ZM2.60964 17.818C2.60964 17.818 2.59117 17.8365 2.58589 17.8583C2.32402 19.0251 2.19804 20.1979 2.46584 21.3818C2.8095 22.9009 3.70195 23.9384 5.19597 24.4213C6.12999 24.7234 7.09104 24.7372 8.05605 24.6079C8.44391 24.5558 8.8278 24.4767 9.2018 24.4114C6.99144 22.2004 4.79955 20.0079 2.60964 17.8174V17.818Z" fill="#FDD017"/>
<path d="M9.76031 18.2742C9.50867 18.5318 9.29412 18.7616 9.06897 18.9809C8.73985 19.3014 8.27697 19.3107 7.98097 19.012C7.6843 18.7126 7.69689 18.255 8.0207 17.9245C8.24055 17.7 8.47166 17.4867 8.72727 17.239C8.36174 16.8787 8.00945 16.5442 7.67238 16.1952C7.27904 15.7879 7.40552 15.166 7.91939 14.9739C8.22665 14.8587 8.50543 14.9269 8.73853 15.162C9.07095 15.4965 9.40205 15.8323 9.71395 16.1475C10.155 15.7071 10.5861 15.2766 11.0403 14.8229C10.7291 14.5143 10.3788 14.1792 10.0437 13.8295C9.63118 13.399 9.79871 12.7393 10.3563 12.579C10.6549 12.4929 10.9086 12.589 11.1238 12.8049C11.4456 13.1268 11.7688 13.4473 12.0919 13.7679C12.1025 13.7785 12.1204 13.7818 12.123 13.7824C12.5528 13.3519 12.9786 12.9254 13.4322 12.4711C13.1157 12.1565 12.7826 11.8399 12.4667 11.5061C12.3575 11.3902 12.2581 11.2432 12.2131 11.0922C12.1184 10.7716 12.27 10.4425 12.5468 10.2815C12.8415 10.11 13.1852 10.1404 13.4402 10.3868C13.7905 10.7253 14.1275 11.0783 14.4507 11.4054C14.8957 10.9584 15.3241 10.5279 15.7731 10.0769C15.4605 9.76558 15.1116 9.42648 14.7732 9.07745C14.552 8.84962 14.4878 8.5741 14.607 8.27606C14.7215 7.98929 14.946 7.83232 15.2546 7.81179C15.5023 7.79523 15.7016 7.89855 15.8731 8.0734C16.1969 8.40256 16.5247 8.72775 16.8723 9.07679C17.2001 8.74564 17.5134 8.42906 17.8272 8.11314C18.0663 7.87206 18.3497 7.79722 18.6676 7.91908C19.1622 8.10916 19.2894 8.72577 18.9146 9.13043C18.6563 9.40993 18.3789 9.67153 18.1107 9.94175C18.0537 9.99937 18.0001 10.0603 17.9173 10.1491C18.2756 10.4981 18.6285 10.8332 18.9715 11.1789C19.1901 11.3988 19.2391 11.6717 19.1377 11.9598C19.0411 12.2327 18.8325 12.389 18.5497 12.434C18.2842 12.4764 18.0643 12.3751 17.8789 12.1883C17.5531 11.8591 17.2266 11.5306 16.9233 11.2246C16.4816 11.6657 16.0519 12.0949 15.6003 12.5459C15.8949 12.84 16.2267 13.1718 16.5605 13.5023C16.7479 13.6877 16.8512 13.907 16.8094 14.1725C16.7631 14.4653 16.5995 14.6792 16.3141 14.7706C16.034 14.8607 15.7691 14.8103 15.5552 14.5991C15.2082 14.2567 14.8699 13.9063 14.5427 13.5751C14.0931 14.0242 13.6613 14.4553 13.2104 14.9064C13.5229 15.2143 13.8587 15.5442 14.1937 15.8753C14.4037 16.0826 14.4964 16.3303 14.4235 16.6204C14.2798 17.1893 13.6037 17.3662 13.1627 16.9509C12.9879 16.7866 12.8203 16.6138 12.6535 16.4422C12.4866 16.27 12.3237 16.0945 12.172 15.9343C11.7178 16.3873 11.286 16.8184 10.8317 17.2714C11.1635 17.598 11.5178 17.9311 11.8529 18.2828C12.2687 18.7179 12.0727 19.3981 11.4992 19.5352C11.2171 19.6028 10.9781 19.5087 10.7774 19.3067C10.4463 18.9722 10.1159 18.6365 9.75964 18.2755L9.76031 18.2742Z" fill="#FDD017"/>
</svg>
