<svg width="28" height="29" viewBox="0 0 28 29" fill="none" xmlns="http://www.w3.org/2000/svg">
<mask id="path-1-outside-1_1573_2287" maskUnits="userSpaceOnUse" x="0" y="0" width="28" height="29" fill="black">
<rect fill="white" width="28" height="29"/>
<path d="M27 15.2691C26.9345 15.7903 26.8792 16.3135 26.8023 16.8327C26.5601 18.4696 25.9944 19.9868 25.184 21.4049C24.2737 22.9982 23.099 24.3467 21.6504 25.4288C19.8388 26.7813 17.8359 27.6273 15.6105 27.8971C12.5142 28.2721 9.63663 27.6266 7.00822 25.8865C4.73451 24.3811 3.07419 22.3149 2.02728 19.7249C1.13547 17.5205 0.788402 15.2228 1.12847 12.8577C1.87981 7.6287 4.60801 3.90703 9.3366 1.99627C13.8853 0.158255 18.2115 0.886449 22.0807 3.99037C24.7733 6.14982 26.3243 9.06789 26.8544 12.564C26.9161 12.9708 26.9523 13.3815 27 13.7909V15.2691ZM17.0502 11.9813C16.7565 12.1996 16.4845 12.4079 16.2061 12.6063C15.962 12.7803 15.702 12.7406 15.559 12.5217C15.4185 12.3061 15.4687 12.0627 15.7014 11.8788C15.9092 11.7148 16.1234 11.5587 16.3503 11.3881C16.0491 11.107 15.7605 10.8384 15.4719 10.5693C15.161 10.7525 14.8699 10.9297 14.5737 11.097C14.3112 11.2452 14.0569 11.1843 13.9349 10.9555C13.8116 10.7247 13.8929 10.4733 14.1516 10.312C14.3684 10.177 14.5902 10.0507 14.828 9.90984C14.5966 9.6433 14.369 9.39528 14.158 9.13337C14.0607 9.01299 13.9775 9.01564 13.8542 9.07715C13.6183 9.19488 13.3755 9.29805 13.1346 9.40388C12.8161 9.54343 12.5784 9.47068 12.4703 9.20546C12.368 8.95479 12.4805 8.7233 12.7774 8.58309C12.9979 8.47925 13.2204 8.38004 13.462 8.26959C13.2446 7.95807 13.0475 7.66243 12.8339 7.38001C12.7977 7.33239 12.6858 7.3099 12.6223 7.32776C12.3534 7.4025 12.0909 7.50039 11.8239 7.58372C11.5061 7.68293 11.29 7.58901 11.2016 7.31916C11.1158 7.05791 11.2467 6.83436 11.5557 6.72589C11.7864 6.64454 12.0203 6.57179 12.2752 6.48779C12.0896 6.15709 11.9218 5.84227 11.7343 5.54068C11.6993 5.48446 11.5779 5.45139 11.5048 5.46329C11.2378 5.50628 10.9747 5.57308 10.7102 5.62996C10.4039 5.69544 10.1744 5.56713 10.1153 5.29927C10.0574 5.03802 10.2151 4.82902 10.5335 4.75229C10.7674 4.69608 11.002 4.64383 11.2404 4.58893C10.9607 3.8905 10.6918 3.21918 10.4229 2.54787C10.3911 2.55184 10.3651 2.55184 10.3416 2.55911C10.236 2.5902 10.1286 2.61665 10.0263 2.65766C5.60535 4.41366 2.928 7.69417 2.03491 12.5382C2.00122 12.7208 2.02474 12.8147 2.23387 12.863C2.75256 12.9814 3.26362 13.1388 3.77786 13.2803C3.84778 13.2995 3.91897 13.3147 4.00288 13.3352C4.02195 13.0766 4.04102 12.8405 4.05564 12.6044C4.07661 12.2538 4.25141 12.0528 4.5222 12.0726C4.78091 12.0918 4.93347 12.3021 4.91948 12.6401C4.9055 12.9814 4.88071 13.3226 4.86037 13.6666C5.05106 13.7486 5.22141 13.8233 5.39304 13.8967C5.56975 13.9721 5.74773 14.0455 5.94987 14.1309C5.99818 13.8511 6.03949 13.6024 6.08526 13.355C6.14565 13.031 6.35414 12.853 6.60395 12.9086C6.86139 12.9661 6.98725 13.1996 6.93449 13.525C6.88936 13.8021 6.83533 14.0786 6.80418 14.3577C6.79592 14.4331 6.83405 14.5555 6.88872 14.5899C7.18303 14.7717 7.48941 14.9325 7.81168 15.1124C7.88542 14.8419 7.94835 14.5965 8.0189 14.3537C8.10662 14.0515 8.32211 13.8994 8.55984 13.9635C8.8141 14.033 8.93169 14.2817 8.85224 14.5965C8.78105 14.8769 8.6965 15.1534 8.63294 15.4351C8.61705 15.5039 8.63294 15.6236 8.67743 15.658C8.96093 15.8763 9.25651 16.0767 9.56289 16.2936C9.66714 16.0198 9.75549 15.7738 9.85402 15.5317C9.97098 15.244 10.2004 15.1289 10.4407 15.2274C10.6702 15.3214 10.7598 15.5813 10.6556 15.871C10.5545 16.1508 10.4407 16.4252 10.346 16.707C10.3238 16.7738 10.3263 16.8942 10.367 16.9325C10.6282 17.1799 10.9035 17.4107 11.1838 17.6554C11.3147 17.3975 11.4292 17.162 11.5518 16.9319C11.7012 16.6508 11.93 16.5628 12.1608 16.6898C12.3909 16.8161 12.4526 17.0641 12.3159 17.3499C12.1881 17.6177 12.0476 17.8783 11.9231 18.1475C11.8957 18.2064 11.8824 18.3201 11.9154 18.3539C12.1697 18.6158 12.436 18.8638 12.703 19.1197C12.8193 18.9385 12.9484 18.7328 13.0818 18.5304C13.263 18.2546 13.5084 18.1786 13.7258 18.3254C13.9463 18.4742 13.9794 18.7394 13.8058 19.0205C13.6279 19.3089 13.4435 19.5926 13.2547 19.8896C13.4957 20.211 13.7327 20.5272 13.9813 20.8586C14.0754 20.7421 14.1516 20.6489 14.2266 20.555C14.308 20.4538 14.3856 20.3486 14.4695 20.2501C14.6811 20.002 14.9106 19.9591 15.1127 20.1237C15.3225 20.295 15.3352 20.5629 15.1369 20.8222C14.9634 21.0497 14.7784 21.2673 14.6068 21.4961C14.5674 21.5484 14.5254 21.6516 14.5489 21.6932C14.7294 22.0186 14.9252 22.3341 15.1572 22.721C15.3492 22.4962 15.503 22.2971 15.6747 22.1172C15.8959 21.8864 16.1368 21.8738 16.3243 22.0636C16.5124 22.2541 16.4946 22.5272 16.2753 22.7607C16.0459 23.0054 15.8132 23.2468 15.5749 23.4975C15.7433 23.8586 15.9111 24.2171 16.0859 24.5915C16.2048 24.4942 16.2912 24.4235 16.377 24.3527C16.4699 24.2766 16.5614 24.1979 16.6561 24.1239C16.9142 23.9215 17.1691 23.9261 17.3324 24.1344C17.4952 24.3421 17.4462 24.6133 17.2015 24.8229C16.986 25.0075 16.7629 25.1821 16.5493 25.3686C16.5054 25.407 16.4514 25.4916 16.4654 25.532C16.6002 25.9347 16.7483 26.3329 16.9027 26.7588C19.7701 25.9731 22.0947 24.3818 23.8332 21.8996C25.0568 20.1522 25.8145 18.2044 26.0376 16.0449C25.559 15.9404 25.1147 15.8359 24.6665 15.7526C24.5953 15.7394 24.4758 15.7976 24.4333 15.8624C24.2813 16.0945 24.1561 16.3452 24.015 16.5853C23.8466 16.8723 23.6056 16.961 23.3813 16.8254C23.1581 16.6905 23.1124 16.4213 23.2687 16.1322C23.3832 15.9206 23.5027 15.7116 23.6361 15.4728C23.2961 15.3591 22.9814 15.2645 22.675 15.1474C22.5435 15.0972 22.4767 15.1309 22.403 15.2413C22.2492 15.4728 22.0877 15.699 21.9224 15.9219C21.7248 16.1891 21.4756 16.2414 21.2658 16.0701C21.0694 15.9093 21.0516 15.6461 21.2277 15.3875C21.3688 15.1798 21.5169 14.9774 21.6739 14.7559C21.358 14.6077 21.0548 14.4748 20.7605 14.3233C20.627 14.2545 20.5501 14.2883 20.4604 14.3974C20.2907 14.6051 20.1108 14.8042 19.931 15.0026C19.7059 15.2499 19.458 15.287 19.2635 15.1097C19.0652 14.9285 19.0786 14.6474 19.3004 14.3881C19.4568 14.2056 19.6163 14.0264 19.7892 13.8293C19.4644 13.6335 19.1694 13.4476 18.865 13.2803C18.8141 13.2525 18.7042 13.279 18.6539 13.3213C18.4315 13.5105 18.2236 13.7188 18.0049 13.9126C17.7666 14.1236 17.4996 14.1183 17.3324 13.9093C17.1748 13.7115 17.2136 13.4463 17.436 13.234C17.6159 13.062 17.7996 12.8947 18.0018 12.7062C17.6782 12.4602 17.3731 12.2287 17.0496 11.9827L17.0502 11.9813ZM26.0993 15.1395C26.5201 6.58965 18.7194 0.320957 11.2709 2.32696C11.5054 2.91164 11.7387 3.493 11.9854 4.10677C12.1544 3.91034 12.2898 3.74235 12.436 3.5856C12.6229 3.38586 12.8721 3.36205 13.0513 3.51417C13.2465 3.68018 13.2605 3.9573 13.071 4.19408C12.8613 4.45533 12.6401 4.70666 12.4239 4.96328C12.6032 5.28538 12.7704 5.58697 12.9522 5.91238C13.085 5.72124 13.1924 5.56383 13.3024 5.40906C13.4988 5.13326 13.7296 5.0691 13.952 5.22585C14.1752 5.38326 14.1942 5.6551 13.9997 5.94346C13.8491 6.16702 13.6902 6.38395 13.5459 6.61081C13.5128 6.66306 13.495 6.76822 13.523 6.81188C13.6952 7.08172 13.8828 7.34099 14.0792 7.62407C14.165 7.46996 14.2375 7.34297 14.3074 7.21466C14.5343 6.80063 14.7593 6.68092 15.0161 6.83899C15.2729 6.99706 15.285 7.24839 15.0549 7.67103C14.9271 7.90582 14.7987 8.14128 14.6691 8.38004C14.9049 8.65121 15.1286 8.90783 15.346 9.15784C15.3842 9.13535 15.3956 9.13337 15.3981 9.12675C15.4725 8.95942 15.545 8.79143 15.6206 8.62475C15.7592 8.32117 15.9918 8.20675 16.2296 8.32382C16.4565 8.4356 16.5296 8.68296 16.4126 8.97926C16.3135 9.23125 16.1991 9.47663 16.1031 9.72994C16.0802 9.79079 16.0713 9.89992 16.1056 9.93497C16.3313 10.1665 16.5703 10.3834 16.822 10.6215C16.89 10.4026 16.9434 10.2267 16.9993 10.052C17.1087 9.7101 17.3184 9.56922 17.5784 9.66116C17.8282 9.74979 17.9191 9.98524 17.8251 10.3126C17.75 10.5739 17.6649 10.8318 17.5969 11.0944C17.581 11.1559 17.5905 11.2637 17.6299 11.2961C17.8721 11.4978 18.1257 11.6837 18.3984 11.8927C18.4454 11.6665 18.4842 11.4807 18.5236 11.2941C18.5942 10.9608 18.7868 10.7902 19.0391 10.8371C19.3061 10.8874 19.4377 11.1328 19.3741 11.4721C19.3239 11.7393 19.2642 12.0051 19.2184 12.273C19.2082 12.3312 19.2184 12.4298 19.2546 12.4529C19.5229 12.6268 19.7994 12.7869 20.095 12.9648C20.114 12.8213 20.1305 12.7175 20.1414 12.6136C20.1522 12.5085 20.1503 12.402 20.1681 12.2981C20.217 12.0058 20.4083 11.8358 20.6486 11.8636C20.8933 11.8914 21.0402 12.0898 21.023 12.3954C21.0071 12.685 20.9709 12.9734 20.9556 13.2631C20.9524 13.3279 20.9823 13.4331 21.0274 13.4569C21.3027 13.5998 21.5868 13.7241 21.8621 13.8517C21.8849 13.8134 21.8932 13.8068 21.8932 13.7995C21.8957 13.615 21.8945 13.4304 21.8996 13.2459C21.9078 12.9066 22.0686 12.7029 22.3267 12.6989C22.5854 12.695 22.7532 12.8934 22.7659 13.234C22.7761 13.5065 22.7685 13.7797 22.7793 14.0522C22.7818 14.1209 22.8104 14.2321 22.8537 14.2492C23.1435 14.361 23.4397 14.4516 23.7315 14.5489C23.7506 14.5026 23.7633 14.4867 23.762 14.4715C23.7455 14.279 23.7232 14.0865 23.7086 13.8941C23.6864 13.5958 23.8313 13.3861 24.0747 13.3544C24.3411 13.3193 24.5299 13.484 24.5686 13.7929C24.6049 14.0806 24.6278 14.3703 24.6716 14.6567C24.6824 14.7254 24.7428 14.8273 24.7975 14.8405C25.2221 14.9477 25.6505 15.0376 26.1012 15.1375L26.0993 15.1395ZM13.2134 21.2964C13.0075 21.0232 12.839 20.7812 12.6483 20.5583C12.6007 20.5027 12.4742 20.4756 12.4011 20.4974C12.1417 20.5735 11.8913 20.682 11.6338 20.7673C11.3491 20.8619 11.119 20.7521 11.0376 20.4948C10.9632 20.2607 11.0872 20.0285 11.3535 19.9187C11.541 19.842 11.7317 19.7752 11.9211 19.7038L11.986 19.6112C11.7559 19.4048 11.5302 19.1925 11.2919 18.9967C11.2435 18.957 11.1374 18.9484 11.0776 18.9749C10.8291 19.0847 10.5901 19.217 10.3441 19.3327C10.0644 19.4643 9.82097 19.3922 9.70973 19.1555C9.59913 18.92 9.69511 18.674 9.96272 18.5278C10.1362 18.4326 10.3149 18.3466 10.5183 18.2427C10.231 17.9934 9.97352 17.7692 9.70846 17.5384C9.43322 17.7143 9.16943 17.8869 8.90118 18.0529C8.62785 18.2222 8.3736 18.1773 8.23757 17.9438C8.1009 17.7103 8.18163 17.4636 8.45559 17.2804C8.61514 17.1739 8.77532 17.0694 8.95712 16.9497C8.64565 16.7308 8.36851 16.5357 8.08692 16.3373C7.8155 16.5535 7.56378 16.7606 7.30507 16.9577C7.07624 17.1323 6.82579 17.1085 6.67196 16.91C6.51369 16.7063 6.55818 16.4352 6.78702 16.2407C6.94211 16.1084 7.10293 15.9834 7.28918 15.8333C6.95483 15.6501 6.65417 15.4847 6.35033 15.3181C6.09607 15.57 5.86215 15.8115 5.61742 16.041C5.42292 16.2235 5.16357 16.2195 5.00021 16.0496C4.8235 15.865 4.83176 15.6044 5.025 15.3928C5.16993 15.2341 5.32058 15.0806 5.48712 14.9053C5.22078 14.7929 4.9608 14.693 4.71035 14.5733C4.57115 14.5065 4.48216 14.5217 4.38808 14.6514C4.25078 14.8405 4.09632 15.0171 3.94757 15.1964C3.69204 15.5039 3.4505 15.5581 3.23374 15.3591C3.03097 15.1726 3.0494 14.9073 3.28587 14.6176C3.39901 14.4787 3.51088 14.3399 3.652 14.1659C3.05004 14.0025 2.49321 13.8517 1.92685 13.6983C1.38146 21.7812 8.36279 28.3171 16.0274 26.9077C15.906 26.5664 15.7942 26.2271 15.6607 25.8964C15.6352 25.8342 15.5253 25.7767 15.4522 25.7734C15.182 25.7634 14.9112 25.7806 14.6405 25.7813C14.3334 25.7813 14.1434 25.6166 14.1338 25.3514C14.1249 25.0882 14.3099 24.901 14.6125 24.8845C14.8108 24.8739 15.0104 24.8825 15.2545 24.8825C15.1077 24.563 14.9793 24.2985 14.8642 24.0286C14.8102 23.9016 14.7396 23.8672 14.6093 23.891C14.343 23.9393 14.0741 23.9717 13.8058 24.0068C13.5268 24.0432 13.3215 23.9023 13.2732 23.6463C13.2268 23.3983 13.3787 23.1827 13.6565 23.1251C13.8675 23.0815 14.0817 23.0557 14.3233 23.018C14.1574 22.7462 14.0004 22.5074 13.8631 22.2567C13.7912 22.1258 13.7156 22.0914 13.5783 22.1317C13.3266 22.2058 13.0717 22.268 12.8161 22.3268C12.5244 22.3943 12.2917 22.2627 12.2352 22.0094C12.1773 21.7494 12.321 21.5325 12.6115 21.4505C12.7971 21.3982 12.9846 21.3539 13.2141 21.2951L13.2134 21.2964Z"/>
</mask>
<path d="M27 15.2691C26.9345 15.7903 26.8792 16.3135 26.8023 16.8327C26.5601 18.4696 25.9944 19.9868 25.184 21.4049C24.2737 22.9982 23.099 24.3467 21.6504 25.4288C19.8388 26.7813 17.8359 27.6273 15.6105 27.8971C12.5142 28.2721 9.63663 27.6266 7.00822 25.8865C4.73451 24.3811 3.07419 22.3149 2.02728 19.7249C1.13547 17.5205 0.788402 15.2228 1.12847 12.8577C1.87981 7.6287 4.60801 3.90703 9.3366 1.99627C13.8853 0.158255 18.2115 0.886449 22.0807 3.99037C24.7733 6.14982 26.3243 9.06789 26.8544 12.564C26.9161 12.9708 26.9523 13.3815 27 13.7909V15.2691ZM17.0502 11.9813C16.7565 12.1996 16.4845 12.4079 16.2061 12.6063C15.962 12.7803 15.702 12.7406 15.559 12.5217C15.4185 12.3061 15.4687 12.0627 15.7014 11.8788C15.9092 11.7148 16.1234 11.5587 16.3503 11.3881C16.0491 11.107 15.7605 10.8384 15.4719 10.5693C15.161 10.7525 14.8699 10.9297 14.5737 11.097C14.3112 11.2452 14.0569 11.1843 13.9349 10.9555C13.8116 10.7247 13.8929 10.4733 14.1516 10.312C14.3684 10.177 14.5902 10.0507 14.828 9.90984C14.5966 9.6433 14.369 9.39528 14.158 9.13337C14.0607 9.01299 13.9775 9.01564 13.8542 9.07715C13.6183 9.19488 13.3755 9.29805 13.1346 9.40388C12.8161 9.54343 12.5784 9.47068 12.4703 9.20546C12.368 8.95479 12.4805 8.7233 12.7774 8.58309C12.9979 8.47925 13.2204 8.38004 13.462 8.26959C13.2446 7.95807 13.0475 7.66243 12.8339 7.38001C12.7977 7.33239 12.6858 7.3099 12.6223 7.32776C12.3534 7.4025 12.0909 7.50039 11.8239 7.58372C11.5061 7.68293 11.29 7.58901 11.2016 7.31916C11.1158 7.05791 11.2467 6.83436 11.5557 6.72589C11.7864 6.64454 12.0203 6.57179 12.2752 6.48779C12.0896 6.15709 11.9218 5.84227 11.7343 5.54068C11.6993 5.48446 11.5779 5.45139 11.5048 5.46329C11.2378 5.50628 10.9747 5.57308 10.7102 5.62996C10.4039 5.69544 10.1744 5.56713 10.1153 5.29927C10.0574 5.03802 10.2151 4.82902 10.5335 4.75229C10.7674 4.69608 11.002 4.64383 11.2404 4.58893C10.9607 3.8905 10.6918 3.21918 10.4229 2.54787C10.3911 2.55184 10.3651 2.55184 10.3416 2.55911C10.236 2.5902 10.1286 2.61665 10.0263 2.65766C5.60535 4.41366 2.928 7.69417 2.03491 12.5382C2.00122 12.7208 2.02474 12.8147 2.23387 12.863C2.75256 12.9814 3.26362 13.1388 3.77786 13.2803C3.84778 13.2995 3.91897 13.3147 4.00288 13.3352C4.02195 13.0766 4.04102 12.8405 4.05564 12.6044C4.07661 12.2538 4.25141 12.0528 4.5222 12.0726C4.78091 12.0918 4.93347 12.3021 4.91948 12.6401C4.9055 12.9814 4.88071 13.3226 4.86037 13.6666C5.05106 13.7486 5.22141 13.8233 5.39304 13.8967C5.56975 13.9721 5.74773 14.0455 5.94987 14.1309C5.99818 13.8511 6.03949 13.6024 6.08526 13.355C6.14565 13.031 6.35414 12.853 6.60395 12.9086C6.86139 12.9661 6.98725 13.1996 6.93449 13.525C6.88936 13.8021 6.83533 14.0786 6.80418 14.3577C6.79592 14.4331 6.83405 14.5555 6.88872 14.5899C7.18303 14.7717 7.48941 14.9325 7.81168 15.1124C7.88542 14.8419 7.94835 14.5965 8.0189 14.3537C8.10662 14.0515 8.32211 13.8994 8.55984 13.9635C8.8141 14.033 8.93169 14.2817 8.85224 14.5965C8.78105 14.8769 8.6965 15.1534 8.63294 15.4351C8.61705 15.5039 8.63294 15.6236 8.67743 15.658C8.96093 15.8763 9.25651 16.0767 9.56289 16.2936C9.66714 16.0198 9.75549 15.7738 9.85402 15.5317C9.97098 15.244 10.2004 15.1289 10.4407 15.2274C10.6702 15.3214 10.7598 15.5813 10.6556 15.871C10.5545 16.1508 10.4407 16.4252 10.346 16.707C10.3238 16.7738 10.3263 16.8942 10.367 16.9325C10.6282 17.1799 10.9035 17.4107 11.1838 17.6554C11.3147 17.3975 11.4292 17.162 11.5518 16.9319C11.7012 16.6508 11.93 16.5628 12.1608 16.6898C12.3909 16.8161 12.4526 17.0641 12.3159 17.3499C12.1881 17.6177 12.0476 17.8783 11.9231 18.1475C11.8957 18.2064 11.8824 18.3201 11.9154 18.3539C12.1697 18.6158 12.436 18.8638 12.703 19.1197C12.8193 18.9385 12.9484 18.7328 13.0818 18.5304C13.263 18.2546 13.5084 18.1786 13.7258 18.3254C13.9463 18.4742 13.9794 18.7394 13.8058 19.0205C13.6279 19.3089 13.4435 19.5926 13.2547 19.8896C13.4957 20.211 13.7327 20.5272 13.9813 20.8586C14.0754 20.7421 14.1516 20.6489 14.2266 20.555C14.308 20.4538 14.3856 20.3486 14.4695 20.2501C14.6811 20.002 14.9106 19.9591 15.1127 20.1237C15.3225 20.295 15.3352 20.5629 15.1369 20.8222C14.9634 21.0497 14.7784 21.2673 14.6068 21.4961C14.5674 21.5484 14.5254 21.6516 14.5489 21.6932C14.7294 22.0186 14.9252 22.3341 15.1572 22.721C15.3492 22.4962 15.503 22.2971 15.6747 22.1172C15.8959 21.8864 16.1368 21.8738 16.3243 22.0636C16.5124 22.2541 16.4946 22.5272 16.2753 22.7607C16.0459 23.0054 15.8132 23.2468 15.5749 23.4975C15.7433 23.8586 15.9111 24.2171 16.0859 24.5915C16.2048 24.4942 16.2912 24.4235 16.377 24.3527C16.4699 24.2766 16.5614 24.1979 16.6561 24.1239C16.9142 23.9215 17.1691 23.9261 17.3324 24.1344C17.4952 24.3421 17.4462 24.6133 17.2015 24.8229C16.986 25.0075 16.7629 25.1821 16.5493 25.3686C16.5054 25.407 16.4514 25.4916 16.4654 25.532C16.6002 25.9347 16.7483 26.3329 16.9027 26.7588C19.7701 25.9731 22.0947 24.3818 23.8332 21.8996C25.0568 20.1522 25.8145 18.2044 26.0376 16.0449C25.559 15.9404 25.1147 15.8359 24.6665 15.7526C24.5953 15.7394 24.4758 15.7976 24.4333 15.8624C24.2813 16.0945 24.1561 16.3452 24.015 16.5853C23.8466 16.8723 23.6056 16.961 23.3813 16.8254C23.1581 16.6905 23.1124 16.4213 23.2687 16.1322C23.3832 15.9206 23.5027 15.7116 23.6361 15.4728C23.2961 15.3591 22.9814 15.2645 22.675 15.1474C22.5435 15.0972 22.4767 15.1309 22.403 15.2413C22.2492 15.4728 22.0877 15.699 21.9224 15.9219C21.7248 16.1891 21.4756 16.2414 21.2658 16.0701C21.0694 15.9093 21.0516 15.6461 21.2277 15.3875C21.3688 15.1798 21.5169 14.9774 21.6739 14.7559C21.358 14.6077 21.0548 14.4748 20.7605 14.3233C20.627 14.2545 20.5501 14.2883 20.4604 14.3974C20.2907 14.6051 20.1108 14.8042 19.931 15.0026C19.7059 15.2499 19.458 15.287 19.2635 15.1097C19.0652 14.9285 19.0786 14.6474 19.3004 14.3881C19.4568 14.2056 19.6163 14.0264 19.7892 13.8293C19.4644 13.6335 19.1694 13.4476 18.865 13.2803C18.8141 13.2525 18.7042 13.279 18.6539 13.3213C18.4315 13.5105 18.2236 13.7188 18.0049 13.9126C17.7666 14.1236 17.4996 14.1183 17.3324 13.9093C17.1748 13.7115 17.2136 13.4463 17.436 13.234C17.6159 13.062 17.7996 12.8947 18.0018 12.7062C17.6782 12.4602 17.3731 12.2287 17.0496 11.9827L17.0502 11.9813ZM26.0993 15.1395C26.5201 6.58965 18.7194 0.320957 11.2709 2.32696C11.5054 2.91164 11.7387 3.493 11.9854 4.10677C12.1544 3.91034 12.2898 3.74235 12.436 3.5856C12.6229 3.38586 12.8721 3.36205 13.0513 3.51417C13.2465 3.68018 13.2605 3.9573 13.071 4.19408C12.8613 4.45533 12.6401 4.70666 12.4239 4.96328C12.6032 5.28538 12.7704 5.58697 12.9522 5.91238C13.085 5.72124 13.1924 5.56383 13.3024 5.40906C13.4988 5.13326 13.7296 5.0691 13.952 5.22585C14.1752 5.38326 14.1942 5.6551 13.9997 5.94346C13.8491 6.16702 13.6902 6.38395 13.5459 6.61081C13.5128 6.66306 13.495 6.76822 13.523 6.81188C13.6952 7.08172 13.8828 7.34099 14.0792 7.62407C14.165 7.46996 14.2375 7.34297 14.3074 7.21466C14.5343 6.80063 14.7593 6.68092 15.0161 6.83899C15.2729 6.99706 15.285 7.24839 15.0549 7.67103C14.9271 7.90582 14.7987 8.14128 14.6691 8.38004C14.9049 8.65121 15.1286 8.90783 15.346 9.15784C15.3842 9.13535 15.3956 9.13337 15.3981 9.12675C15.4725 8.95942 15.545 8.79143 15.6206 8.62475C15.7592 8.32117 15.9918 8.20675 16.2296 8.32382C16.4565 8.4356 16.5296 8.68296 16.4126 8.97926C16.3135 9.23125 16.1991 9.47663 16.1031 9.72994C16.0802 9.79079 16.0713 9.89992 16.1056 9.93497C16.3313 10.1665 16.5703 10.3834 16.822 10.6215C16.89 10.4026 16.9434 10.2267 16.9993 10.052C17.1087 9.7101 17.3184 9.56922 17.5784 9.66116C17.8282 9.74979 17.9191 9.98524 17.8251 10.3126C17.75 10.5739 17.6649 10.8318 17.5969 11.0944C17.581 11.1559 17.5905 11.2637 17.6299 11.2961C17.8721 11.4978 18.1257 11.6837 18.3984 11.8927C18.4454 11.6665 18.4842 11.4807 18.5236 11.2941C18.5942 10.9608 18.7868 10.7902 19.0391 10.8371C19.3061 10.8874 19.4377 11.1328 19.3741 11.4721C19.3239 11.7393 19.2642 12.0051 19.2184 12.273C19.2082 12.3312 19.2184 12.4298 19.2546 12.4529C19.5229 12.6268 19.7994 12.7869 20.095 12.9648C20.114 12.8213 20.1305 12.7175 20.1414 12.6136C20.1522 12.5085 20.1503 12.402 20.1681 12.2981C20.217 12.0058 20.4083 11.8358 20.6486 11.8636C20.8933 11.8914 21.0402 12.0898 21.023 12.3954C21.0071 12.685 20.9709 12.9734 20.9556 13.2631C20.9524 13.3279 20.9823 13.4331 21.0274 13.4569C21.3027 13.5998 21.5868 13.7241 21.8621 13.8517C21.8849 13.8134 21.8932 13.8068 21.8932 13.7995C21.8957 13.615 21.8945 13.4304 21.8996 13.2459C21.9078 12.9066 22.0686 12.7029 22.3267 12.6989C22.5854 12.695 22.7532 12.8934 22.7659 13.234C22.7761 13.5065 22.7685 13.7797 22.7793 14.0522C22.7818 14.1209 22.8104 14.2321 22.8537 14.2492C23.1435 14.361 23.4397 14.4516 23.7315 14.5489C23.7506 14.5026 23.7633 14.4867 23.762 14.4715C23.7455 14.279 23.7232 14.0865 23.7086 13.8941C23.6864 13.5958 23.8313 13.3861 24.0747 13.3544C24.3411 13.3193 24.5299 13.484 24.5686 13.7929C24.6049 14.0806 24.6278 14.3703 24.6716 14.6567C24.6824 14.7254 24.7428 14.8273 24.7975 14.8405C25.2221 14.9477 25.6505 15.0376 26.1012 15.1375L26.0993 15.1395ZM13.2134 21.2964C13.0075 21.0232 12.839 20.7812 12.6483 20.5583C12.6007 20.5027 12.4742 20.4756 12.4011 20.4974C12.1417 20.5735 11.8913 20.682 11.6338 20.7673C11.3491 20.8619 11.119 20.7521 11.0376 20.4948C10.9632 20.2607 11.0872 20.0285 11.3535 19.9187C11.541 19.842 11.7317 19.7752 11.9211 19.7038L11.986 19.6112C11.7559 19.4048 11.5302 19.1925 11.2919 18.9967C11.2435 18.957 11.1374 18.9484 11.0776 18.9749C10.8291 19.0847 10.5901 19.217 10.3441 19.3327C10.0644 19.4643 9.82097 19.3922 9.70973 19.1555C9.59913 18.92 9.69511 18.674 9.96272 18.5278C10.1362 18.4326 10.3149 18.3466 10.5183 18.2427C10.231 17.9934 9.97352 17.7692 9.70846 17.5384C9.43322 17.7143 9.16943 17.8869 8.90118 18.0529C8.62785 18.2222 8.3736 18.1773 8.23757 17.9438C8.1009 17.7103 8.18163 17.4636 8.45559 17.2804C8.61514 17.1739 8.77532 17.0694 8.95712 16.9497C8.64565 16.7308 8.36851 16.5357 8.08692 16.3373C7.8155 16.5535 7.56378 16.7606 7.30507 16.9577C7.07624 17.1323 6.82579 17.1085 6.67196 16.91C6.51369 16.7063 6.55818 16.4352 6.78702 16.2407C6.94211 16.1084 7.10293 15.9834 7.28918 15.8333C6.95483 15.6501 6.65417 15.4847 6.35033 15.3181C6.09607 15.57 5.86215 15.8115 5.61742 16.041C5.42292 16.2235 5.16357 16.2195 5.00021 16.0496C4.8235 15.865 4.83176 15.6044 5.025 15.3928C5.16993 15.2341 5.32058 15.0806 5.48712 14.9053C5.22078 14.7929 4.9608 14.693 4.71035 14.5733C4.57115 14.5065 4.48216 14.5217 4.38808 14.6514C4.25078 14.8405 4.09632 15.0171 3.94757 15.1964C3.69204 15.5039 3.4505 15.5581 3.23374 15.3591C3.03097 15.1726 3.0494 14.9073 3.28587 14.6176C3.39901 14.4787 3.51088 14.3399 3.652 14.1659C3.05004 14.0025 2.49321 13.8517 1.92685 13.6983C1.38146 21.7812 8.36279 28.3171 16.0274 26.9077C15.906 26.5664 15.7942 26.2271 15.6607 25.8964C15.6352 25.8342 15.5253 25.7767 15.4522 25.7734C15.182 25.7634 14.9112 25.7806 14.6405 25.7813C14.3334 25.7813 14.1434 25.6166 14.1338 25.3514C14.1249 25.0882 14.3099 24.901 14.6125 24.8845C14.8108 24.8739 15.0104 24.8825 15.2545 24.8825C15.1077 24.563 14.9793 24.2985 14.8642 24.0286C14.8102 23.9016 14.7396 23.8672 14.6093 23.891C14.343 23.9393 14.0741 23.9717 13.8058 24.0068C13.5268 24.0432 13.3215 23.9023 13.2732 23.6463C13.2268 23.3983 13.3787 23.1827 13.6565 23.1251C13.8675 23.0815 14.0817 23.0557 14.3233 23.018C14.1574 22.7462 14.0004 22.5074 13.8631 22.2567C13.7912 22.1258 13.7156 22.0914 13.5783 22.1317C13.3266 22.2058 13.0717 22.268 12.8161 22.3268C12.5244 22.3943 12.2917 22.2627 12.2352 22.0094C12.1773 21.7494 12.321 21.5325 12.6115 21.4505C12.7971 21.3982 12.9846 21.3539 13.2141 21.2951L13.2134 21.2964Z" fill="#FDD017"/>
<path d="M27 15.2691C26.9345 15.7903 26.8792 16.3135 26.8023 16.8327C26.5601 18.4696 25.9944 19.9868 25.184 21.4049C24.2737 22.9982 23.099 24.3467 21.6504 25.4288C19.8388 26.7813 17.8359 27.6273 15.6105 27.8971C12.5142 28.2721 9.63663 27.6266 7.00822 25.8865C4.73451 24.3811 3.07419 22.3149 2.02728 19.7249C1.13547 17.5205 0.788402 15.2228 1.12847 12.8577C1.87981 7.6287 4.60801 3.90703 9.3366 1.99627C13.8853 0.158255 18.2115 0.886449 22.0807 3.99037C24.7733 6.14982 26.3243 9.06789 26.8544 12.564C26.9161 12.9708 26.9523 13.3815 27 13.7909V15.2691ZM17.0502 11.9813C16.7565 12.1996 16.4845 12.4079 16.2061 12.6063C15.962 12.7803 15.702 12.7406 15.559 12.5217C15.4185 12.3061 15.4687 12.0627 15.7014 11.8788C15.9092 11.7148 16.1234 11.5587 16.3503 11.3881C16.0491 11.107 15.7605 10.8384 15.4719 10.5693C15.161 10.7525 14.8699 10.9297 14.5737 11.097C14.3112 11.2452 14.0569 11.1843 13.9349 10.9555C13.8116 10.7247 13.8929 10.4733 14.1516 10.312C14.3684 10.177 14.5902 10.0507 14.828 9.90984C14.5966 9.6433 14.369 9.39528 14.158 9.13337C14.0607 9.01299 13.9775 9.01564 13.8542 9.07715C13.6183 9.19488 13.3755 9.29805 13.1346 9.40388C12.8161 9.54343 12.5784 9.47068 12.4703 9.20546C12.368 8.95479 12.4805 8.7233 12.7774 8.58309C12.9979 8.47925 13.2204 8.38004 13.462 8.26959C13.2446 7.95807 13.0475 7.66243 12.8339 7.38001C12.7977 7.33239 12.6858 7.3099 12.6223 7.32776C12.3534 7.4025 12.0909 7.50039 11.8239 7.58372C11.5061 7.68293 11.29 7.58901 11.2016 7.31916C11.1158 7.05791 11.2467 6.83436 11.5557 6.72589C11.7864 6.64454 12.0203 6.57179 12.2752 6.48779C12.0896 6.15709 11.9218 5.84227 11.7343 5.54068C11.6993 5.48446 11.5779 5.45139 11.5048 5.46329C11.2378 5.50628 10.9747 5.57308 10.7102 5.62996C10.4039 5.69544 10.1744 5.56713 10.1153 5.29927C10.0574 5.03802 10.2151 4.82902 10.5335 4.75229C10.7674 4.69608 11.002 4.64383 11.2404 4.58893C10.9607 3.8905 10.6918 3.21918 10.4229 2.54787C10.3911 2.55184 10.3651 2.55184 10.3416 2.55911C10.236 2.5902 10.1286 2.61665 10.0263 2.65766C5.60535 4.41366 2.928 7.69417 2.03491 12.5382C2.00122 12.7208 2.02474 12.8147 2.23387 12.863C2.75256 12.9814 3.26362 13.1388 3.77786 13.2803C3.84778 13.2995 3.91897 13.3147 4.00288 13.3352C4.02195 13.0766 4.04102 12.8405 4.05564 12.6044C4.07661 12.2538 4.25141 12.0528 4.5222 12.0726C4.78091 12.0918 4.93347 12.3021 4.91948 12.6401C4.9055 12.9814 4.88071 13.3226 4.86037 13.6666C5.05106 13.7486 5.22141 13.8233 5.39304 13.8967C5.56975 13.9721 5.74773 14.0455 5.94987 14.1309C5.99818 13.8511 6.03949 13.6024 6.08526 13.355C6.14565 13.031 6.35414 12.853 6.60395 12.9086C6.86139 12.9661 6.98725 13.1996 6.93449 13.525C6.88936 13.8021 6.83533 14.0786 6.80418 14.3577C6.79592 14.4331 6.83405 14.5555 6.88872 14.5899C7.18303 14.7717 7.48941 14.9325 7.81168 15.1124C7.88542 14.8419 7.94835 14.5965 8.0189 14.3537C8.10662 14.0515 8.32211 13.8994 8.55984 13.9635C8.8141 14.033 8.93169 14.2817 8.85224 14.5965C8.78105 14.8769 8.6965 15.1534 8.63294 15.4351C8.61705 15.5039 8.63294 15.6236 8.67743 15.658C8.96093 15.8763 9.25651 16.0767 9.56289 16.2936C9.66714 16.0198 9.75549 15.7738 9.85402 15.5317C9.97098 15.244 10.2004 15.1289 10.4407 15.2274C10.6702 15.3214 10.7598 15.5813 10.6556 15.871C10.5545 16.1508 10.4407 16.4252 10.346 16.707C10.3238 16.7738 10.3263 16.8942 10.367 16.9325C10.6282 17.1799 10.9035 17.4107 11.1838 17.6554C11.3147 17.3975 11.4292 17.162 11.5518 16.9319C11.7012 16.6508 11.93 16.5628 12.1608 16.6898C12.3909 16.8161 12.4526 17.0641 12.3159 17.3499C12.1881 17.6177 12.0476 17.8783 11.9231 18.1475C11.8957 18.2064 11.8824 18.3201 11.9154 18.3539C12.1697 18.6158 12.436 18.8638 12.703 19.1197C12.8193 18.9385 12.9484 18.7328 13.0818 18.5304C13.263 18.2546 13.5084 18.1786 13.7258 18.3254C13.9463 18.4742 13.9794 18.7394 13.8058 19.0205C13.6279 19.3089 13.4435 19.5926 13.2547 19.8896C13.4957 20.211 13.7327 20.5272 13.9813 20.8586C14.0754 20.7421 14.1516 20.6489 14.2266 20.555C14.308 20.4538 14.3856 20.3486 14.4695 20.2501C14.6811 20.002 14.9106 19.9591 15.1127 20.1237C15.3225 20.295 15.3352 20.5629 15.1369 20.8222C14.9634 21.0497 14.7784 21.2673 14.6068 21.4961C14.5674 21.5484 14.5254 21.6516 14.5489 21.6932C14.7294 22.0186 14.9252 22.3341 15.1572 22.721C15.3492 22.4962 15.503 22.2971 15.6747 22.1172C15.8959 21.8864 16.1368 21.8738 16.3243 22.0636C16.5124 22.2541 16.4946 22.5272 16.2753 22.7607C16.0459 23.0054 15.8132 23.2468 15.5749 23.4975C15.7433 23.8586 15.9111 24.2171 16.0859 24.5915C16.2048 24.4942 16.2912 24.4235 16.377 24.3527C16.4699 24.2766 16.5614 24.1979 16.6561 24.1239C16.9142 23.9215 17.1691 23.9261 17.3324 24.1344C17.4952 24.3421 17.4462 24.6133 17.2015 24.8229C16.986 25.0075 16.7629 25.1821 16.5493 25.3686C16.5054 25.407 16.4514 25.4916 16.4654 25.532C16.6002 25.9347 16.7483 26.3329 16.9027 26.7588C19.7701 25.9731 22.0947 24.3818 23.8332 21.8996C25.0568 20.1522 25.8145 18.2044 26.0376 16.0449C25.559 15.9404 25.1147 15.8359 24.6665 15.7526C24.5953 15.7394 24.4758 15.7976 24.4333 15.8624C24.2813 16.0945 24.1561 16.3452 24.015 16.5853C23.8466 16.8723 23.6056 16.961 23.3813 16.8254C23.1581 16.6905 23.1124 16.4213 23.2687 16.1322C23.3832 15.9206 23.5027 15.7116 23.6361 15.4728C23.2961 15.3591 22.9814 15.2645 22.675 15.1474C22.5435 15.0972 22.4767 15.1309 22.403 15.2413C22.2492 15.4728 22.0877 15.699 21.9224 15.9219C21.7248 16.1891 21.4756 16.2414 21.2658 16.0701C21.0694 15.9093 21.0516 15.6461 21.2277 15.3875C21.3688 15.1798 21.5169 14.9774 21.6739 14.7559C21.358 14.6077 21.0548 14.4748 20.7605 14.3233C20.627 14.2545 20.5501 14.2883 20.4604 14.3974C20.2907 14.6051 20.1108 14.8042 19.931 15.0026C19.7059 15.2499 19.458 15.287 19.2635 15.1097C19.0652 14.9285 19.0786 14.6474 19.3004 14.3881C19.4568 14.2056 19.6163 14.0264 19.7892 13.8293C19.4644 13.6335 19.1694 13.4476 18.865 13.2803C18.8141 13.2525 18.7042 13.279 18.6539 13.3213C18.4315 13.5105 18.2236 13.7188 18.0049 13.9126C17.7666 14.1236 17.4996 14.1183 17.3324 13.9093C17.1748 13.7115 17.2136 13.4463 17.436 13.234C17.6159 13.062 17.7996 12.8947 18.0018 12.7062C17.6782 12.4602 17.3731 12.2287 17.0496 11.9827L17.0502 11.9813ZM26.0993 15.1395C26.5201 6.58965 18.7194 0.320957 11.2709 2.32696C11.5054 2.91164 11.7387 3.493 11.9854 4.10677C12.1544 3.91034 12.2898 3.74235 12.436 3.5856C12.6229 3.38586 12.8721 3.36205 13.0513 3.51417C13.2465 3.68018 13.2605 3.9573 13.071 4.19408C12.8613 4.45533 12.6401 4.70666 12.4239 4.96328C12.6032 5.28538 12.7704 5.58697 12.9522 5.91238C13.085 5.72124 13.1924 5.56383 13.3024 5.40906C13.4988 5.13326 13.7296 5.0691 13.952 5.22585C14.1752 5.38326 14.1942 5.6551 13.9997 5.94346C13.8491 6.16702 13.6902 6.38395 13.5459 6.61081C13.5128 6.66306 13.495 6.76822 13.523 6.81188C13.6952 7.08172 13.8828 7.34099 14.0792 7.62407C14.165 7.46996 14.2375 7.34297 14.3074 7.21466C14.5343 6.80063 14.7593 6.68092 15.0161 6.83899C15.2729 6.99706 15.285 7.24839 15.0549 7.67103C14.9271 7.90582 14.7987 8.14128 14.6691 8.38004C14.9049 8.65121 15.1286 8.90783 15.346 9.15784C15.3842 9.13535 15.3956 9.13337 15.3981 9.12675C15.4725 8.95942 15.545 8.79143 15.6206 8.62475C15.7592 8.32117 15.9918 8.20675 16.2296 8.32382C16.4565 8.4356 16.5296 8.68296 16.4126 8.97926C16.3135 9.23125 16.1991 9.47663 16.1031 9.72994C16.0802 9.79079 16.0713 9.89992 16.1056 9.93497C16.3313 10.1665 16.5703 10.3834 16.822 10.6215C16.89 10.4026 16.9434 10.2267 16.9993 10.052C17.1087 9.7101 17.3184 9.56922 17.5784 9.66116C17.8282 9.74979 17.9191 9.98524 17.8251 10.3126C17.75 10.5739 17.6649 10.8318 17.5969 11.0944C17.581 11.1559 17.5905 11.2637 17.6299 11.2961C17.8721 11.4978 18.1257 11.6837 18.3984 11.8927C18.4454 11.6665 18.4842 11.4807 18.5236 11.2941C18.5942 10.9608 18.7868 10.7902 19.0391 10.8371C19.3061 10.8874 19.4377 11.1328 19.3741 11.4721C19.3239 11.7393 19.2642 12.0051 19.2184 12.273C19.2082 12.3312 19.2184 12.4298 19.2546 12.4529C19.5229 12.6268 19.7994 12.7869 20.095 12.9648C20.114 12.8213 20.1305 12.7175 20.1414 12.6136C20.1522 12.5085 20.1503 12.402 20.1681 12.2981C20.217 12.0058 20.4083 11.8358 20.6486 11.8636C20.8933 11.8914 21.0402 12.0898 21.023 12.3954C21.0071 12.685 20.9709 12.9734 20.9556 13.2631C20.9524 13.3279 20.9823 13.4331 21.0274 13.4569C21.3027 13.5998 21.5868 13.7241 21.8621 13.8517C21.8849 13.8134 21.8932 13.8068 21.8932 13.7995C21.8957 13.615 21.8945 13.4304 21.8996 13.2459C21.9078 12.9066 22.0686 12.7029 22.3267 12.6989C22.5854 12.695 22.7532 12.8934 22.7659 13.234C22.7761 13.5065 22.7685 13.7797 22.7793 14.0522C22.7818 14.1209 22.8104 14.2321 22.8537 14.2492C23.1435 14.361 23.4397 14.4516 23.7315 14.5489C23.7506 14.5026 23.7633 14.4867 23.762 14.4715C23.7455 14.279 23.7232 14.0865 23.7086 13.8941C23.6864 13.5958 23.8313 13.3861 24.0747 13.3544C24.3411 13.3193 24.5299 13.484 24.5686 13.7929C24.6049 14.0806 24.6278 14.3703 24.6716 14.6567C24.6824 14.7254 24.7428 14.8273 24.7975 14.8405C25.2221 14.9477 25.6505 15.0376 26.1012 15.1375L26.0993 15.1395ZM13.2134 21.2964C13.0075 21.0232 12.839 20.7812 12.6483 20.5583C12.6007 20.5027 12.4742 20.4756 12.4011 20.4974C12.1417 20.5735 11.8913 20.682 11.6338 20.7673C11.3491 20.8619 11.119 20.7521 11.0376 20.4948C10.9632 20.2607 11.0872 20.0285 11.3535 19.9187C11.541 19.842 11.7317 19.7752 11.9211 19.7038L11.986 19.6112C11.7559 19.4048 11.5302 19.1925 11.2919 18.9967C11.2435 18.957 11.1374 18.9484 11.0776 18.9749C10.8291 19.0847 10.5901 19.217 10.3441 19.3327C10.0644 19.4643 9.82097 19.3922 9.70973 19.1555C9.59913 18.92 9.69511 18.674 9.96272 18.5278C10.1362 18.4326 10.3149 18.3466 10.5183 18.2427C10.231 17.9934 9.97352 17.7692 9.70846 17.5384C9.43322 17.7143 9.16943 17.8869 8.90118 18.0529C8.62785 18.2222 8.3736 18.1773 8.23757 17.9438C8.1009 17.7103 8.18163 17.4636 8.45559 17.2804C8.61514 17.1739 8.77532 17.0694 8.95712 16.9497C8.64565 16.7308 8.36851 16.5357 8.08692 16.3373C7.8155 16.5535 7.56378 16.7606 7.30507 16.9577C7.07624 17.1323 6.82579 17.1085 6.67196 16.91C6.51369 16.7063 6.55818 16.4352 6.78702 16.2407C6.94211 16.1084 7.10293 15.9834 7.28918 15.8333C6.95483 15.6501 6.65417 15.4847 6.35033 15.3181C6.09607 15.57 5.86215 15.8115 5.61742 16.041C5.42292 16.2235 5.16357 16.2195 5.00021 16.0496C4.8235 15.865 4.83176 15.6044 5.025 15.3928C5.16993 15.2341 5.32058 15.0806 5.48712 14.9053C5.22078 14.7929 4.9608 14.693 4.71035 14.5733C4.57115 14.5065 4.48216 14.5217 4.38808 14.6514C4.25078 14.8405 4.09632 15.0171 3.94757 15.1964C3.69204 15.5039 3.4505 15.5581 3.23374 15.3591C3.03097 15.1726 3.0494 14.9073 3.28587 14.6176C3.39901 14.4787 3.51088 14.3399 3.652 14.1659C3.05004 14.0025 2.49321 13.8517 1.92685 13.6983C1.38146 21.7812 8.36279 28.3171 16.0274 26.9077C15.906 26.5664 15.7942 26.2271 15.6607 25.8964C15.6352 25.8342 15.5253 25.7767 15.4522 25.7734C15.182 25.7634 14.9112 25.7806 14.6405 25.7813C14.3334 25.7813 14.1434 25.6166 14.1338 25.3514C14.1249 25.0882 14.3099 24.901 14.6125 24.8845C14.8108 24.8739 15.0104 24.8825 15.2545 24.8825C15.1077 24.563 14.9793 24.2985 14.8642 24.0286C14.8102 23.9016 14.7396 23.8672 14.6093 23.891C14.343 23.9393 14.0741 23.9717 13.8058 24.0068C13.5268 24.0432 13.3215 23.9023 13.2732 23.6463C13.2268 23.3983 13.3787 23.1827 13.6565 23.1251C13.8675 23.0815 14.0817 23.0557 14.3233 23.018C14.1574 22.7462 14.0004 22.5074 13.8631 22.2567C13.7912 22.1258 13.7156 22.0914 13.5783 22.1317C13.3266 22.2058 13.0717 22.268 12.8161 22.3268C12.5244 22.3943 12.2917 22.2627 12.2352 22.0094C12.1773 21.7494 12.321 21.5325 12.6115 21.4505C12.7971 21.3982 12.9846 21.3539 13.2141 21.2951L13.2134 21.2964Z" stroke="#FDD017" stroke-opacity="0.4" stroke-width="1.4" mask="url(#path-1-outside-1_1573_2287)"/>
</svg>
