<svg width="28" height="27" viewBox="0 0 28 27" fill="none" xmlns="http://www.w3.org/2000/svg">
<path d="M14.0058 2.54967e-05C21.7495 0.0143553 28.0053 6.05228 28 13.5055C27.9947 20.9595 21.7092 27.0151 13.9944 27C6.24102 26.9848 -0.0348856 20.914 0.000145947 13.4633C0.0351775 6.0135 6.30583 -0.0143043 14.0058 2.54967e-05ZM16.0017 17.4378C15.3037 16.7659 14.6337 16.1219 13.9804 15.494C11.7348 17.6552 9.46305 19.841 7.17023 22.0477C9.10748 23.4816 11.3101 24.2276 13.7964 24.2925C13.7579 21.735 14.4638 19.438 16.0017 17.4386V17.4378ZM9.94385 11.5406C7.82532 13.0402 5.45368 13.7651 2.80793 13.7112C2.87449 16.1068 3.65394 18.2133 5.0841 20.0264C7.37604 17.8213 9.65309 15.6297 11.9205 13.4473C11.2943 12.8438 10.6305 12.2031 9.94298 11.5406H9.94385ZM14.4402 2.72269C14.42 5.3164 13.5687 7.59906 12.0133 9.55803C12.7078 10.2332 13.3743 10.8797 14.0224 11.5103C16.2697 9.34561 18.5397 7.15989 20.8299 4.95394C18.9697 3.58164 16.8608 2.83228 14.4402 2.72354V2.72269ZM18.0519 15.4501C20.1494 13.9025 22.5184 13.1034 25.1835 13.0773C25.0652 10.76 24.2963 8.72606 22.9073 6.9677C20.6145 9.17197 18.3365 11.3627 16.0717 13.5409C16.7049 14.1512 17.3679 14.7901 18.0528 15.4501H18.0519ZM7.19475 4.97079C8.11959 5.86177 9.04354 6.75191 9.98239 7.65553C11.0053 6.25964 11.5973 4.71201 11.6376 2.96124C10.063 3.25796 7.97858 4.21216 7.19563 4.97079H7.19475ZM22.8828 20.0669C23.8838 18.8058 24.5844 17.388 24.9382 15.7713C23.1078 15.8303 21.5095 16.39 20.0759 17.3712C21.013 18.2714 21.9378 19.1599 22.8828 20.0669ZM16.5806 23.9974C18.1754 23.6266 19.5775 22.9783 20.773 22.0848C19.8438 21.188 18.9233 20.3004 18.0011 19.4111C17.0675 20.7564 16.5928 22.2821 16.5806 23.9974ZM3.11708 11.0146C4.8923 11.0011 6.47661 10.5434 7.90151 9.62041C6.96267 8.71763 6.04659 7.83676 5.11563 6.94241C4.16277 8.13516 3.48754 9.48132 3.11708 11.0146Z" fill="#FDD017"/>
</svg>
