<svg width="30" height="30" viewBox="0 0 30 30" fill="none" xmlns="http://www.w3.org/2000/svg">
<path d="M0 8.66597V3.27884C0.0183481 3.23576 0.0449527 3.19543 0.0532094 3.15051C0.326595 1.68846 1.17244 0.711317 2.56047 0.197996C2.79349 0.111831 3.04119 0.0650819 3.28155 0H8.67313C9.18504 0.0568321 9.69695 0.112747 10.2089 0.171413C12.3464 0.415241 14.4051 0.964312 16.3747 1.82138C20.7159 3.7115 24.1479 6.66768 26.6524 10.6853C28.4615 13.5874 29.5807 16.748 29.8606 20.1506C30.0321 22.236 30.0083 24.3425 29.9835 26.4379C29.9615 28.3106 28.3533 29.9294 26.4909 29.9587C24.2479 29.9945 21.9993 30.0797 19.7609 29.8075C17.6261 29.5481 15.5674 29.0027 13.5977 28.1447C9.6153 26.4095 6.38329 23.7521 3.92465 20.1717C1.86049 17.1679 0.61466 13.8487 0.174307 10.2307C0.111006 9.71003 0.0577964 9.18754 0 8.66597ZM12.0721 3.0616C10.7088 7.71633 7.70894 10.7092 3.06963 12.0621C4.68242 19.4613 10.8098 25.3792 17.9316 26.9109C19.2884 22.2653 22.2956 19.267 26.9414 17.9149C25.28 10.5763 19.3921 4.70698 12.0721 3.06068V3.0616ZM9.54374 2.61794C9.46576 2.60511 9.40889 2.58861 9.35109 2.58769C7.46766 2.56019 5.58515 2.51986 3.70172 2.51436C2.99532 2.51253 2.51001 3.05427 2.50726 3.79858C2.50268 5.35871 2.51185 6.91976 2.52745 8.47989C2.53111 8.83372 2.58341 9.18663 2.61368 9.54504C6.10899 8.68339 8.78322 5.83812 9.54374 2.61702V2.61794ZM27.4166 20.4256C23.5901 21.367 21.0342 24.5735 20.4755 27.3784C20.8764 27.405 21.2746 27.4517 21.6727 27.4554C23.147 27.4701 24.6213 27.4737 26.0946 27.4746C27.0148 27.4746 27.4946 26.9879 27.4973 26.0621C27.5001 24.8915 27.5074 23.721 27.4946 22.5504C27.4872 21.8519 27.445 21.1534 27.4166 20.4256Z" fill="#FDD017"/>
<path d="M15.0078 13.1589C15.6372 13.7877 16.2151 14.3652 16.8114 14.9601C17.3701 14.3973 17.9463 13.8171 18.504 13.2561C19.0976 13.8464 19.6756 14.4221 20.27 15.0124C19.704 15.5743 19.1251 16.149 18.5261 16.7448C19.138 17.3425 19.7214 17.9127 20.2866 18.4645C19.6756 19.0777 19.0985 19.6561 18.516 20.2419C17.9619 19.6864 17.3857 19.108 16.8041 18.525C16.1977 19.1318 15.6216 19.7093 15.0684 20.2639C14.4565 19.6534 13.8785 19.0768 13.3042 18.5048C13.8464 17.9658 14.4262 17.3902 14.9867 16.8338C14.3684 16.2123 13.7868 15.6284 13.1895 15.0289C12.6317 15.5871 12.0538 16.1655 11.4932 16.7283C10.9024 16.1371 10.3263 15.5587 9.73458 14.9666C10.297 14.4083 10.8758 13.8336 11.4694 13.2433C10.8612 12.6429 10.2814 12.07 9.72266 11.5172C10.3281 10.9067 10.9024 10.3265 11.485 9.73892C12.04 10.2962 12.6161 10.8746 13.2014 11.4613C13.806 10.8508 14.3812 10.2715 14.9326 9.71509C15.5482 10.3283 16.1261 10.9049 16.7004 11.4769C16.1582 12.0168 15.5794 12.5934 15.0106 13.1598L15.0078 13.1589Z" fill="#FDD017"/>
</svg>
