<svg width="32" height="24" viewBox="0 0 32 24" fill="none" xmlns="http://www.w3.org/2000/svg">
<path d="M30.1298 10.6912V11.6167C30.1298 12.1238 30.134 12.6281 30.1382 13.1297C30.1479 14.2945 30.1575 15.4445 30.114 16.5804M30.1298 10.6912L29.6143 16.5621M30.1298 10.6912L29.3557 11.1986C25.2473 13.8911 20.7019 14.5557 15.9468 14.5557C11.1941 14.5557 6.67786 13.8615 2.61421 11.2131L1.8412 10.7093V11.632C1.8412 12.1653 1.84479 12.6824 1.8483 13.1892C1.85511 14.1714 1.86165 15.1151 1.84132 16.0645L1.84129 16.0659C1.824 17.0005 2.10216 17.9518 2.94984 18.5526L2.9498 18.5526L2.95671 18.5573C3.08718 18.6466 3.21941 18.7381 3.35342 18.8309C4.28603 19.4766 5.30471 20.1818 6.414 20.5784L6.41461 20.5786C12.2502 22.6562 18.1893 22.6363 24.1058 21.0936C25.6862 20.6855 27.2064 20.037 28.5408 19.0132M30.1298 10.6912L28.2367 18.6163M30.114 16.5804C30.114 16.5807 30.1139 16.581 30.1139 16.5813L29.6143 16.5621M30.114 16.5804C30.114 16.5799 30.114 16.5795 30.114 16.579L29.6143 16.5621M30.114 16.5804C30.0738 17.7466 29.2352 18.4822 28.5408 19.0132M29.6143 16.5621C29.5833 17.4751 28.9332 18.0837 28.2367 18.6163M28.5408 19.0132C28.5409 19.0131 28.541 19.0131 28.5411 19.013L28.2367 18.6163M28.5408 19.0132C28.5407 19.0133 28.5405 19.0134 28.5404 19.0135L28.2367 18.6163M29.6298 11.6167L29.9039 12.0349C29.8132 12.0943 29.7224 12.1528 29.6314 12.2103C29.6304 12.0134 29.6298 11.8156 29.6298 11.6167ZM29.6298 11.6167H29.1298C29.1298 11.7227 29.13 11.8281 29.1303 11.9332C29.2974 11.8309 29.4639 11.7254 29.6298 11.6167ZM2.3412 11.632H2.8412C2.8412 11.7374 2.84135 11.8425 2.84161 11.9472C2.67411 11.8453 2.5073 11.7402 2.3412 11.632ZM2.3412 11.632L2.0682 12.0508C2.15945 12.1103 2.2509 12.1688 2.34255 12.2264C2.34172 12.0299 2.3412 11.8318 2.3412 11.632ZM0.506566 12.4515H0.51943V11.9515C0.51943 11.5328 0.524501 11.1077 0.529607 10.6797C0.539961 9.81162 0.550459 8.93153 0.519101 8.06837L0.519153 8.06836L0.518785 8.06112C0.435753 6.42859 1.14135 5.17135 2.42546 4.12174L2.42654 4.12085C4.14149 2.71107 6.18098 1.91409 8.38178 1.40678C13.986 0.115757 19.5627 0.162722 25.0753 1.80948L25.077 1.80998C26.7307 2.29771 28.2443 3.01589 29.5579 4.10398C30.865 5.19129 31.5403 6.48183 31.4981 8.18063L31.4981 8.18134C31.436 10.8378 31.467 13.4927 31.498 16.1375L31.498 16.1389C31.4973 17.3732 31.0708 18.3898 30.215 19.2726L30.2142 19.2734C28.8528 20.6837 27.1125 21.5611 25.2166 22.1234C18.7453 24.0137 12.3056 24.0109 5.94278 21.7812L5.94273 21.7812C4.66966 21.3352 3.44997 20.5359 2.29655 19.6892L2.29308 19.6867C1.04112 18.7842 0.448134 17.5314 0.503539 15.9739C0.545326 15.0678 0.531274 14.1556 0.517469 13.2593C0.513295 12.9884 0.509144 12.7189 0.506566 12.4515ZM14.8519 1.7464L14.927 1.82024C12.2406 1.9241 9.63594 2.26522 7.10536 3.10806L7.10536 3.10805L7.10329 3.10875C5.59667 3.61789 4.08824 4.2702 2.86239 5.44272L2.86232 5.44278C2.22101 6.05644 1.82871 6.76494 1.81612 7.52474C1.80342 8.29134 2.17881 8.99799 2.84032 9.59738C3.5621 10.2583 4.42344 10.816 5.29373 11.2438L5.29477 11.2443C8.02647 12.5792 10.9805 13.0576 13.9368 13.2267C17.9432 13.4575 21.9198 13.1366 25.737 11.6731C27.0465 11.1767 28.3794 10.5163 29.3748 9.35539L29.3761 9.35381C29.8567 8.7885 30.1575 8.16343 30.1549 7.50256C30.1523 6.83148 29.8377 6.21848 29.2789 5.68625C28.5175 4.9538 27.6074 4.29774 26.6253 3.831C23.2465 2.21734 19.6158 1.85047 16.1125 1.77394L14.8519 1.7464Z" fill="#FDD017" stroke="#FDD017"/>
</svg>
