<svg width="293" height="304" viewBox="0 0 293 304" fill="none" xmlns="http://www.w3.org/2000/svg">
<g clip-path="url(#clip0_1481_1468)">
<path d="M186.25 63.1815C224.936 82.1546 240.937 128.733 222.047 167.37C203.155 206.011 156.398 222.074 117.859 203.167C79.1268 184.166 63.1089 137.368 82.1411 98.8169C101.171 60.27 147.783 44.3153 186.25 63.1815ZM152.098 158.479C150.307 153.292 148.587 148.317 146.91 143.466C130.211 149.194 113.319 154.984 96.2685 160.832C102.327 172.995 111.453 182.239 123.722 188.644C130.002 175.287 139.345 165.099 152.095 158.483L152.098 158.479ZM136.731 113.114C122.342 115.72 108.648 113.691 95.5541 106.954C89.8238 119.54 88.3901 132.366 90.9527 145.258C107.994 139.417 124.928 133.609 141.789 127.826C140.185 123.168 138.487 118.226 136.726 113.112L136.731 113.114ZM181.532 78.3606C174.866 91.7615 164.833 101.521 152.097 107.884C153.861 113.08 155.557 118.059 157.202 122.911C173.918 117.17 190.801 111.376 207.836 105.525C202.008 93.8693 193.359 84.8365 181.529 78.3649L181.532 78.3606ZM167.38 153.175C181.786 150.269 195.654 151.907 209.047 158.275C214.32 145.97 215.623 133.546 213.128 121.038C196.084 126.873 179.148 132.674 162.311 138.442C163.932 143.152 165.63 148.084 167.385 153.178L167.38 153.175ZM139.611 72.3359C141.981 79.2133 144.348 86.0842 146.756 93.0614C155.404 88.3192 162.281 81.7386 166.914 72.758C158.289 70.4536 145.451 70.3148 139.616 72.338L139.611 72.3359ZM179.852 188.906C188.049 184.81 195.141 179.168 201.002 171.647C191.7 167.486 182.291 166.488 172.639 168.077C175.046 175.032 177.422 181.897 179.852 188.906ZM138.39 193.908C147.304 195.877 155.956 195.938 164.195 194.222C161.818 187.303 159.462 180.454 157.101 173.592C149.028 178.29 142.793 185.043 138.39 193.908ZM103.925 93.7256C112.836 97.9881 121.917 99.4811 131.378 98.1722C128.968 91.1994 126.617 84.3958 124.225 77.4859C116.441 81.3457 109.658 86.6785 103.925 93.7256Z" fill="#231D03"/>
<path d="M44.0017 176.095C43.9875 175.684 44.1083 175.366 44.3643 175.143C44.6276 174.895 44.9636 174.723 45.3723 174.626C47.1494 174.309 48.8522 174.106 50.4806 174.017C52.1164 173.903 53.7236 173.793 55.302 173.689C56.9129 173.568 58.526 173.392 60.1413 173.163C61.7641 172.909 63.4671 172.476 65.2504 171.862C69.0827 170.93 72.1164 169.898 74.3515 168.766C76.5866 167.634 78.1868 166.491 79.1521 165.337C80.1248 164.158 80.5464 163.006 80.4168 161.881C80.2947 160.732 79.8013 159.69 78.9367 158.756C78.0721 157.822 76.9076 157.03 75.4431 156.38C74.011 155.713 72.4463 155.265 70.7492 155.035C69.052 154.805 67.3186 154.836 65.5488 155.128C63.7865 155.395 62.1516 156.012 60.6441 156.979C60.6044 157.022 60.5411 157.098 60.4543 157.208C60.3675 157.318 60.277 157.441 60.1828 157.576C60.1209 157.693 60.0429 157.82 59.9487 157.955C59.8868 158.072 59.8522 158.144 59.8448 158.169C58.5645 159.746 57.3954 161.084 56.3376 162.183C55.3121 163.265 54.3226 164.317 53.3691 165.339C52.4481 166.343 51.5261 167.442 50.6034 168.636C49.688 169.805 48.7127 171.268 47.6777 173.026C47.1839 173.043 46.8629 172.935 46.7147 172.701C46.5915 172.475 46.569 172.183 46.6473 171.826C46.733 171.444 46.8958 171.03 47.1359 170.585C47.4009 170.148 47.6747 169.726 47.9573 169.321C48.2399 168.916 48.5115 168.548 48.7719 168.217C49.0324 167.887 49.2098 167.654 49.304 167.519C49.6734 167.004 50.2032 166.359 50.8933 165.585C51.5908 164.787 52.3243 163.958 53.0939 163.099C53.8634 162.24 54.5969 161.411 55.2944 160.613C55.9919 159.814 56.5378 159.161 56.9322 158.653C56.9214 157.862 57.0595 157.21 57.3466 156.698C57.6661 156.168 58.0671 155.729 58.5495 155.383C59.0393 155.012 59.5892 154.713 60.1994 154.485C60.8169 154.233 61.4307 153.994 62.0409 153.767C63.7742 153.138 65.5499 152.78 67.368 152.692C69.186 152.605 70.9515 152.787 72.6646 153.238C74.41 153.672 76.0581 154.39 77.6089 155.391C79.1598 156.392 80.5185 157.676 81.6851 159.242C82.5889 160.595 82.9674 161.888 82.8205 163.121C82.6986 164.361 82.1786 165.524 81.2603 166.611C80.3495 167.672 79.119 168.667 77.569 169.594C76.044 170.528 74.3266 171.379 72.4167 172.145C70.5068 172.912 68.4706 173.6 66.3082 174.211C64.178 174.804 62.0575 175.318 59.9467 175.753C57.8682 176.171 55.8567 176.501 53.9121 176.741C51.9999 176.964 50.3067 177.088 48.8327 177.115C47.3836 177.148 46.2197 177.09 45.3411 176.939C44.4698 176.763 44.0233 176.482 44.0017 176.095ZM74.3842 185.068C76.3818 182.073 78.0766 179.736 79.4688 178.056C80.8932 176.359 81.9945 175.205 82.7726 174.593C83.5757 173.988 84.0366 173.853 84.1552 174.186C84.2739 174.52 84.0424 175.212 83.4607 176.262C82.9041 177.32 81.9583 178.683 80.6236 180.353C79.3211 182.004 77.6254 183.839 75.5363 185.856C75.3144 185.872 75.0734 185.814 74.8134 185.683C74.5534 185.552 74.4104 185.347 74.3842 185.068ZM86.2618 168.984C86.2487 168.844 86.2901 168.612 86.386 168.287C86.4819 167.963 86.5659 167.77 86.6379 167.71C87.2714 167.68 87.7158 167.784 87.9713 168.023C88.2267 168.261 88.3476 168.541 88.3341 168.863C88.3279 169.16 88.2269 169.456 88.0311 169.751C87.8603 170.053 87.6492 170.263 87.3977 170.378C87.1537 170.469 86.909 170.424 86.6638 170.243C86.4509 170.044 86.3169 169.625 86.2618 168.984ZM85.7559 187.937C85.3199 187.482 85.0854 186.897 85.0524 186.182C85.0194 185.466 85.1121 184.692 85.3305 183.861C85.549 183.029 85.8534 182.182 86.2438 181.32C86.6342 180.458 87.0422 179.628 87.4678 178.83C87.8934 178.033 88.2931 177.323 88.6671 176.7C89.0411 176.077 89.3208 175.59 89.5064 175.237C89.6534 175.199 89.7783 175.236 89.881 175.348C90.0088 175.467 90.1129 175.62 90.1936 175.807C90.3065 175.976 90.382 176.134 90.4201 176.281C90.4905 176.41 90.5257 176.475 90.5257 176.475C90.3425 177.371 90.088 178.233 89.7623 179.06C89.469 179.869 89.1507 180.671 88.8074 181.466C88.489 182.268 88.167 183.083 87.8413 183.91C87.5406 184.744 87.2862 185.606 87.078 186.495C87.1671 186.928 87.5755 187.062 88.3032 186.897C89.0382 186.707 89.9733 186.345 91.1084 185.811C92.2509 185.253 93.5089 184.579 94.8824 183.79C96.2882 182.983 97.6654 182.181 99.0139 181.385C100.387 180.596 101.676 179.863 102.881 179.187C104.092 178.486 105.084 177.977 105.856 177.662C106.66 177.33 107.173 177.25 107.393 177.424C107.621 177.572 107.428 178.086 106.816 178.964C106.062 179.311 105.117 179.888 103.983 180.694C102.85 181.499 101.615 182.37 100.279 183.306C98.9513 184.217 97.5858 185.117 96.1828 186.006C94.7798 186.895 93.4122 187.618 92.0801 188.175C90.7804 188.715 89.5794 189.012 88.4771 189.067C87.3822 189.096 86.4752 188.72 85.7559 187.937ZM106.565 194.571C105.889 194.1 105.426 193.556 105.174 192.938C104.954 192.303 104.874 191.655 104.933 190.994C104.993 190.332 105.16 189.676 105.434 189.023C105.74 188.354 106.085 187.736 106.47 187.171C107.455 186.593 108.561 185.928 109.787 185.177C111.046 184.408 112.347 183.679 113.691 182.99C115.035 182.301 116.395 181.698 117.769 181.18C119.176 180.646 120.533 180.327 121.84 180.224C122.291 180.167 122.6 180.272 122.765 180.538C122.963 180.786 123.053 181.125 123.035 181.554C123.017 181.984 122.918 182.457 122.738 182.974C122.584 183.498 122.395 183.999 122.172 184.477C121.95 184.954 121.717 185.374 121.474 185.737C121.232 186.099 121.026 186.337 120.856 186.45C120.453 186.711 119.745 186.95 118.731 187.167C117.741 187.39 116.637 187.635 115.419 187.899C114.207 188.139 112.989 188.404 111.763 188.693C110.537 188.983 109.498 189.328 108.647 189.728C107.803 190.103 107.234 190.56 106.939 191.097C106.645 191.635 106.839 192.263 107.523 192.981C108.343 193.331 109.378 193.596 110.629 193.775C111.911 193.937 113.221 194.052 114.559 194.121C115.928 194.173 117.248 194.21 118.518 194.232C119.795 194.229 120.838 194.238 121.646 194.259L121.974 194.804C121.21 195.366 120.116 195.762 118.69 195.993C117.264 196.224 115.768 196.325 114.201 196.297C112.642 196.244 111.157 196.077 109.747 195.796C108.344 195.49 107.283 195.082 106.565 194.571ZM119.745 182.904C119.727 182.872 119.507 182.929 119.083 183.076C118.667 183.197 118.138 183.38 117.496 183.625C116.885 183.852 116.211 184.114 115.471 184.412C114.764 184.692 114.101 184.958 113.484 185.21C112.891 185.469 112.389 185.701 111.975 185.905C111.57 186.084 111.392 186.18 111.442 186.195C111.819 186.388 112.346 186.489 113.022 186.499C113.73 186.491 114.473 186.412 115.251 186.261C116.053 186.118 116.83 185.926 117.579 185.686C118.336 185.421 118.953 185.128 119.428 184.806C119.928 184.492 120.226 184.173 120.321 183.848C120.442 183.531 120.25 183.216 119.745 182.904ZM140.499 203.655C140.5 203.466 140.558 203.225 140.671 202.933C140.817 202.623 140.963 202.313 141.109 202.003C141.28 201.7 141.44 201.435 141.588 201.207C141.737 200.98 141.815 200.854 141.822 200.829L156.794 181.301C157.102 180.903 157.312 180.788 157.425 180.957C157.545 181.102 157.588 181.372 157.552 181.769C157.549 182.148 157.477 182.575 157.337 183.049C157.204 183.499 157.047 183.846 156.866 184.092C155.506 185.754 154.13 187.425 152.738 189.104C151.379 190.766 150.036 192.461 148.712 194.188C147.42 195.897 146.158 197.642 144.925 199.423C143.701 201.18 142.565 203.003 141.518 204.893C141.281 204.959 141.092 204.957 140.949 204.888C140.832 204.826 140.725 204.727 140.63 204.59C140.567 204.436 140.52 204.273 140.489 204.101C140.484 203.936 140.487 203.788 140.499 203.655ZM162.685 211.144C162.853 210.298 163.155 209.504 163.591 208.764C164.059 208.006 164.582 207.292 165.161 206.621C165.771 205.932 166.391 205.26 167.019 204.604C167.68 203.93 168.271 203.263 168.791 202.602C169.32 201.916 169.753 201.23 170.092 200.542C170.438 199.83 170.606 199.078 170.595 198.288C170.037 197.879 169.298 197.715 168.378 197.796C167.483 197.885 166.486 198.133 165.388 198.542C164.297 198.926 163.132 199.424 161.892 200.035C160.685 200.629 159.483 201.251 158.286 201.903C157.121 202.536 156.005 203.143 154.938 203.724C153.87 204.305 152.918 204.771 152.081 205.121C151.277 205.454 150.628 205.629 150.134 205.646C149.648 205.638 149.396 205.387 149.379 204.893C149.361 204.861 149.591 204.589 150.068 204.078C150.577 203.55 151.193 202.89 151.915 202.098C152.662 201.314 153.469 200.467 154.336 199.555C155.228 198.651 156.06 197.81 156.832 197.034C157.612 196.232 158.285 195.562 158.851 195.023C159.418 194.485 159.758 194.205 159.873 194.184C160.294 194.689 160.442 195.154 160.317 195.578C160.224 195.985 160.036 196.391 159.753 196.797C159.478 197.177 159.174 197.562 158.841 197.953C158.534 198.351 158.376 198.793 158.368 199.279C158.849 199.123 159.509 198.91 160.348 198.642C161.22 198.357 162.146 198.073 163.125 197.792C164.129 197.519 165.154 197.265 166.201 197.031C167.272 196.804 168.248 196.671 169.129 196.633C170.016 196.569 170.776 196.617 171.408 196.776C172.065 196.943 172.484 197.271 172.666 197.759C172.847 198.247 172.739 198.935 172.341 199.822C171.976 200.691 171.224 201.813 170.085 203.188C169.958 203.34 169.646 203.71 169.147 204.295C168.68 204.864 168.158 205.483 167.58 206.154C167.034 206.808 166.511 207.427 166.012 208.013C165.546 208.581 165.249 208.942 165.123 209.094C165.068 209.187 164.976 209.363 164.844 209.623C164.746 209.866 164.623 210.142 164.478 210.452C164.339 210.737 164.176 211.014 163.987 211.284C163.806 211.53 163.619 211.705 163.425 211.811C163.23 211.916 163.059 211.852 162.911 211.618C162.77 211.359 162.695 211.201 162.685 211.144ZM173.062 214.209C173.052 214.151 173.08 214.01 173.146 213.785C173.213 213.561 173.269 213.414 173.316 213.347C173.472 213.094 173.75 212.66 174.149 212.045C174.555 211.405 174.981 210.743 175.427 210.06C175.881 209.352 176.307 208.691 176.706 208.075C177.105 207.46 177.382 207.026 177.538 206.774C177.742 206.453 177.972 206.087 178.23 205.674C178.495 205.237 178.652 204.795 178.703 204.348C178.343 204.187 177.866 204.101 177.272 204.088C176.686 204.051 176.104 204.001 175.525 203.939C174.978 203.859 174.478 203.711 174.026 203.496C173.606 203.263 173.37 202.868 173.318 202.309C173.802 201.774 174.369 201.507 175.02 201.509C175.679 201.486 176.369 201.54 177.09 201.672C177.811 201.804 178.506 201.887 179.175 201.921C179.869 201.963 180.48 201.777 181.01 201.363C181.426 200.78 181.921 200.071 182.494 199.236C183.098 198.382 183.727 197.495 184.379 196.575C185.031 195.654 185.704 194.753 186.399 193.872C187.119 192.998 187.818 192.241 188.496 191.599C188.822 191.506 189.051 191.56 189.181 191.761C189.312 191.963 189.37 192.224 189.357 192.546C189.375 192.85 189.353 193.156 189.289 193.463C189.226 193.77 189.167 193.97 189.112 194.062C188.771 194.668 188.302 195.289 187.706 195.928C187.143 196.549 186.588 197.186 186.042 197.84C185.521 198.5 185.05 199.176 184.629 199.866C184.233 200.564 184.023 201.276 183.998 202.002L192.053 204.38C192.078 204.388 192.114 204.493 192.163 204.698C192.218 204.877 192.269 205.028 192.314 205.15C192.336 205.536 192.129 205.733 191.692 205.74C191.256 205.747 190.693 205.676 190.004 205.526C189.322 205.352 188.54 205.149 187.659 204.915C186.81 204.665 185.967 204.484 185.131 204.373C184.327 204.244 183.573 204.225 182.867 204.315C182.169 204.38 181.63 204.642 181.25 205.1C180.107 206.582 179.01 208.091 177.959 209.627C176.915 211.138 175.889 212.681 174.881 214.257C174.808 214.317 174.672 214.412 174.47 214.543C174.276 214.649 174.073 214.738 173.861 214.811C173.657 214.86 173.471 214.845 173.304 214.769C173.161 214.7 173.081 214.513 173.062 214.209ZM188.721 218.833C187.798 218.099 187.324 217.266 187.3 216.336C187.301 215.413 187.59 214.48 188.167 213.537C188.752 212.57 189.544 211.636 190.542 210.736C191.549 209.811 192.6 209.009 193.697 208.328C194.794 207.647 195.847 207.116 196.856 206.735C197.897 206.337 198.728 206.189 199.35 206.291C200.957 206.548 202.135 207.018 202.884 207.701C203.665 208.366 204.104 209.134 204.2 210.004C204.296 210.874 204.114 211.811 203.654 212.816C203.202 213.796 202.559 214.733 201.724 215.627C200.915 216.528 199.955 217.344 198.843 218.075C197.756 218.813 196.613 219.372 195.415 219.751C194.249 220.113 193.084 220.244 191.919 220.144C190.761 220.019 189.695 219.582 188.721 218.833ZM188.94 216.576C188.904 217.434 189.196 218.009 189.815 218.301C190.443 218.568 191.24 218.626 192.207 218.478C193.207 218.311 194.295 217.981 195.473 217.487C196.658 216.968 197.774 216.361 198.821 215.665C199.893 214.977 200.816 214.245 201.588 213.468C202.393 212.674 202.886 211.924 203.067 211.217C203.274 210.518 203.092 209.894 202.521 209.345C201.982 208.779 200.905 208.379 199.29 208.147C198.845 208.368 198.277 208.635 197.588 208.947C196.905 209.234 196.183 209.564 195.422 209.937C194.685 210.317 193.934 210.746 193.167 211.226C192.409 211.681 191.717 212.183 191.094 212.732C190.47 213.281 189.955 213.875 189.548 214.516C189.167 215.163 188.964 215.85 188.94 216.576ZM55.376 239.572C55.3159 239.5 55.2404 239.342 55.1495 239.098C55.0263 238.871 54.9443 238.643 54.9034 238.414C54.8625 238.185 54.8766 237.999 54.9459 237.856C54.9901 237.707 55.1496 237.672 55.4243 237.753C55.7349 238.633 56.3906 239.125 57.3913 239.23C58.392 239.336 59.545 239.201 60.8505 238.826C62.1485 238.477 63.5144 237.943 64.948 237.226C66.3993 236.541 67.7257 235.82 68.9272 235.061C70.1537 234.31 71.1759 233.607 71.9937 232.953C72.8365 232.306 73.2985 231.845 73.3796 231.57C73.4017 231.495 73.335 231.353 73.1795 231.144C73.0313 230.91 72.8456 230.666 72.6225 230.41C72.4244 230.161 72.2351 229.929 72.0546 229.712C71.874 229.496 71.7699 229.343 71.742 229.253C71.8907 229.026 72.1833 228.909 72.6198 228.902C73.0637 228.87 73.5501 228.878 74.0791 228.925C74.6155 228.948 75.1357 228.979 75.6397 229.02C76.1761 229.042 76.595 229.003 76.8964 228.902C78.788 227.37 80.4458 225.986 81.8697 224.75C83.326 223.497 84.7088 222.262 86.0181 221.047C87.3598 219.814 88.725 218.547 90.1137 217.246C91.5025 215.946 93.0876 214.486 94.8691 212.867C95.356 212.413 95.6736 212.304 95.8218 212.537C95.9699 212.771 95.9944 213.24 95.8952 213.944C95.7959 214.648 95.6039 215.528 95.3191 216.584C95.0417 217.616 94.7135 218.727 94.3345 219.918C93.9555 221.11 93.5441 222.319 93.1004 223.546C92.6817 224.78 92.28 225.91 91.8953 226.937C91.5355 227.971 91.2164 228.868 90.9378 229.627C90.6915 230.369 90.5477 230.856 90.5063 231.088C90.23 232.392 89.9643 233.521 89.709 234.478C89.486 235.417 89.3564 236.315 89.3202 237.174C89.2914 238.007 89.4036 238.868 89.6569 239.757C89.9425 240.629 90.4557 241.65 91.1966 242.819C90.2913 242.85 89.6118 242.622 89.1582 242.136C88.7223 241.681 88.4217 241.09 88.2564 240.362C88.1235 239.617 88.0663 238.799 88.0849 237.908C88.1359 237 88.1758 236.13 88.2047 235.296C88.2658 234.445 88.2564 233.696 88.1763 233.048C88.1285 232.382 87.9306 231.903 87.5827 231.61C87.5577 231.602 87.4828 231.58 87.3579 231.543C87.2654 231.489 87.1442 231.44 86.9943 231.395C86.8694 231.358 86.7409 231.334 86.6086 231.322C86.4837 231.285 86.3963 231.259 86.3464 231.245C86.1068 231.228 85.6528 231.203 84.9841 231.168C84.3405 231.141 83.6307 231.108 82.8548 231.069C82.0788 231.03 81.3279 230.998 80.6019 230.974C79.901 230.957 79.3895 230.942 79.0677 230.928C78.3917 230.919 77.6118 231.123 76.7281 231.541C75.8694 231.966 74.9202 232.514 73.8804 233.184C72.873 233.837 71.8023 234.566 70.6684 235.372C69.5594 236.185 68.4328 236.965 67.2886 237.714C66.1444 238.462 65.0099 239.131 63.885 239.722C62.7601 240.313 61.6831 240.742 60.6541 241.008C59.625 241.275 58.6661 241.304 57.7772 241.096C56.8559 240.905 56.0556 240.397 55.376 239.572ZM80.5489 229.085C80.5915 229.124 80.7127 229.174 80.9125 229.233C81.1373 229.299 81.2908 229.331 81.3731 229.328C81.8448 229.386 82.4325 229.464 83.1364 229.564C83.8402 229.663 84.5477 229.75 85.259 229.824C85.9775 229.873 86.6499 229.895 87.2759 229.89C87.9094 229.86 88.3717 229.766 88.6628 229.607C88.6628 229.607 88.7777 229.356 89.0076 228.854C89.2374 228.351 89.5202 227.715 89.8562 226.946C90.1994 226.151 90.5649 225.281 90.9524 224.337C91.3723 223.375 91.7724 222.434 92.1525 221.514C92.5327 220.595 92.8658 219.743 93.1518 218.958C93.4701 218.156 93.7081 217.534 93.8658 217.092C93.628 216.886 93.17 217.104 92.4918 217.745C91.8209 218.362 90.9279 219.225 89.8127 220.334C88.7225 221.452 87.4036 222.746 85.8559 224.216C84.3406 225.67 82.6159 227.143 80.6817 228.635L80.5489 229.085ZM95.9816 243.58C94.8332 242.78 94.1795 241.867 94.0204 240.842C93.8863 239.825 94.0727 238.781 94.5794 237.708C95.1185 236.619 95.9096 235.549 96.9527 234.499C98.0032 233.425 99.1601 232.449 100.423 231.573C101.687 230.697 102.967 229.948 104.264 229.327C105.561 228.705 106.729 228.29 107.768 228.081C108.832 227.879 109.674 227.924 110.294 228.216C110.914 228.507 111.166 229.125 111.05 230.068C111.007 230.49 110.828 230.912 110.513 231.335C110.223 231.766 109.862 232.161 109.43 232.522C109.03 232.866 108.587 233.169 108.102 233.433C107.649 233.68 107.222 233.839 106.82 233.91C106.444 233.989 106.126 233.963 105.866 233.832C105.631 233.708 105.531 233.448 105.567 233.052C106.014 232.641 106.499 232.241 107.021 231.852C107.551 231.438 108.057 231.058 108.539 230.711C108.47 230.392 108.201 230.245 107.733 230.27C107.264 230.294 106.663 230.443 105.931 230.715C105.199 230.988 104.392 231.374 103.512 231.874C102.663 232.357 101.809 232.906 100.948 233.52C100.088 234.135 99.2788 234.806 98.5211 235.533C97.7958 236.242 97.2028 236.962 96.742 237.695C96.2812 238.428 95.9975 239.159 95.8908 239.888C95.8166 240.599 96.0165 241.255 96.4905 241.857C97.2925 242.175 98.2637 242.381 99.404 242.473C100.552 242.54 101.743 242.553 102.977 242.51C104.212 242.467 105.441 242.396 106.666 242.296C107.922 242.178 109.055 242.065 110.065 241.956C111.1 241.854 111.959 241.795 112.642 241.78C113.358 241.747 113.801 241.81 113.971 241.969C114.372 242.359 114.29 242.728 113.726 243.077C113.186 243.434 112.348 243.743 111.211 244.005C110.075 244.267 108.752 244.473 107.241 244.624C105.762 244.758 104.289 244.825 102.823 244.827C101.363 244.803 100.009 244.702 98.7581 244.522C97.515 244.318 96.5895 244.004 95.9816 243.58ZM116.511 249.643C116.501 249.586 116.529 249.445 116.596 249.22C116.662 248.995 116.719 248.849 116.766 248.781C116.922 248.529 117.199 248.095 117.598 247.48C118.005 246.839 118.431 246.178 118.877 245.495C119.33 244.787 119.756 244.125 120.155 243.51C120.554 242.895 120.832 242.461 120.988 242.208C121.191 241.888 121.421 241.521 121.679 241.109C121.944 240.671 122.102 240.229 122.152 239.782C121.792 239.622 121.316 239.535 120.722 239.523C120.136 239.485 119.553 239.436 118.974 239.373C118.427 239.293 117.928 239.146 117.475 238.931C117.055 238.698 116.819 238.302 116.767 237.744C117.251 237.208 117.819 236.941 118.47 236.943C119.128 236.921 119.818 236.975 120.539 237.107C121.261 237.238 121.956 237.321 122.624 237.356C123.318 237.398 123.93 237.212 124.459 236.798C124.876 236.215 125.37 235.506 125.943 234.67C126.548 233.817 127.176 232.93 127.828 232.009C128.48 231.088 129.154 230.187 129.848 229.306C130.568 228.433 131.267 227.675 131.945 227.034C132.272 226.94 132.5 226.994 132.631 227.196C132.761 227.397 132.82 227.659 132.806 227.98C132.825 228.285 132.802 228.59 132.739 228.897C132.675 229.205 132.616 229.404 132.562 229.497C132.22 230.102 131.752 230.724 131.156 231.362C130.592 231.983 130.037 232.621 129.491 233.274C128.97 233.935 128.499 234.61 128.078 235.301C127.682 235.998 127.472 236.71 127.448 237.436L135.502 239.815C135.527 239.822 135.564 239.928 135.612 240.132C135.668 240.312 135.718 240.462 135.764 240.584C135.785 240.971 135.578 241.167 135.141 241.174C134.705 241.181 134.142 241.11 133.453 240.961C132.771 240.787 131.99 240.583 131.108 240.35C130.259 240.099 129.416 239.918 128.58 239.807C127.777 239.678 127.022 239.659 126.316 239.749C125.618 239.815 125.079 240.076 124.7 240.535C123.556 242.016 122.459 243.525 121.408 245.061C120.364 246.572 119.338 248.116 118.33 249.691C118.258 249.752 118.121 249.847 117.92 249.977C117.725 250.083 117.523 250.172 117.311 250.246C117.107 250.294 116.921 250.28 116.753 250.203C116.611 250.134 116.53 249.947 116.511 249.643ZM129.623 253.515C131.621 250.521 133.316 248.184 134.708 246.504C136.132 244.807 137.234 243.652 138.012 243.04C138.815 242.436 139.276 242.3 139.394 242.634C139.513 242.968 139.282 243.66 138.7 244.71C138.143 245.767 137.197 247.131 135.863 248.8C134.56 250.452 132.864 252.287 130.775 254.303C130.553 254.319 130.313 254.262 130.053 254.131C129.793 254 129.65 253.795 129.623 253.515ZM141.501 237.432C141.488 237.292 141.529 237.06 141.625 236.735C141.721 236.41 141.805 236.218 141.877 236.158C142.51 236.128 142.955 236.232 143.21 236.47C143.466 236.709 143.587 236.989 143.573 237.31C143.567 237.607 143.466 237.903 143.27 238.199C143.099 238.501 142.888 238.71 142.637 238.826C142.393 238.917 142.148 238.872 141.903 238.691C141.69 238.492 141.556 238.072 141.501 237.432ZM141.686 257.078C140.763 256.343 140.289 255.511 140.265 254.581C140.266 253.658 140.555 252.725 141.132 251.782C141.717 250.814 142.509 249.88 143.507 248.981C144.514 248.056 145.565 247.253 146.662 246.572C147.76 245.892 148.812 245.361 149.821 244.98C150.862 244.581 151.693 244.433 152.315 244.535C153.922 244.793 155.1 245.263 155.849 245.945C156.63 246.611 157.069 247.378 157.165 248.248C157.261 249.118 157.079 250.056 156.619 251.061C156.167 252.04 155.524 252.977 154.69 253.871C153.88 254.773 152.92 255.589 151.808 256.319C150.721 257.057 149.578 257.616 148.38 257.995C147.214 258.357 146.049 258.488 144.884 258.388C143.726 258.264 142.66 257.827 141.686 257.078ZM141.905 254.821C141.869 255.679 142.161 256.254 142.78 256.545C143.408 256.812 144.205 256.871 145.172 256.722C146.172 256.556 147.26 256.226 148.438 255.732C149.623 255.213 150.739 254.605 151.786 253.91C152.858 253.222 153.781 252.49 154.553 251.713C155.358 250.919 155.851 250.168 156.032 249.462C156.239 248.762 156.057 248.138 155.486 247.59C154.947 247.023 153.87 246.624 152.255 246.391C151.81 246.613 151.242 246.879 150.553 247.192C149.87 247.479 149.148 247.809 148.387 248.181C147.65 248.561 146.899 248.991 146.132 249.471C145.374 249.925 144.682 250.427 144.059 250.976C143.435 251.525 142.92 252.12 142.513 252.76C142.132 253.408 141.929 254.095 141.905 254.821ZM169.447 265.276C169.615 264.429 169.917 263.636 170.353 262.896C170.821 262.138 171.344 261.424 171.923 260.753C172.533 260.064 173.153 259.392 173.781 258.735C174.442 258.062 175.032 257.394 175.553 256.734C176.082 256.048 176.515 255.361 176.854 254.674C177.2 253.962 177.368 253.21 177.357 252.419C176.799 252.01 176.06 251.846 175.14 251.928C174.245 252.016 173.248 252.265 172.15 252.674C171.059 253.058 169.894 253.555 168.654 254.167C167.447 254.761 166.245 255.383 165.048 256.034C163.883 256.668 162.767 257.275 161.7 257.856C160.632 258.437 159.68 258.902 158.843 259.252C158.039 259.585 157.39 259.76 156.896 259.777C156.41 259.769 156.158 259.518 156.141 259.025C156.123 258.992 156.353 258.721 156.83 258.21C157.339 257.681 157.954 257.021 158.677 256.23C159.424 255.446 160.231 254.598 161.098 253.687C161.99 252.782 162.822 251.942 163.594 251.165C164.374 250.364 165.047 249.694 165.613 249.155C166.18 248.616 166.52 248.337 166.635 248.316C167.056 248.821 167.204 249.285 167.079 249.71C166.986 250.117 166.798 250.523 166.515 250.928C166.24 251.309 165.936 251.694 165.603 252.085C165.296 252.482 165.138 252.925 165.13 253.411C165.611 253.254 166.271 253.042 167.11 252.774C167.982 252.488 168.908 252.205 169.887 251.924C170.891 251.65 171.916 251.396 172.963 251.162C174.034 250.936 175.01 250.803 175.891 250.764C176.778 250.701 177.538 250.749 178.17 250.908C178.827 251.075 179.246 251.402 179.428 251.89C179.609 252.378 179.501 253.066 179.103 253.953C178.738 254.823 177.986 255.945 176.847 257.319C176.72 257.472 176.408 257.841 175.909 258.427C175.442 258.995 174.92 259.615 174.342 260.286C173.796 260.939 173.273 261.559 172.774 262.145C172.308 262.713 172.011 263.073 171.885 263.226C171.83 263.319 171.737 263.495 171.606 263.755C171.508 263.997 171.385 264.273 171.24 264.583C171.101 264.868 170.938 265.146 170.749 265.416C170.568 265.661 170.381 265.837 170.187 265.942C169.992 266.048 169.821 265.984 169.673 265.75C169.532 265.491 169.457 265.333 169.447 265.276Z" fill="#FDD017"/>
<path d="M44.0017 176.095C43.9875 175.684 44.1083 175.366 44.3643 175.143C44.6276 174.895 44.9636 174.723 45.3723 174.626C47.1494 174.309 48.8522 174.106 50.4806 174.017C52.1164 173.903 53.7236 173.793 55.302 173.689C56.9129 173.568 58.526 173.392 60.1413 173.163C61.7641 172.909 63.4671 172.476 65.2504 171.862C69.0827 170.93 72.1164 169.898 74.3515 168.766C76.5866 167.634 78.1868 166.491 79.1521 165.337C80.1248 164.158 80.5464 163.006 80.4168 161.881C80.2947 160.732 79.8013 159.69 78.9367 158.756C78.0721 157.822 76.9076 157.03 75.4431 156.38C74.011 155.713 72.4463 155.265 70.7492 155.035C69.052 154.805 67.3186 154.836 65.5488 155.128C63.7865 155.395 62.1516 156.012 60.6441 156.979C60.6044 157.022 60.5411 157.098 60.4543 157.208C60.3675 157.318 60.277 157.441 60.1828 157.576C60.1209 157.693 60.0429 157.82 59.9487 157.955C59.8868 158.072 59.8522 158.144 59.8448 158.169C58.5645 159.746 57.3954 161.084 56.3376 162.183C55.3121 163.265 54.3226 164.317 53.3691 165.339C52.4481 166.343 51.5261 167.442 50.6034 168.636C49.688 169.805 48.7127 171.268 47.6777 173.026C47.1839 173.043 46.8629 172.935 46.7147 172.701C46.5915 172.475 46.569 172.183 46.6473 171.826C46.733 171.444 46.8958 171.03 47.1359 170.585C47.4009 170.148 47.6747 169.726 47.9573 169.321C48.2399 168.916 48.5115 168.548 48.7719 168.217C49.0324 167.887 49.2098 167.654 49.304 167.519C49.6734 167.004 50.2032 166.359 50.8933 165.585C51.5908 164.787 52.3243 163.958 53.0939 163.099C53.8634 162.24 54.5969 161.411 55.2944 160.613C55.9919 159.814 56.5378 159.161 56.9322 158.653C56.9214 157.862 57.0595 157.21 57.3466 156.698C57.6661 156.168 58.0671 155.729 58.5495 155.383C59.0393 155.012 59.5892 154.713 60.1994 154.485C60.8169 154.233 61.4307 153.994 62.0409 153.767C63.7742 153.138 65.5499 152.78 67.368 152.692C69.186 152.605 70.9515 152.787 72.6646 153.238C74.41 153.672 76.0581 154.39 77.6089 155.391C79.1598 156.392 80.5185 157.676 81.6851 159.242C82.5889 160.595 82.9674 161.888 82.8205 163.121C82.6986 164.361 82.1786 165.524 81.2603 166.611C80.3495 167.672 79.119 168.667 77.569 169.594C76.044 170.528 74.3266 171.379 72.4167 172.145C70.5068 172.912 68.4706 173.6 66.3082 174.211C64.178 174.804 62.0575 175.318 59.9467 175.753C57.8682 176.171 55.8567 176.501 53.9121 176.741C51.9999 176.964 50.3067 177.088 48.8327 177.115C47.3836 177.148 46.2197 177.09 45.3411 176.939C44.4698 176.763 44.0233 176.482 44.0017 176.095ZM74.3842 185.068C76.3818 182.073 78.0766 179.736 79.4688 178.056C80.8932 176.359 81.9945 175.205 82.7726 174.593C83.5757 173.988 84.0366 173.853 84.1552 174.186C84.2739 174.52 84.0424 175.212 83.4607 176.262C82.9041 177.32 81.9583 178.683 80.6236 180.353C79.3211 182.004 77.6254 183.839 75.5363 185.856C75.3144 185.872 75.0734 185.814 74.8134 185.683C74.5534 185.552 74.4104 185.347 74.3842 185.068ZM86.2618 168.984C86.2487 168.844 86.2901 168.612 86.386 168.287C86.4819 167.963 86.5659 167.77 86.6379 167.71C87.2714 167.68 87.7158 167.784 87.9713 168.023C88.2267 168.261 88.3476 168.541 88.3341 168.863C88.3279 169.16 88.2269 169.456 88.0311 169.751C87.8603 170.053 87.6492 170.263 87.3977 170.378C87.1537 170.469 86.909 170.424 86.6638 170.243C86.4509 170.044 86.3169 169.625 86.2618 168.984ZM85.7559 187.937C85.3199 187.482 85.0854 186.897 85.0524 186.182C85.0194 185.466 85.1121 184.692 85.3305 183.861C85.549 183.029 85.8534 182.182 86.2438 181.32C86.6342 180.458 87.0422 179.628 87.4678 178.83C87.8934 178.033 88.2931 177.323 88.6671 176.7C89.0411 176.077 89.3208 175.59 89.5064 175.237C89.6534 175.199 89.7783 175.236 89.881 175.348C90.0088 175.467 90.1129 175.62 90.1936 175.807C90.3065 175.976 90.382 176.134 90.4201 176.281C90.4905 176.41 90.5257 176.475 90.5257 176.475C90.3425 177.371 90.088 178.233 89.7623 179.06C89.469 179.869 89.1507 180.671 88.8074 181.466C88.489 182.268 88.167 183.083 87.8413 183.91C87.5406 184.744 87.2862 185.606 87.078 186.495C87.1671 186.928 87.5755 187.062 88.3032 186.897C89.0382 186.707 89.9733 186.345 91.1084 185.811C92.2509 185.253 93.5089 184.579 94.8824 183.79C96.2882 182.983 97.6654 182.181 99.0139 181.385C100.387 180.596 101.676 179.863 102.881 179.187C104.092 178.486 105.084 177.977 105.856 177.662C106.66 177.33 107.173 177.25 107.393 177.424C107.621 177.572 107.428 178.086 106.816 178.964C106.062 179.311 105.117 179.888 103.983 180.694C102.85 181.499 101.615 182.37 100.279 183.306C98.9513 184.217 97.5858 185.117 96.1828 186.006C94.7798 186.895 93.4122 187.618 92.0801 188.175C90.7804 188.715 89.5794 189.012 88.4771 189.067C87.3822 189.096 86.4752 188.72 85.7559 187.937ZM106.565 194.571C105.889 194.1 105.426 193.556 105.174 192.938C104.954 192.303 104.874 191.655 104.933 190.994C104.993 190.332 105.16 189.676 105.434 189.023C105.74 188.354 106.085 187.736 106.47 187.171C107.455 186.593 108.561 185.928 109.787 185.177C111.046 184.408 112.347 183.679 113.691 182.99C115.035 182.301 116.395 181.698 117.769 181.18C119.176 180.646 120.533 180.327 121.84 180.224C122.291 180.167 122.6 180.272 122.765 180.538C122.963 180.786 123.053 181.125 123.035 181.554C123.017 181.984 122.918 182.457 122.738 182.974C122.584 183.498 122.395 183.999 122.172 184.477C121.95 184.954 121.717 185.374 121.474 185.737C121.232 186.099 121.026 186.337 120.856 186.45C120.453 186.711 119.745 186.95 118.731 187.167C117.741 187.39 116.637 187.635 115.419 187.899C114.207 188.139 112.989 188.404 111.763 188.693C110.537 188.983 109.498 189.328 108.647 189.728C107.803 190.103 107.234 190.56 106.939 191.097C106.645 191.635 106.839 192.263 107.523 192.981C108.343 193.331 109.378 193.596 110.629 193.775C111.911 193.937 113.221 194.052 114.559 194.121C115.928 194.173 117.248 194.21 118.518 194.232C119.795 194.229 120.838 194.238 121.646 194.259L121.974 194.804C121.21 195.366 120.116 195.762 118.69 195.993C117.264 196.224 115.768 196.325 114.201 196.297C112.642 196.244 111.157 196.077 109.747 195.796C108.344 195.49 107.283 195.082 106.565 194.571ZM119.745 182.904C119.727 182.872 119.507 182.929 119.083 183.076C118.667 183.197 118.138 183.38 117.496 183.625C116.885 183.852 116.211 184.114 115.471 184.412C114.764 184.692 114.101 184.958 113.484 185.21C112.891 185.469 112.389 185.701 111.975 185.905C111.57 186.084 111.392 186.18 111.442 186.195C111.819 186.388 112.346 186.489 113.022 186.499C113.73 186.491 114.473 186.412 115.251 186.261C116.053 186.118 116.83 185.926 117.579 185.686C118.336 185.421 118.953 185.128 119.428 184.806C119.928 184.492 120.226 184.173 120.321 183.848C120.442 183.531 120.25 183.216 119.745 182.904ZM140.499 203.655C140.5 203.466 140.558 203.225 140.671 202.933C140.817 202.623 140.963 202.313 141.109 202.003C141.28 201.7 141.44 201.435 141.588 201.207C141.737 200.98 141.815 200.854 141.822 200.829L156.794 181.301C157.102 180.903 157.312 180.788 157.425 180.957C157.545 181.102 157.588 181.372 157.552 181.769C157.549 182.148 157.477 182.575 157.337 183.049C157.204 183.499 157.047 183.846 156.866 184.092C155.506 185.754 154.13 187.425 152.738 189.104C151.379 190.766 150.036 192.461 148.712 194.188C147.42 195.897 146.158 197.642 144.925 199.423C143.701 201.18 142.565 203.003 141.518 204.893C141.281 204.959 141.092 204.957 140.949 204.888C140.832 204.826 140.725 204.727 140.63 204.59C140.567 204.436 140.52 204.273 140.489 204.101C140.484 203.936 140.487 203.788 140.499 203.655ZM162.685 211.144C162.853 210.298 163.155 209.504 163.591 208.764C164.059 208.006 164.582 207.292 165.161 206.621C165.771 205.932 166.391 205.26 167.019 204.604C167.68 203.93 168.271 203.263 168.791 202.602C169.32 201.916 169.753 201.23 170.092 200.542C170.438 199.83 170.606 199.078 170.595 198.288C170.037 197.879 169.298 197.715 168.378 197.796C167.483 197.885 166.486 198.133 165.388 198.542C164.297 198.926 163.132 199.424 161.892 200.035C160.685 200.629 159.483 201.251 158.286 201.903C157.121 202.536 156.005 203.143 154.938 203.724C153.87 204.305 152.918 204.771 152.081 205.121C151.277 205.454 150.628 205.629 150.134 205.646C149.648 205.638 149.396 205.387 149.379 204.893C149.361 204.861 149.591 204.589 150.068 204.078C150.577 203.55 151.193 202.89 151.915 202.098C152.662 201.314 153.469 200.467 154.336 199.555C155.228 198.651 156.06 197.81 156.832 197.034C157.612 196.232 158.285 195.562 158.851 195.023C159.418 194.485 159.758 194.205 159.873 194.184C160.294 194.689 160.442 195.154 160.317 195.578C160.224 195.985 160.036 196.391 159.753 196.797C159.478 197.177 159.174 197.562 158.841 197.953C158.534 198.351 158.376 198.793 158.368 199.279C158.849 199.123 159.509 198.91 160.348 198.642C161.22 198.357 162.146 198.073 163.125 197.792C164.129 197.519 165.154 197.265 166.201 197.031C167.272 196.804 168.248 196.671 169.129 196.633C170.016 196.569 170.776 196.617 171.408 196.776C172.065 196.943 172.484 197.271 172.666 197.759C172.847 198.247 172.739 198.935 172.341 199.822C171.976 200.691 171.224 201.813 170.085 203.188C169.958 203.34 169.646 203.71 169.147 204.295C168.68 204.864 168.158 205.483 167.58 206.154C167.034 206.808 166.511 207.427 166.012 208.013C165.546 208.581 165.249 208.942 165.123 209.094C165.068 209.187 164.976 209.363 164.844 209.623C164.746 209.866 164.623 210.142 164.478 210.452C164.339 210.737 164.176 211.014 163.987 211.284C163.806 211.53 163.619 211.705 163.425 211.811C163.23 211.916 163.059 211.852 162.911 211.618C162.77 211.359 162.695 211.201 162.685 211.144ZM173.062 214.209C173.052 214.151 173.08 214.01 173.146 213.785C173.213 213.561 173.269 213.414 173.316 213.347C173.472 213.094 173.75 212.66 174.149 212.045C174.555 211.405 174.981 210.743 175.427 210.06C175.881 209.352 176.307 208.691 176.706 208.075C177.105 207.46 177.382 207.026 177.538 206.774C177.742 206.453 177.972 206.087 178.23 205.674C178.495 205.237 178.652 204.795 178.703 204.348C178.343 204.187 177.866 204.101 177.272 204.088C176.686 204.051 176.104 204.001 175.525 203.939C174.978 203.859 174.478 203.711 174.026 203.496C173.606 203.263 173.37 202.868 173.318 202.309C173.802 201.774 174.369 201.507 175.02 201.509C175.679 201.486 176.369 201.54 177.09 201.672C177.811 201.804 178.506 201.887 179.175 201.921C179.869 201.963 180.48 201.777 181.01 201.363C181.426 200.78 181.921 200.071 182.494 199.236C183.098 198.382 183.727 197.495 184.379 196.575C185.031 195.654 185.704 194.753 186.399 193.872C187.119 192.998 187.818 192.241 188.496 191.599C188.822 191.506 189.051 191.56 189.181 191.761C189.312 191.963 189.37 192.224 189.357 192.546C189.375 192.85 189.353 193.156 189.289 193.463C189.226 193.77 189.167 193.97 189.112 194.062C188.771 194.668 188.302 195.289 187.706 195.928C187.143 196.549 186.588 197.186 186.042 197.84C185.521 198.5 185.05 199.176 184.629 199.866C184.233 200.564 184.023 201.276 183.998 202.002L192.053 204.38C192.078 204.388 192.114 204.493 192.163 204.698C192.218 204.877 192.269 205.028 192.314 205.15C192.336 205.536 192.129 205.733 191.692 205.74C191.256 205.747 190.693 205.676 190.004 205.526C189.322 205.352 188.54 205.149 187.659 204.915C186.81 204.665 185.967 204.484 185.131 204.373C184.327 204.244 183.573 204.225 182.867 204.315C182.169 204.38 181.63 204.642 181.25 205.1C180.107 206.582 179.01 208.091 177.959 209.627C176.915 211.138 175.889 212.681 174.881 214.257C174.808 214.317 174.672 214.412 174.47 214.543C174.276 214.649 174.073 214.738 173.861 214.811C173.657 214.86 173.471 214.845 173.304 214.769C173.161 214.7 173.081 214.513 173.062 214.209ZM188.721 218.833C187.798 218.099 187.324 217.266 187.3 216.336C187.301 215.413 187.59 214.48 188.167 213.537C188.752 212.57 189.544 211.636 190.542 210.736C191.549 209.811 192.6 209.009 193.697 208.328C194.794 207.647 195.847 207.116 196.856 206.735C197.897 206.337 198.728 206.189 199.35 206.291C200.957 206.548 202.135 207.018 202.884 207.701C203.665 208.366 204.104 209.134 204.2 210.004C204.296 210.874 204.114 211.811 203.654 212.816C203.202 213.796 202.559 214.733 201.724 215.627C200.915 216.528 199.955 217.344 198.843 218.075C197.756 218.813 196.613 219.372 195.415 219.751C194.249 220.113 193.084 220.244 191.919 220.144C190.761 220.019 189.695 219.582 188.721 218.833ZM188.94 216.576C188.904 217.434 189.196 218.009 189.815 218.301C190.443 218.568 191.24 218.626 192.207 218.478C193.207 218.311 194.295 217.981 195.473 217.487C196.658 216.968 197.774 216.361 198.821 215.665C199.893 214.977 200.816 214.245 201.588 213.468C202.393 212.674 202.886 211.924 203.067 211.217C203.274 210.518 203.092 209.894 202.521 209.345C201.982 208.779 200.905 208.379 199.29 208.147C198.845 208.368 198.277 208.635 197.588 208.947C196.905 209.234 196.183 209.564 195.422 209.937C194.685 210.317 193.934 210.746 193.167 211.226C192.409 211.681 191.717 212.183 191.094 212.732C190.47 213.281 189.955 213.875 189.548 214.516C189.167 215.163 188.964 215.85 188.94 216.576ZM55.376 239.572C55.3159 239.5 55.2404 239.342 55.1495 239.098C55.0263 238.871 54.9443 238.643 54.9034 238.414C54.8625 238.185 54.8766 237.999 54.9459 237.856C54.9901 237.707 55.1496 237.672 55.4243 237.753C55.7349 238.633 56.3906 239.125 57.3913 239.23C58.392 239.336 59.545 239.201 60.8505 238.826C62.1485 238.477 63.5144 237.943 64.948 237.226C66.3993 236.541 67.7257 235.82 68.9272 235.061C70.1537 234.31 71.1759 233.607 71.9937 232.953C72.8365 232.306 73.2985 231.845 73.3796 231.57C73.4017 231.495 73.335 231.353 73.1795 231.144C73.0313 230.91 72.8456 230.666 72.6225 230.41C72.4244 230.161 72.2351 229.929 72.0546 229.712C71.874 229.496 71.7699 229.343 71.742 229.253C71.8907 229.026 72.1833 228.909 72.6198 228.902C73.0637 228.87 73.5501 228.878 74.0791 228.925C74.6155 228.948 75.1357 228.979 75.6397 229.02C76.1761 229.042 76.595 229.003 76.8964 228.902C78.788 227.37 80.4458 225.986 81.8697 224.75C83.326 223.497 84.7088 222.262 86.0181 221.047C87.3598 219.814 88.725 218.547 90.1137 217.246C91.5025 215.946 93.0876 214.486 94.8691 212.867C95.356 212.413 95.6736 212.304 95.8218 212.537C95.9699 212.771 95.9944 213.24 95.8952 213.944C95.7959 214.648 95.6039 215.528 95.3191 216.584C95.0417 217.616 94.7135 218.727 94.3345 219.918C93.9555 221.11 93.5441 222.319 93.1004 223.546C92.6817 224.78 92.28 225.91 91.8953 226.937C91.5355 227.971 91.2164 228.868 90.9378 229.627C90.6915 230.369 90.5477 230.856 90.5063 231.088C90.23 232.392 89.9643 233.521 89.709 234.478C89.486 235.417 89.3564 236.315 89.3202 237.174C89.2914 238.007 89.4036 238.868 89.6569 239.757C89.9425 240.629 90.4557 241.65 91.1966 242.819C90.2913 242.85 89.6118 242.622 89.1582 242.136C88.7223 241.681 88.4217 241.09 88.2564 240.362C88.1235 239.617 88.0663 238.799 88.0849 237.908C88.1359 237 88.1758 236.13 88.2047 235.296C88.2658 234.445 88.2564 233.696 88.1763 233.048C88.1285 232.382 87.9306 231.903 87.5827 231.61C87.5577 231.602 87.4828 231.58 87.3579 231.543C87.2654 231.489 87.1442 231.44 86.9943 231.395C86.8694 231.358 86.7409 231.334 86.6086 231.322C86.4837 231.285 86.3963 231.259 86.3464 231.245C86.1068 231.228 85.6528 231.203 84.9841 231.168C84.3405 231.141 83.6307 231.108 82.8548 231.069C82.0788 231.03 81.3279 230.998 80.6019 230.974C79.901 230.957 79.3895 230.942 79.0677 230.928C78.3917 230.919 77.6118 231.123 76.7281 231.541C75.8694 231.966 74.9202 232.514 73.8804 233.184C72.873 233.837 71.8023 234.566 70.6684 235.372C69.5594 236.185 68.4328 236.965 67.2886 237.714C66.1444 238.462 65.0099 239.131 63.885 239.722C62.7601 240.313 61.6831 240.742 60.6541 241.008C59.625 241.275 58.6661 241.304 57.7772 241.096C56.8559 240.905 56.0556 240.397 55.376 239.572ZM80.5489 229.085C80.5915 229.124 80.7127 229.174 80.9125 229.233C81.1373 229.299 81.2908 229.331 81.3731 229.328C81.8448 229.386 82.4325 229.464 83.1364 229.564C83.8402 229.663 84.5477 229.75 85.259 229.824C85.9775 229.873 86.6499 229.895 87.2759 229.89C87.9094 229.86 88.3717 229.766 88.6628 229.607C88.6628 229.607 88.7777 229.356 89.0076 228.854C89.2374 228.351 89.5202 227.715 89.8562 226.946C90.1994 226.151 90.5649 225.281 90.9524 224.337C91.3723 223.375 91.7724 222.434 92.1525 221.514C92.5327 220.595 92.8658 219.743 93.1518 218.958C93.4701 218.156 93.7081 217.534 93.8658 217.092C93.628 216.886 93.17 217.104 92.4918 217.745C91.8209 218.362 90.9279 219.225 89.8127 220.334C88.7225 221.452 87.4036 222.746 85.8559 224.216C84.3406 225.67 82.6159 227.143 80.6817 228.635L80.5489 229.085ZM95.9816 243.58C94.8332 242.78 94.1795 241.867 94.0204 240.842C93.8863 239.825 94.0727 238.781 94.5794 237.708C95.1185 236.619 95.9096 235.549 96.9527 234.499C98.0032 233.425 99.1601 232.449 100.423 231.573C101.687 230.697 102.967 229.948 104.264 229.327C105.561 228.705 106.729 228.29 107.768 228.081C108.832 227.879 109.674 227.924 110.294 228.216C110.914 228.507 111.166 229.125 111.05 230.068C111.007 230.49 110.828 230.912 110.513 231.335C110.223 231.766 109.862 232.161 109.43 232.522C109.03 232.866 108.587 233.169 108.102 233.433C107.649 233.68 107.222 233.839 106.82 233.91C106.444 233.989 106.126 233.963 105.866 233.832C105.631 233.708 105.531 233.448 105.567 233.052C106.014 232.641 106.499 232.241 107.021 231.852C107.551 231.438 108.057 231.058 108.539 230.711C108.47 230.392 108.201 230.245 107.733 230.27C107.264 230.294 106.663 230.443 105.931 230.715C105.199 230.988 104.392 231.374 103.512 231.874C102.663 232.357 101.809 232.906 100.948 233.52C100.088 234.135 99.2788 234.806 98.5211 235.533C97.7958 236.242 97.2028 236.962 96.742 237.695C96.2812 238.428 95.9975 239.159 95.8908 239.888C95.8166 240.599 96.0165 241.255 96.4905 241.857C97.2925 242.175 98.2637 242.381 99.404 242.473C100.552 242.54 101.743 242.553 102.977 242.51C104.212 242.467 105.441 242.396 106.666 242.296C107.922 242.178 109.055 242.065 110.065 241.956C111.1 241.854 111.959 241.795 112.642 241.78C113.358 241.747 113.801 241.81 113.971 241.969C114.372 242.359 114.29 242.728 113.726 243.077C113.186 243.434 112.348 243.743 111.211 244.005C110.075 244.267 108.752 244.473 107.241 244.624C105.762 244.758 104.289 244.825 102.823 244.827C101.363 244.803 100.009 244.702 98.7581 244.522C97.515 244.318 96.5895 244.004 95.9816 243.58ZM116.511 249.643C116.501 249.586 116.529 249.445 116.596 249.22C116.662 248.995 116.719 248.849 116.766 248.781C116.922 248.529 117.199 248.095 117.598 247.48C118.005 246.839 118.431 246.178 118.877 245.495C119.33 244.787 119.756 244.125 120.155 243.51C120.554 242.895 120.832 242.461 120.988 242.208C121.191 241.888 121.421 241.521 121.679 241.109C121.944 240.671 122.102 240.229 122.152 239.782C121.792 239.622 121.316 239.535 120.722 239.523C120.136 239.485 119.553 239.436 118.974 239.373C118.427 239.293 117.928 239.146 117.475 238.931C117.055 238.698 116.819 238.302 116.767 237.744C117.251 237.208 117.819 236.941 118.47 236.943C119.128 236.921 119.818 236.975 120.539 237.107C121.261 237.238 121.956 237.321 122.624 237.356C123.318 237.398 123.93 237.212 124.459 236.798C124.876 236.215 125.37 235.506 125.943 234.67C126.548 233.817 127.176 232.93 127.828 232.009C128.48 231.088 129.154 230.187 129.848 229.306C130.568 228.433 131.267 227.675 131.945 227.034C132.272 226.94 132.5 226.994 132.631 227.196C132.761 227.397 132.82 227.659 132.806 227.98C132.825 228.285 132.802 228.59 132.739 228.897C132.675 229.205 132.616 229.404 132.562 229.497C132.22 230.102 131.752 230.724 131.156 231.362C130.592 231.983 130.037 232.621 129.491 233.274C128.97 233.935 128.499 234.61 128.078 235.301C127.682 235.998 127.472 236.71 127.448 237.436L135.502 239.815C135.527 239.822 135.564 239.928 135.612 240.132C135.668 240.312 135.718 240.462 135.764 240.584C135.785 240.971 135.578 241.167 135.141 241.174C134.705 241.181 134.142 241.11 133.453 240.961C132.771 240.787 131.99 240.583 131.108 240.35C130.259 240.099 129.416 239.918 128.58 239.807C127.777 239.678 127.022 239.659 126.316 239.749C125.618 239.815 125.079 240.076 124.7 240.535C123.556 242.016 122.459 243.525 121.408 245.061C120.364 246.572 119.338 248.116 118.33 249.691C118.258 249.752 118.121 249.847 117.92 249.977C117.725 250.083 117.523 250.172 117.311 250.246C117.107 250.294 116.921 250.28 116.753 250.203C116.611 250.134 116.53 249.947 116.511 249.643ZM129.623 253.515C131.621 250.521 133.316 248.184 134.708 246.504C136.132 244.807 137.234 243.652 138.012 243.04C138.815 242.436 139.276 242.3 139.394 242.634C139.513 242.968 139.282 243.66 138.7 244.71C138.143 245.767 137.197 247.131 135.863 248.8C134.56 250.452 132.864 252.287 130.775 254.303C130.553 254.319 130.313 254.262 130.053 254.131C129.793 254 129.65 253.795 129.623 253.515ZM141.501 237.432C141.488 237.292 141.529 237.06 141.625 236.735C141.721 236.41 141.805 236.218 141.877 236.158C142.51 236.128 142.955 236.232 143.21 236.47C143.466 236.709 143.587 236.989 143.573 237.31C143.567 237.607 143.466 237.903 143.27 238.199C143.099 238.501 142.888 238.71 142.637 238.826C142.393 238.917 142.148 238.872 141.903 238.691C141.69 238.492 141.556 238.072 141.501 237.432ZM141.686 257.078C140.763 256.343 140.289 255.511 140.265 254.581C140.266 253.658 140.555 252.725 141.132 251.782C141.717 250.814 142.509 249.88 143.507 248.981C144.514 248.056 145.565 247.253 146.662 246.572C147.76 245.892 148.812 245.361 149.821 244.98C150.862 244.581 151.693 244.433 152.315 244.535C153.922 244.793 155.1 245.263 155.849 245.945C156.63 246.611 157.069 247.378 157.165 248.248C157.261 249.118 157.079 250.056 156.619 251.061C156.167 252.04 155.524 252.977 154.69 253.871C153.88 254.773 152.92 255.589 151.808 256.319C150.721 257.057 149.578 257.616 148.38 257.995C147.214 258.357 146.049 258.488 144.884 258.388C143.726 258.264 142.66 257.827 141.686 257.078ZM141.905 254.821C141.869 255.679 142.161 256.254 142.78 256.545C143.408 256.812 144.205 256.871 145.172 256.722C146.172 256.556 147.26 256.226 148.438 255.732C149.623 255.213 150.739 254.605 151.786 253.91C152.858 253.222 153.781 252.49 154.553 251.713C155.358 250.919 155.851 250.168 156.032 249.462C156.239 248.762 156.057 248.138 155.486 247.59C154.947 247.023 153.87 246.624 152.255 246.391C151.81 246.613 151.242 246.879 150.553 247.192C149.87 247.479 149.148 247.809 148.387 248.181C147.65 248.561 146.899 248.991 146.132 249.471C145.374 249.925 144.682 250.427 144.059 250.976C143.435 251.525 142.92 252.12 142.513 252.76C142.132 253.408 141.929 254.095 141.905 254.821ZM169.447 265.276C169.615 264.429 169.917 263.636 170.353 262.896C170.821 262.138 171.344 261.424 171.923 260.753C172.533 260.064 173.153 259.392 173.781 258.735C174.442 258.062 175.032 257.394 175.553 256.734C176.082 256.048 176.515 255.361 176.854 254.674C177.2 253.962 177.368 253.21 177.357 252.419C176.799 252.01 176.06 251.846 175.14 251.928C174.245 252.016 173.248 252.265 172.15 252.674C171.059 253.058 169.894 253.555 168.654 254.167C167.447 254.761 166.245 255.383 165.048 256.034C163.883 256.668 162.767 257.275 161.7 257.856C160.632 258.437 159.68 258.902 158.843 259.252C158.039 259.585 157.39 259.76 156.896 259.777C156.41 259.769 156.158 259.518 156.141 259.025C156.123 258.992 156.353 258.721 156.83 258.21C157.339 257.681 157.954 257.021 158.677 256.23C159.424 255.446 160.231 254.598 161.098 253.687C161.99 252.782 162.822 251.942 163.594 251.165C164.374 250.364 165.047 249.694 165.613 249.155C166.18 248.616 166.52 248.337 166.635 248.316C167.056 248.821 167.204 249.285 167.079 249.71C166.986 250.117 166.798 250.523 166.515 250.928C166.24 251.309 165.936 251.694 165.603 252.085C165.296 252.482 165.138 252.925 165.13 253.411C165.611 253.254 166.271 253.042 167.11 252.774C167.982 252.488 168.908 252.205 169.887 251.924C170.891 251.65 171.916 251.396 172.963 251.162C174.034 250.936 175.01 250.803 175.891 250.764C176.778 250.701 177.538 250.749 178.17 250.908C178.827 251.075 179.246 251.402 179.428 251.89C179.609 252.378 179.501 253.066 179.103 253.953C178.738 254.823 177.986 255.945 176.847 257.319C176.72 257.472 176.408 257.841 175.909 258.427C175.442 258.995 174.92 259.615 174.342 260.286C173.796 260.939 173.273 261.559 172.774 262.145C172.308 262.713 172.011 263.073 171.885 263.226C171.83 263.319 171.737 263.495 171.606 263.755C171.508 263.997 171.385 264.273 171.24 264.583C171.101 264.868 170.938 265.146 170.749 265.416C170.568 265.661 170.381 265.837 170.187 265.942C169.992 266.048 169.821 265.984 169.673 265.75C169.532 265.491 169.457 265.333 169.447 265.276Z" fill="#FDD017"/>
<path d="M44.0017 176.095C43.9875 175.684 44.1083 175.366 44.3643 175.143C44.6276 174.895 44.9636 174.723 45.3723 174.626C47.1494 174.309 48.8522 174.106 50.4806 174.017C52.1164 173.903 53.7236 173.793 55.302 173.689C56.9129 173.568 58.526 173.392 60.1413 173.163C61.7641 172.909 63.4671 172.476 65.2504 171.862C69.0827 170.93 72.1164 169.898 74.3515 168.766C76.5866 167.634 78.1868 166.491 79.1521 165.337C80.1248 164.158 80.5464 163.006 80.4168 161.881C80.2947 160.732 79.8013 159.69 78.9367 158.756C78.0721 157.822 76.9076 157.03 75.4431 156.38C74.011 155.713 72.4463 155.265 70.7492 155.035C69.052 154.805 67.3186 154.836 65.5488 155.128C63.7865 155.395 62.1516 156.012 60.6441 156.979C60.6044 157.022 60.5411 157.098 60.4543 157.208C60.3675 157.318 60.277 157.441 60.1828 157.576C60.1209 157.693 60.0429 157.82 59.9487 157.955C59.8868 158.072 59.8522 158.144 59.8448 158.169C58.5645 159.746 57.3954 161.084 56.3376 162.183C55.3121 163.265 54.3226 164.317 53.3691 165.339C52.4481 166.343 51.5261 167.442 50.6034 168.636C49.688 169.805 48.7127 171.268 47.6777 173.026C47.1839 173.043 46.8629 172.935 46.7147 172.701C46.5915 172.475 46.569 172.183 46.6473 171.826C46.733 171.444 46.8958 171.03 47.1359 170.585C47.4009 170.148 47.6747 169.726 47.9573 169.321C48.2399 168.916 48.5115 168.548 48.7719 168.217C49.0324 167.887 49.2098 167.654 49.304 167.519C49.6734 167.004 50.2032 166.359 50.8933 165.585C51.5908 164.787 52.3243 163.958 53.0939 163.099C53.8634 162.24 54.5969 161.411 55.2944 160.613C55.9919 159.814 56.5378 159.161 56.9322 158.653C56.9214 157.862 57.0595 157.21 57.3466 156.698C57.6661 156.168 58.0671 155.729 58.5495 155.383C59.0393 155.012 59.5892 154.713 60.1994 154.485C60.8169 154.233 61.4307 153.994 62.0409 153.767C63.7742 153.138 65.5499 152.78 67.368 152.692C69.186 152.605 70.9515 152.787 72.6646 153.238C74.41 153.672 76.0581 154.39 77.6089 155.391C79.1598 156.392 80.5185 157.676 81.6851 159.242C82.5889 160.595 82.9674 161.888 82.8205 163.121C82.6986 164.361 82.1786 165.524 81.2603 166.611C80.3495 167.672 79.119 168.667 77.569 169.594C76.044 170.528 74.3266 171.379 72.4167 172.145C70.5068 172.912 68.4706 173.6 66.3082 174.211C64.178 174.804 62.0575 175.318 59.9467 175.753C57.8682 176.171 55.8567 176.501 53.9121 176.741C51.9999 176.964 50.3067 177.088 48.8327 177.115C47.3836 177.148 46.2197 177.09 45.3411 176.939C44.4698 176.763 44.0233 176.482 44.0017 176.095ZM74.3842 185.068C76.3818 182.073 78.0766 179.736 79.4688 178.056C80.8932 176.359 81.9945 175.205 82.7726 174.593C83.5757 173.988 84.0366 173.853 84.1552 174.186C84.2739 174.52 84.0424 175.212 83.4607 176.262C82.9041 177.32 81.9583 178.683 80.6236 180.353C79.3211 182.004 77.6254 183.839 75.5363 185.856C75.3144 185.872 75.0734 185.814 74.8134 185.683C74.5534 185.552 74.4104 185.347 74.3842 185.068ZM86.2618 168.984C86.2487 168.844 86.2901 168.612 86.386 168.287C86.4819 167.963 86.5659 167.77 86.6379 167.71C87.2714 167.68 87.7158 167.784 87.9713 168.023C88.2267 168.261 88.3476 168.541 88.3341 168.863C88.3279 169.16 88.2269 169.456 88.0311 169.751C87.8603 170.053 87.6492 170.263 87.3977 170.378C87.1537 170.469 86.909 170.424 86.6638 170.243C86.4509 170.044 86.3169 169.625 86.2618 168.984ZM85.7559 187.937C85.3199 187.482 85.0854 186.897 85.0524 186.182C85.0194 185.466 85.1121 184.692 85.3305 183.861C85.549 183.029 85.8534 182.182 86.2438 181.32C86.6342 180.458 87.0422 179.628 87.4678 178.83C87.8934 178.033 88.2931 177.323 88.6671 176.7C89.0411 176.077 89.3208 175.59 89.5064 175.237C89.6534 175.199 89.7783 175.236 89.881 175.348C90.0088 175.467 90.1129 175.62 90.1936 175.807C90.3065 175.976 90.382 176.134 90.4201 176.281C90.4905 176.41 90.5257 176.475 90.5257 176.475C90.3425 177.371 90.088 178.233 89.7623 179.06C89.469 179.869 89.1507 180.671 88.8074 181.466C88.489 182.268 88.167 183.083 87.8413 183.91C87.5406 184.744 87.2862 185.606 87.078 186.495C87.1671 186.928 87.5755 187.062 88.3032 186.897C89.0382 186.707 89.9733 186.345 91.1084 185.811C92.2509 185.253 93.5089 184.579 94.8824 183.79C96.2882 182.983 97.6654 182.181 99.0139 181.385C100.387 180.596 101.676 179.863 102.881 179.187C104.092 178.486 105.084 177.977 105.856 177.662C106.66 177.33 107.173 177.25 107.393 177.424C107.621 177.572 107.428 178.086 106.816 178.964C106.062 179.311 105.117 179.888 103.983 180.694C102.85 181.499 101.615 182.37 100.279 183.306C98.9513 184.217 97.5858 185.117 96.1828 186.006C94.7798 186.895 93.4122 187.618 92.0801 188.175C90.7804 188.715 89.5794 189.012 88.4771 189.067C87.3822 189.096 86.4752 188.72 85.7559 187.937ZM106.565 194.571C105.889 194.1 105.426 193.556 105.174 192.938C104.954 192.303 104.874 191.655 104.933 190.994C104.993 190.332 105.16 189.676 105.434 189.023C105.74 188.354 106.085 187.736 106.47 187.171C107.455 186.593 108.561 185.928 109.787 185.177C111.046 184.408 112.347 183.679 113.691 182.99C115.035 182.301 116.395 181.698 117.769 181.18C119.176 180.646 120.533 180.327 121.84 180.224C122.291 180.167 122.6 180.272 122.765 180.538C122.963 180.786 123.053 181.125 123.035 181.554C123.017 181.984 122.918 182.457 122.738 182.974C122.584 183.498 122.395 183.999 122.172 184.477C121.95 184.954 121.717 185.374 121.474 185.737C121.232 186.099 121.026 186.337 120.856 186.45C120.453 186.711 119.745 186.95 118.731 187.167C117.741 187.39 116.637 187.635 115.419 187.899C114.207 188.139 112.989 188.404 111.763 188.693C110.537 188.983 109.498 189.328 108.647 189.728C107.803 190.103 107.234 190.56 106.939 191.097C106.645 191.635 106.839 192.263 107.523 192.981C108.343 193.331 109.378 193.596 110.629 193.775C111.911 193.937 113.221 194.052 114.559 194.121C115.928 194.173 117.248 194.21 118.518 194.232C119.795 194.229 120.838 194.238 121.646 194.259L121.974 194.804C121.21 195.366 120.116 195.762 118.69 195.993C117.264 196.224 115.768 196.325 114.201 196.297C112.642 196.244 111.157 196.077 109.747 195.796C108.344 195.49 107.283 195.082 106.565 194.571ZM119.745 182.904C119.727 182.872 119.507 182.929 119.083 183.076C118.667 183.197 118.138 183.38 117.496 183.625C116.885 183.852 116.211 184.114 115.471 184.412C114.764 184.692 114.101 184.958 113.484 185.21C112.891 185.469 112.389 185.701 111.975 185.905C111.57 186.084 111.392 186.18 111.442 186.195C111.819 186.388 112.346 186.489 113.022 186.499C113.73 186.491 114.473 186.412 115.251 186.261C116.053 186.118 116.83 185.926 117.579 185.686C118.336 185.421 118.953 185.128 119.428 184.806C119.928 184.492 120.226 184.173 120.321 183.848C120.442 183.531 120.25 183.216 119.745 182.904ZM140.499 203.655C140.5 203.466 140.558 203.225 140.671 202.933C140.817 202.623 140.963 202.313 141.109 202.003C141.28 201.7 141.44 201.435 141.588 201.207C141.737 200.98 141.815 200.854 141.822 200.829L156.794 181.301C157.102 180.903 157.312 180.788 157.425 180.957C157.545 181.102 157.588 181.372 157.552 181.769C157.549 182.148 157.477 182.575 157.337 183.049C157.204 183.499 157.047 183.846 156.866 184.092C155.506 185.754 154.13 187.425 152.738 189.104C151.379 190.766 150.036 192.461 148.712 194.188C147.42 195.897 146.158 197.642 144.925 199.423C143.701 201.18 142.565 203.003 141.518 204.893C141.281 204.959 141.092 204.957 140.949 204.888C140.832 204.826 140.725 204.727 140.63 204.59C140.567 204.436 140.52 204.273 140.489 204.101C140.484 203.936 140.487 203.788 140.499 203.655ZM162.685 211.144C162.853 210.298 163.155 209.504 163.591 208.764C164.059 208.006 164.582 207.292 165.161 206.621C165.771 205.932 166.391 205.26 167.019 204.604C167.68 203.93 168.271 203.263 168.791 202.602C169.32 201.916 169.753 201.23 170.092 200.542C170.438 199.83 170.606 199.078 170.595 198.288C170.037 197.879 169.298 197.715 168.378 197.796C167.483 197.885 166.486 198.133 165.388 198.542C164.297 198.926 163.132 199.424 161.892 200.035C160.685 200.629 159.483 201.251 158.286 201.903C157.121 202.536 156.005 203.143 154.938 203.724C153.87 204.305 152.918 204.771 152.081 205.121C151.277 205.454 150.628 205.629 150.134 205.646C149.648 205.638 149.396 205.387 149.379 204.893C149.361 204.861 149.591 204.589 150.068 204.078C150.577 203.55 151.193 202.89 151.915 202.098C152.662 201.314 153.469 200.467 154.336 199.555C155.228 198.651 156.06 197.81 156.832 197.034C157.612 196.232 158.285 195.562 158.851 195.023C159.418 194.485 159.758 194.205 159.873 194.184C160.294 194.689 160.442 195.154 160.317 195.578C160.224 195.985 160.036 196.391 159.753 196.797C159.478 197.177 159.174 197.562 158.841 197.953C158.534 198.351 158.376 198.793 158.368 199.279C158.849 199.123 159.509 198.91 160.348 198.642C161.22 198.357 162.146 198.073 163.125 197.792C164.129 197.519 165.154 197.265 166.201 197.031C167.272 196.804 168.248 196.671 169.129 196.633C170.016 196.569 170.776 196.617 171.408 196.776C172.065 196.943 172.484 197.271 172.666 197.759C172.847 198.247 172.739 198.935 172.341 199.822C171.976 200.691 171.224 201.813 170.085 203.188C169.958 203.34 169.646 203.71 169.147 204.295C168.68 204.864 168.158 205.483 167.58 206.154C167.034 206.808 166.511 207.427 166.012 208.013C165.546 208.581 165.249 208.942 165.123 209.094C165.068 209.187 164.976 209.363 164.844 209.623C164.746 209.866 164.623 210.142 164.478 210.452C164.339 210.737 164.176 211.014 163.987 211.284C163.806 211.53 163.619 211.705 163.425 211.811C163.23 211.916 163.059 211.852 162.911 211.618C162.77 211.359 162.695 211.201 162.685 211.144ZM173.062 214.209C173.052 214.151 173.08 214.01 173.146 213.785C173.213 213.561 173.269 213.414 173.316 213.347C173.472 213.094 173.75 212.66 174.149 212.045C174.555 211.405 174.981 210.743 175.427 210.06C175.881 209.352 176.307 208.691 176.706 208.075C177.105 207.46 177.382 207.026 177.538 206.774C177.742 206.453 177.972 206.087 178.23 205.674C178.495 205.237 178.652 204.795 178.703 204.348C178.343 204.187 177.866 204.101 177.272 204.088C176.686 204.051 176.104 204.001 175.525 203.939C174.978 203.859 174.478 203.711 174.026 203.496C173.606 203.263 173.37 202.868 173.318 202.309C173.802 201.774 174.369 201.507 175.02 201.509C175.679 201.486 176.369 201.54 177.09 201.672C177.811 201.804 178.506 201.887 179.175 201.921C179.869 201.963 180.48 201.777 181.01 201.363C181.426 200.78 181.921 200.071 182.494 199.236C183.098 198.382 183.727 197.495 184.379 196.575C185.031 195.654 185.704 194.753 186.399 193.872C187.119 192.998 187.818 192.241 188.496 191.599C188.822 191.506 189.051 191.56 189.181 191.761C189.312 191.963 189.37 192.224 189.357 192.546C189.375 192.85 189.353 193.156 189.289 193.463C189.226 193.77 189.167 193.97 189.112 194.062C188.771 194.668 188.302 195.289 187.706 195.928C187.143 196.549 186.588 197.186 186.042 197.84C185.521 198.5 185.05 199.176 184.629 199.866C184.233 200.564 184.023 201.276 183.998 202.002L192.053 204.38C192.078 204.388 192.114 204.493 192.163 204.698C192.218 204.877 192.269 205.028 192.314 205.15C192.336 205.536 192.129 205.733 191.692 205.74C191.256 205.747 190.693 205.676 190.004 205.526C189.322 205.352 188.54 205.149 187.659 204.915C186.81 204.665 185.967 204.484 185.131 204.373C184.327 204.244 183.573 204.225 182.867 204.315C182.169 204.38 181.63 204.642 181.25 205.1C180.107 206.582 179.01 208.091 177.959 209.627C176.915 211.138 175.889 212.681 174.881 214.257C174.808 214.317 174.672 214.412 174.47 214.543C174.276 214.649 174.073 214.738 173.861 214.811C173.657 214.86 173.471 214.845 173.304 214.769C173.161 214.7 173.081 214.513 173.062 214.209ZM188.721 218.833C187.798 218.099 187.324 217.266 187.3 216.336C187.301 215.413 187.59 214.48 188.167 213.537C188.752 212.57 189.544 211.636 190.542 210.736C191.549 209.811 192.6 209.009 193.697 208.328C194.794 207.647 195.847 207.116 196.856 206.735C197.897 206.337 198.728 206.189 199.35 206.291C200.957 206.548 202.135 207.018 202.884 207.701C203.665 208.366 204.104 209.134 204.2 210.004C204.296 210.874 204.114 211.811 203.654 212.816C203.202 213.796 202.559 214.733 201.724 215.627C200.915 216.528 199.955 217.344 198.843 218.075C197.756 218.813 196.613 219.372 195.415 219.751C194.249 220.113 193.084 220.244 191.919 220.144C190.761 220.019 189.695 219.582 188.721 218.833ZM188.94 216.576C188.904 217.434 189.196 218.009 189.815 218.301C190.443 218.568 191.24 218.626 192.207 218.478C193.207 218.311 194.295 217.981 195.473 217.487C196.658 216.968 197.774 216.361 198.821 215.665C199.893 214.977 200.816 214.245 201.588 213.468C202.393 212.674 202.886 211.924 203.067 211.217C203.274 210.518 203.092 209.894 202.521 209.345C201.982 208.779 200.905 208.379 199.29 208.147C198.845 208.368 198.277 208.635 197.588 208.947C196.905 209.234 196.183 209.564 195.422 209.937C194.685 210.317 193.934 210.746 193.167 211.226C192.409 211.681 191.717 212.183 191.094 212.732C190.47 213.281 189.955 213.875 189.548 214.516C189.167 215.163 188.964 215.85 188.94 216.576ZM55.376 239.572C55.3159 239.5 55.2404 239.342 55.1495 239.098C55.0263 238.871 54.9443 238.643 54.9034 238.414C54.8625 238.185 54.8766 237.999 54.9459 237.856C54.9901 237.707 55.1496 237.672 55.4243 237.753C55.7349 238.633 56.3906 239.125 57.3913 239.23C58.392 239.336 59.545 239.201 60.8505 238.826C62.1485 238.477 63.5144 237.943 64.948 237.226C66.3993 236.541 67.7257 235.82 68.9272 235.061C70.1537 234.31 71.1759 233.607 71.9937 232.953C72.8365 232.306 73.2985 231.845 73.3796 231.57C73.4017 231.495 73.335 231.353 73.1795 231.144C73.0313 230.91 72.8456 230.666 72.6225 230.41C72.4244 230.161 72.2351 229.929 72.0546 229.712C71.874 229.496 71.7699 229.343 71.742 229.253C71.8907 229.026 72.1833 228.909 72.6198 228.902C73.0637 228.87 73.5501 228.878 74.0791 228.925C74.6155 228.948 75.1357 228.979 75.6397 229.02C76.1761 229.042 76.595 229.003 76.8964 228.902C78.788 227.37 80.4458 225.986 81.8697 224.75C83.326 223.497 84.7088 222.262 86.0181 221.047C87.3598 219.814 88.725 218.547 90.1137 217.246C91.5025 215.946 93.0876 214.486 94.8691 212.867C95.356 212.413 95.6736 212.304 95.8218 212.537C95.9699 212.771 95.9944 213.24 95.8952 213.944C95.7959 214.648 95.6039 215.528 95.3191 216.584C95.0417 217.616 94.7135 218.727 94.3345 219.918C93.9555 221.11 93.5441 222.319 93.1004 223.546C92.6817 224.78 92.28 225.91 91.8953 226.937C91.5355 227.971 91.2164 228.868 90.9378 229.627C90.6915 230.369 90.5477 230.856 90.5063 231.088C90.23 232.392 89.9643 233.521 89.709 234.478C89.486 235.417 89.3564 236.315 89.3202 237.174C89.2914 238.007 89.4036 238.868 89.6569 239.757C89.9425 240.629 90.4557 241.65 91.1966 242.819C90.2913 242.85 89.6118 242.622 89.1582 242.136C88.7223 241.681 88.4217 241.09 88.2564 240.362C88.1235 239.617 88.0663 238.799 88.0849 237.908C88.1359 237 88.1758 236.13 88.2047 235.296C88.2658 234.445 88.2564 233.696 88.1763 233.048C88.1285 232.382 87.9306 231.903 87.5827 231.61C87.5577 231.602 87.4828 231.58 87.3579 231.543C87.2654 231.489 87.1442 231.44 86.9943 231.395C86.8694 231.358 86.7409 231.334 86.6086 231.322C86.4837 231.285 86.3963 231.259 86.3464 231.245C86.1068 231.228 85.6528 231.203 84.9841 231.168C84.3405 231.141 83.6307 231.108 82.8548 231.069C82.0788 231.03 81.3279 230.998 80.6019 230.974C79.901 230.957 79.3895 230.942 79.0677 230.928C78.3917 230.919 77.6118 231.123 76.7281 231.541C75.8694 231.966 74.9202 232.514 73.8804 233.184C72.873 233.837 71.8023 234.566 70.6684 235.372C69.5594 236.185 68.4328 236.965 67.2886 237.714C66.1444 238.462 65.0099 239.131 63.885 239.722C62.7601 240.313 61.6831 240.742 60.6541 241.008C59.625 241.275 58.6661 241.304 57.7772 241.096C56.8559 240.905 56.0556 240.397 55.376 239.572ZM80.5489 229.085C80.5915 229.124 80.7127 229.174 80.9125 229.233C81.1373 229.299 81.2908 229.331 81.3731 229.328C81.8448 229.386 82.4325 229.464 83.1364 229.564C83.8402 229.663 84.5477 229.75 85.259 229.824C85.9775 229.873 86.6499 229.895 87.2759 229.89C87.9094 229.86 88.3717 229.766 88.6628 229.607C88.6628 229.607 88.7777 229.356 89.0076 228.854C89.2374 228.351 89.5202 227.715 89.8562 226.946C90.1994 226.151 90.5649 225.281 90.9524 224.337C91.3723 223.375 91.7724 222.434 92.1525 221.514C92.5327 220.595 92.8658 219.743 93.1518 218.958C93.4701 218.156 93.7081 217.534 93.8658 217.092C93.628 216.886 93.17 217.104 92.4918 217.745C91.8209 218.362 90.9279 219.225 89.8127 220.334C88.7225 221.452 87.4036 222.746 85.8559 224.216C84.3406 225.67 82.6159 227.143 80.6817 228.635L80.5489 229.085ZM95.9816 243.58C94.8332 242.78 94.1795 241.867 94.0204 240.842C93.8863 239.825 94.0727 238.781 94.5794 237.708C95.1185 236.619 95.9096 235.549 96.9527 234.499C98.0032 233.425 99.1601 232.449 100.423 231.573C101.687 230.697 102.967 229.948 104.264 229.327C105.561 228.705 106.729 228.29 107.768 228.081C108.832 227.879 109.674 227.924 110.294 228.216C110.914 228.507 111.166 229.125 111.05 230.068C111.007 230.49 110.828 230.912 110.513 231.335C110.223 231.766 109.862 232.161 109.43 232.522C109.03 232.866 108.587 233.169 108.102 233.433C107.649 233.68 107.222 233.839 106.82 233.91C106.444 233.989 106.126 233.963 105.866 233.832C105.631 233.708 105.531 233.448 105.567 233.052C106.014 232.641 106.499 232.241 107.021 231.852C107.551 231.438 108.057 231.058 108.539 230.711C108.47 230.392 108.201 230.245 107.733 230.27C107.264 230.294 106.663 230.443 105.931 230.715C105.199 230.988 104.392 231.374 103.512 231.874C102.663 232.357 101.809 232.906 100.948 233.52C100.088 234.135 99.2788 234.806 98.5211 235.533C97.7958 236.242 97.2028 236.962 96.742 237.695C96.2812 238.428 95.9975 239.159 95.8908 239.888C95.8166 240.599 96.0165 241.255 96.4905 241.857C97.2925 242.175 98.2637 242.381 99.404 242.473C100.552 242.54 101.743 242.553 102.977 242.51C104.212 242.467 105.441 242.396 106.666 242.296C107.922 242.178 109.055 242.065 110.065 241.956C111.1 241.854 111.959 241.795 112.642 241.78C113.358 241.747 113.801 241.81 113.971 241.969C114.372 242.359 114.29 242.728 113.726 243.077C113.186 243.434 112.348 243.743 111.211 244.005C110.075 244.267 108.752 244.473 107.241 244.624C105.762 244.758 104.289 244.825 102.823 244.827C101.363 244.803 100.009 244.702 98.7581 244.522C97.515 244.318 96.5895 244.004 95.9816 243.58ZM116.511 249.643C116.501 249.586 116.529 249.445 116.596 249.22C116.662 248.995 116.719 248.849 116.766 248.781C116.922 248.529 117.199 248.095 117.598 247.48C118.005 246.839 118.431 246.178 118.877 245.495C119.33 244.787 119.756 244.125 120.155 243.51C120.554 242.895 120.832 242.461 120.988 242.208C121.191 241.888 121.421 241.521 121.679 241.109C121.944 240.671 122.102 240.229 122.152 239.782C121.792 239.622 121.316 239.535 120.722 239.523C120.136 239.485 119.553 239.436 118.974 239.373C118.427 239.293 117.928 239.146 117.475 238.931C117.055 238.698 116.819 238.302 116.767 237.744C117.251 237.208 117.819 236.941 118.47 236.943C119.128 236.921 119.818 236.975 120.539 237.107C121.261 237.238 121.956 237.321 122.624 237.356C123.318 237.398 123.93 237.212 124.459 236.798C124.876 236.215 125.37 235.506 125.943 234.67C126.548 233.817 127.176 232.93 127.828 232.009C128.48 231.088 129.154 230.187 129.848 229.306C130.568 228.433 131.267 227.675 131.945 227.034C132.272 226.94 132.5 226.994 132.631 227.196C132.761 227.397 132.82 227.659 132.806 227.98C132.825 228.285 132.802 228.59 132.739 228.897C132.675 229.205 132.616 229.404 132.562 229.497C132.22 230.102 131.752 230.724 131.156 231.362C130.592 231.983 130.037 232.621 129.491 233.274C128.97 233.935 128.499 234.61 128.078 235.301C127.682 235.998 127.472 236.71 127.448 237.436L135.502 239.815C135.527 239.822 135.564 239.928 135.612 240.132C135.668 240.312 135.718 240.462 135.764 240.584C135.785 240.971 135.578 241.167 135.141 241.174C134.705 241.181 134.142 241.11 133.453 240.961C132.771 240.787 131.99 240.583 131.108 240.35C130.259 240.099 129.416 239.918 128.58 239.807C127.777 239.678 127.022 239.659 126.316 239.749C125.618 239.815 125.079 240.076 124.7 240.535C123.556 242.016 122.459 243.525 121.408 245.061C120.364 246.572 119.338 248.116 118.33 249.691C118.258 249.752 118.121 249.847 117.92 249.977C117.725 250.083 117.523 250.172 117.311 250.246C117.107 250.294 116.921 250.28 116.753 250.203C116.611 250.134 116.53 249.947 116.511 249.643ZM129.623 253.515C131.621 250.521 133.316 248.184 134.708 246.504C136.132 244.807 137.234 243.652 138.012 243.04C138.815 242.436 139.276 242.3 139.394 242.634C139.513 242.968 139.282 243.66 138.7 244.71C138.143 245.767 137.197 247.131 135.863 248.8C134.56 250.452 132.864 252.287 130.775 254.303C130.553 254.319 130.313 254.262 130.053 254.131C129.793 254 129.65 253.795 129.623 253.515ZM141.501 237.432C141.488 237.292 141.529 237.06 141.625 236.735C141.721 236.41 141.805 236.218 141.877 236.158C142.51 236.128 142.955 236.232 143.21 236.47C143.466 236.709 143.587 236.989 143.573 237.31C143.567 237.607 143.466 237.903 143.27 238.199C143.099 238.501 142.888 238.71 142.637 238.826C142.393 238.917 142.148 238.872 141.903 238.691C141.69 238.492 141.556 238.072 141.501 237.432ZM141.686 257.078C140.763 256.343 140.289 255.511 140.265 254.581C140.266 253.658 140.555 252.725 141.132 251.782C141.717 250.814 142.509 249.88 143.507 248.981C144.514 248.056 145.565 247.253 146.662 246.572C147.76 245.892 148.812 245.361 149.821 244.98C150.862 244.581 151.693 244.433 152.315 244.535C153.922 244.793 155.1 245.263 155.849 245.945C156.63 246.611 157.069 247.378 157.165 248.248C157.261 249.118 157.079 250.056 156.619 251.061C156.167 252.04 155.524 252.977 154.69 253.871C153.88 254.773 152.92 255.589 151.808 256.319C150.721 257.057 149.578 257.616 148.38 257.995C147.214 258.357 146.049 258.488 144.884 258.388C143.726 258.264 142.66 257.827 141.686 257.078ZM141.905 254.821C141.869 255.679 142.161 256.254 142.78 256.545C143.408 256.812 144.205 256.871 145.172 256.722C146.172 256.556 147.26 256.226 148.438 255.732C149.623 255.213 150.739 254.605 151.786 253.91C152.858 253.222 153.781 252.49 154.553 251.713C155.358 250.919 155.851 250.168 156.032 249.462C156.239 248.762 156.057 248.138 155.486 247.59C154.947 247.023 153.87 246.624 152.255 246.391C151.81 246.613 151.242 246.879 150.553 247.192C149.87 247.479 149.148 247.809 148.387 248.181C147.65 248.561 146.899 248.991 146.132 249.471C145.374 249.925 144.682 250.427 144.059 250.976C143.435 251.525 142.92 252.12 142.513 252.76C142.132 253.408 141.929 254.095 141.905 254.821ZM169.447 265.276C169.615 264.429 169.917 263.636 170.353 262.896C170.821 262.138 171.344 261.424 171.923 260.753C172.533 260.064 173.153 259.392 173.781 258.735C174.442 258.062 175.032 257.394 175.553 256.734C176.082 256.048 176.515 255.361 176.854 254.674C177.2 253.962 177.368 253.21 177.357 252.419C176.799 252.01 176.06 251.846 175.14 251.928C174.245 252.016 173.248 252.265 172.15 252.674C171.059 253.058 169.894 253.555 168.654 254.167C167.447 254.761 166.245 255.383 165.048 256.034C163.883 256.668 162.767 257.275 161.7 257.856C160.632 258.437 159.68 258.902 158.843 259.252C158.039 259.585 157.39 259.76 156.896 259.777C156.41 259.769 156.158 259.518 156.141 259.025C156.123 258.992 156.353 258.721 156.83 258.21C157.339 257.681 157.954 257.021 158.677 256.23C159.424 255.446 160.231 254.598 161.098 253.687C161.99 252.782 162.822 251.942 163.594 251.165C164.374 250.364 165.047 249.694 165.613 249.155C166.18 248.616 166.52 248.337 166.635 248.316C167.056 248.821 167.204 249.285 167.079 249.71C166.986 250.117 166.798 250.523 166.515 250.928C166.24 251.309 165.936 251.694 165.603 252.085C165.296 252.482 165.138 252.925 165.13 253.411C165.611 253.254 166.271 253.042 167.11 252.774C167.982 252.488 168.908 252.205 169.887 251.924C170.891 251.65 171.916 251.396 172.963 251.162C174.034 250.936 175.01 250.803 175.891 250.764C176.778 250.701 177.538 250.749 178.17 250.908C178.827 251.075 179.246 251.402 179.428 251.89C179.609 252.378 179.501 253.066 179.103 253.953C178.738 254.823 177.986 255.945 176.847 257.319C176.72 257.472 176.408 257.841 175.909 258.427C175.442 258.995 174.92 259.615 174.342 260.286C173.796 260.939 173.273 261.559 172.774 262.145C172.308 262.713 172.011 263.073 171.885 263.226C171.83 263.319 171.737 263.495 171.606 263.755C171.508 263.997 171.385 264.273 171.24 264.583C171.101 264.868 170.938 265.146 170.749 265.416C170.568 265.661 170.381 265.837 170.187 265.942C169.992 266.048 169.821 265.984 169.673 265.75C169.532 265.491 169.457 265.333 169.447 265.276Z" fill="#FDD017"/>
</g>
<path d="M44.0017 176.095C43.9875 175.684 44.1083 175.366 44.3643 175.143C44.6276 174.895 44.9636 174.723 45.3723 174.626C47.1494 174.309 48.8522 174.106 50.4806 174.017C52.1164 173.903 53.7236 173.793 55.302 173.689C56.9129 173.568 58.526 173.392 60.1413 173.163C61.7641 172.909 63.4671 172.476 65.2504 171.862C69.0827 170.93 72.1164 169.898 74.3515 168.766C76.5866 167.634 78.1868 166.491 79.1521 165.337C80.1248 164.158 80.5464 163.006 80.4168 161.881C80.2947 160.732 79.8013 159.69 78.9367 158.756C78.0721 157.822 76.9076 157.03 75.4431 156.38C74.011 155.713 72.4463 155.265 70.7492 155.035C69.052 154.805 67.3186 154.836 65.5488 155.128C63.7865 155.395 62.1516 156.012 60.6441 156.979C60.6044 157.022 60.5411 157.098 60.4543 157.208C60.3675 157.318 60.277 157.441 60.1828 157.576C60.1209 157.693 60.0429 157.82 59.9487 157.955C59.8868 158.072 59.8522 158.144 59.8448 158.169C58.5645 159.746 57.3954 161.084 56.3376 162.183C55.3121 163.265 54.3226 164.317 53.3691 165.339C52.4481 166.343 51.5261 167.442 50.6034 168.636C49.688 169.805 48.7127 171.268 47.6777 173.026C47.1839 173.043 46.8629 172.935 46.7147 172.701C46.5915 172.475 46.569 172.183 46.6473 171.826C46.733 171.444 46.8958 171.03 47.1359 170.585C47.4009 170.148 47.6747 169.726 47.9573 169.321C48.2399 168.916 48.5115 168.548 48.7719 168.217C49.0324 167.887 49.2098 167.654 49.304 167.519C49.6734 167.004 50.2032 166.359 50.8933 165.585C51.5908 164.787 52.3243 163.958 53.0939 163.099C53.8634 162.24 54.5969 161.411 55.2944 160.613C55.9919 159.814 56.5378 159.161 56.9322 158.653C56.9214 157.862 57.0595 157.21 57.3466 156.698C57.6661 156.168 58.0671 155.729 58.5495 155.383C59.0393 155.012 59.5892 154.713 60.1994 154.485C60.8169 154.233 61.4307 153.994 62.0409 153.767C63.7742 153.138 65.5499 152.78 67.368 152.692C69.186 152.605 70.9515 152.787 72.6646 153.238C74.41 153.672 76.0581 154.39 77.6089 155.391C79.1598 156.392 80.5185 157.676 81.6851 159.242C82.5889 160.595 82.9674 161.888 82.8205 163.121C82.6986 164.361 82.1786 165.524 81.2603 166.611C80.3495 167.672 79.119 168.667 77.569 169.594C76.044 170.528 74.3266 171.379 72.4167 172.145C70.5068 172.912 68.4706 173.6 66.3082 174.211C64.178 174.804 62.0575 175.318 59.9467 175.753C57.8682 176.171 55.8567 176.501 53.9121 176.741C51.9999 176.964 50.3067 177.088 48.8327 177.115C47.3836 177.148 46.2197 177.09 45.3411 176.939C44.4698 176.763 44.0233 176.482 44.0017 176.095ZM74.3842 185.068C76.3818 182.073 78.0766 179.736 79.4688 178.056C80.8932 176.359 81.9945 175.205 82.7726 174.593C83.5757 173.988 84.0366 173.853 84.1552 174.186C84.2739 174.52 84.0424 175.212 83.4607 176.262C82.9041 177.32 81.9583 178.683 80.6236 180.353C79.3211 182.004 77.6254 183.839 75.5363 185.856C75.3144 185.872 75.0734 185.814 74.8134 185.683C74.5534 185.552 74.4104 185.347 74.3842 185.068ZM86.2618 168.984C86.2487 168.844 86.2901 168.612 86.386 168.287C86.4819 167.963 86.5659 167.77 86.6379 167.71C87.2714 167.68 87.7158 167.784 87.9713 168.023C88.2267 168.261 88.3476 168.541 88.3341 168.863C88.3279 169.16 88.2269 169.456 88.0311 169.751C87.8603 170.053 87.6492 170.263 87.3977 170.378C87.1537 170.469 86.909 170.424 86.6638 170.243C86.4509 170.044 86.3169 169.625 86.2618 168.984ZM85.7559 187.937C85.3199 187.482 85.0854 186.897 85.0524 186.182C85.0194 185.466 85.1121 184.692 85.3305 183.861C85.549 183.029 85.8534 182.182 86.2438 181.32C86.6342 180.458 87.0422 179.628 87.4678 178.83C87.8934 178.033 88.2931 177.323 88.6671 176.7C89.0411 176.077 89.3208 175.59 89.5064 175.237C89.6534 175.199 89.7783 175.236 89.881 175.348C90.0088 175.467 90.1129 175.62 90.1936 175.807C90.3065 175.976 90.382 176.134 90.4201 176.281C90.4905 176.41 90.5257 176.475 90.5257 176.475C90.3425 177.371 90.088 178.233 89.7623 179.06C89.469 179.869 89.1507 180.671 88.8074 181.466C88.489 182.268 88.167 183.083 87.8413 183.91C87.5406 184.744 87.2862 185.606 87.078 186.495C87.1671 186.928 87.5755 187.062 88.3032 186.897C89.0382 186.707 89.9733 186.345 91.1084 185.811C92.2509 185.253 93.5089 184.579 94.8824 183.79C96.2882 182.983 97.6654 182.181 99.0139 181.385C100.387 180.596 101.676 179.863 102.881 179.187C104.092 178.486 105.084 177.977 105.856 177.662C106.66 177.33 107.173 177.25 107.393 177.424C107.621 177.572 107.428 178.086 106.816 178.964C106.062 179.311 105.117 179.888 103.983 180.694C102.85 181.499 101.615 182.37 100.279 183.306C98.9513 184.217 97.5858 185.117 96.1828 186.006C94.7798 186.895 93.4122 187.618 92.0801 188.175C90.7804 188.715 89.5794 189.012 88.4771 189.067C87.3822 189.096 86.4752 188.72 85.7559 187.937ZM106.565 194.571C105.889 194.1 105.426 193.556 105.174 192.938C104.954 192.303 104.874 191.655 104.933 190.994C104.993 190.332 105.16 189.676 105.434 189.023C105.74 188.354 106.085 187.736 106.47 187.171C107.455 186.593 108.561 185.928 109.787 185.177C111.046 184.408 112.347 183.679 113.691 182.99C115.035 182.301 116.395 181.698 117.769 181.18C119.176 180.646 120.533 180.327 121.84 180.224C122.291 180.167 122.6 180.272 122.765 180.538C122.963 180.786 123.053 181.125 123.035 181.554C123.017 181.984 122.918 182.457 122.738 182.974C122.584 183.498 122.395 183.999 122.172 184.477C121.95 184.954 121.717 185.374 121.474 185.737C121.232 186.099 121.026 186.337 120.856 186.45C120.453 186.711 119.745 186.95 118.731 187.167C117.741 187.39 116.637 187.635 115.419 187.899C114.207 188.139 112.989 188.404 111.763 188.693C110.537 188.983 109.498 189.328 108.647 189.728C107.803 190.103 107.234 190.56 106.939 191.097C106.645 191.635 106.839 192.263 107.523 192.981C108.343 193.331 109.378 193.596 110.629 193.775C111.911 193.937 113.221 194.052 114.559 194.121C115.928 194.173 117.248 194.21 118.518 194.232C119.795 194.229 120.838 194.238 121.646 194.259L121.974 194.804C121.21 195.366 120.116 195.762 118.69 195.993C117.264 196.224 115.768 196.325 114.201 196.297C112.642 196.244 111.157 196.077 109.747 195.796C108.344 195.49 107.283 195.082 106.565 194.571ZM119.745 182.904C119.727 182.872 119.507 182.929 119.083 183.076C118.667 183.197 118.138 183.38 117.496 183.625C116.885 183.852 116.211 184.114 115.471 184.412C114.764 184.692 114.101 184.958 113.484 185.21C112.891 185.469 112.389 185.701 111.975 185.905C111.57 186.084 111.392 186.18 111.442 186.195C111.819 186.388 112.346 186.489 113.022 186.499C113.73 186.491 114.473 186.412 115.251 186.261C116.053 186.118 116.83 185.926 117.579 185.686C118.336 185.421 118.953 185.128 119.428 184.806C119.928 184.492 120.226 184.173 120.321 183.848C120.442 183.531 120.25 183.216 119.745 182.904ZM140.499 203.655C140.5 203.466 140.558 203.225 140.671 202.933C140.817 202.623 140.963 202.313 141.109 202.003C141.28 201.7 141.44 201.435 141.588 201.207C141.737 200.98 141.815 200.854 141.822 200.829L156.794 181.301C157.102 180.903 157.312 180.788 157.425 180.957C157.545 181.102 157.588 181.372 157.552 181.769C157.549 182.148 157.477 182.575 157.337 183.049C157.204 183.499 157.047 183.846 156.866 184.092C155.506 185.754 154.13 187.425 152.738 189.104C151.379 190.766 150.036 192.461 148.712 194.188C147.42 195.897 146.158 197.642 144.925 199.423C143.701 201.18 142.565 203.003 141.518 204.893C141.281 204.959 141.092 204.957 140.949 204.888C140.832 204.826 140.725 204.727 140.63 204.59C140.567 204.436 140.52 204.273 140.489 204.101C140.484 203.936 140.487 203.788 140.499 203.655ZM162.685 211.144C162.853 210.298 163.155 209.504 163.591 208.764C164.059 208.006 164.582 207.292 165.161 206.621C165.771 205.932 166.391 205.26 167.019 204.604C167.68 203.93 168.271 203.263 168.791 202.602C169.32 201.916 169.753 201.23 170.092 200.542C170.438 199.83 170.606 199.078 170.595 198.288C170.037 197.879 169.298 197.715 168.378 197.796C167.483 197.885 166.486 198.133 165.388 198.542C164.297 198.926 163.132 199.424 161.892 200.035C160.685 200.629 159.483 201.251 158.286 201.903C157.121 202.536 156.005 203.143 154.938 203.724C153.87 204.305 152.918 204.771 152.081 205.121C151.277 205.454 150.628 205.629 150.134 205.646C149.648 205.638 149.396 205.387 149.379 204.893C149.361 204.861 149.591 204.589 150.068 204.078C150.577 203.55 151.193 202.89 151.915 202.098C152.662 201.314 153.469 200.467 154.336 199.555C155.228 198.651 156.06 197.81 156.832 197.034C157.612 196.232 158.285 195.562 158.851 195.023C159.418 194.485 159.758 194.205 159.873 194.184C160.294 194.689 160.442 195.154 160.317 195.578C160.224 195.985 160.036 196.391 159.753 196.797C159.478 197.177 159.174 197.562 158.841 197.953C158.534 198.351 158.376 198.793 158.368 199.279C158.849 199.123 159.509 198.91 160.348 198.642C161.22 198.357 162.146 198.073 163.125 197.792C164.129 197.519 165.154 197.265 166.201 197.031C167.272 196.804 168.248 196.671 169.129 196.633C170.016 196.569 170.776 196.617 171.408 196.776C172.065 196.943 172.484 197.271 172.666 197.759C172.847 198.247 172.739 198.935 172.341 199.822C171.976 200.691 171.224 201.813 170.085 203.188C169.958 203.34 169.646 203.71 169.147 204.295C168.68 204.864 168.158 205.483 167.58 206.154C167.034 206.808 166.511 207.427 166.012 208.013C165.546 208.581 165.249 208.942 165.123 209.094C165.068 209.187 164.976 209.363 164.844 209.623C164.746 209.866 164.623 210.142 164.478 210.452C164.339 210.737 164.176 211.014 163.987 211.284C163.806 211.53 163.619 211.705 163.425 211.811C163.23 211.916 163.059 211.852 162.911 211.618C162.77 211.359 162.695 211.201 162.685 211.144ZM173.062 214.209C173.052 214.151 173.08 214.01 173.146 213.785C173.213 213.561 173.269 213.414 173.316 213.347C173.472 213.094 173.75 212.66 174.149 212.045C174.555 211.405 174.981 210.743 175.427 210.06C175.881 209.352 176.307 208.691 176.706 208.075C177.105 207.46 177.382 207.026 177.538 206.774C177.742 206.453 177.972 206.087 178.23 205.674C178.495 205.237 178.652 204.795 178.703 204.348C178.343 204.187 177.866 204.101 177.272 204.088C176.686 204.051 176.104 204.001 175.525 203.939C174.978 203.859 174.478 203.711 174.026 203.496C173.606 203.263 173.37 202.868 173.318 202.309C173.802 201.774 174.369 201.507 175.02 201.509C175.679 201.486 176.369 201.54 177.09 201.672C177.811 201.804 178.506 201.887 179.175 201.921C179.869 201.963 180.48 201.777 181.01 201.363C181.426 200.78 181.921 200.071 182.494 199.236C183.098 198.382 183.727 197.495 184.379 196.575C185.031 195.654 185.704 194.753 186.399 193.872C187.119 192.998 187.818 192.241 188.496 191.599C188.822 191.506 189.051 191.56 189.181 191.761C189.312 191.963 189.37 192.224 189.357 192.546C189.375 192.85 189.353 193.156 189.289 193.463C189.226 193.77 189.167 193.97 189.112 194.062C188.771 194.668 188.302 195.289 187.706 195.928C187.143 196.549 186.588 197.186 186.042 197.84C185.521 198.5 185.05 199.176 184.629 199.866C184.233 200.564 184.023 201.276 183.998 202.002L192.053 204.38C192.078 204.388 192.114 204.493 192.163 204.698C192.218 204.877 192.269 205.028 192.314 205.15C192.336 205.536 192.129 205.733 191.692 205.74C191.256 205.747 190.693 205.676 190.004 205.526C189.322 205.352 188.54 205.149 187.659 204.915C186.81 204.665 185.967 204.484 185.131 204.373C184.327 204.244 183.573 204.225 182.867 204.315C182.169 204.38 181.63 204.642 181.25 205.1C180.107 206.582 179.01 208.091 177.959 209.627C176.915 211.138 175.889 212.681 174.881 214.257C174.808 214.317 174.672 214.412 174.47 214.543C174.276 214.649 174.073 214.738 173.861 214.811C173.657 214.86 173.471 214.845 173.304 214.769C173.161 214.7 173.081 214.513 173.062 214.209ZM188.721 218.833C187.798 218.099 187.324 217.266 187.3 216.336C187.301 215.413 187.59 214.48 188.167 213.537C188.752 212.57 189.544 211.636 190.542 210.736C191.549 209.811 192.6 209.009 193.697 208.328C194.794 207.647 195.847 207.116 196.856 206.735C197.897 206.337 198.728 206.189 199.35 206.291C200.957 206.548 202.135 207.018 202.884 207.701C203.665 208.366 204.104 209.134 204.2 210.004C204.296 210.874 204.114 211.811 203.654 212.816C203.202 213.796 202.559 214.733 201.724 215.627C200.915 216.528 199.955 217.344 198.843 218.075C197.756 218.813 196.613 219.372 195.415 219.751C194.249 220.113 193.084 220.244 191.919 220.144C190.761 220.019 189.695 219.582 188.721 218.833ZM188.94 216.576C188.904 217.434 189.196 218.009 189.815 218.301C190.443 218.568 191.24 218.626 192.207 218.478C193.207 218.311 194.295 217.981 195.473 217.487C196.658 216.968 197.774 216.361 198.821 215.665C199.893 214.977 200.816 214.245 201.588 213.468C202.393 212.674 202.886 211.924 203.067 211.217C203.274 210.518 203.092 209.894 202.521 209.345C201.982 208.779 200.905 208.379 199.29 208.147C198.845 208.368 198.277 208.635 197.588 208.947C196.905 209.234 196.183 209.564 195.422 209.937C194.685 210.317 193.934 210.746 193.167 211.226C192.409 211.681 191.717 212.183 191.094 212.732C190.47 213.281 189.955 213.875 189.548 214.516C189.167 215.163 188.964 215.85 188.94 216.576ZM55.376 239.572C55.3159 239.5 55.2404 239.342 55.1495 239.098C55.0263 238.871 54.9443 238.643 54.9034 238.414C54.8625 238.185 54.8766 237.999 54.9459 237.856C54.9901 237.707 55.1496 237.672 55.4243 237.753C55.7349 238.633 56.3906 239.125 57.3913 239.23C58.392 239.336 59.545 239.201 60.8505 238.826C62.1485 238.477 63.5144 237.943 64.948 237.226C66.3993 236.541 67.7257 235.82 68.9272 235.061C70.1537 234.31 71.1759 233.607 71.9937 232.953C72.8365 232.306 73.2985 231.845 73.3796 231.57C73.4017 231.495 73.335 231.353 73.1795 231.144C73.0313 230.91 72.8456 230.666 72.6225 230.41C72.4244 230.161 72.2351 229.929 72.0546 229.712C71.874 229.496 71.7699 229.343 71.742 229.253C71.8907 229.026 72.1833 228.909 72.6198 228.902C73.0637 228.87 73.5501 228.878 74.0791 228.925C74.6155 228.948 75.1357 228.979 75.6397 229.02C76.1761 229.042 76.595 229.003 76.8964 228.902C78.788 227.37 80.4458 225.986 81.8697 224.75C83.326 223.497 84.7088 222.262 86.0181 221.047C87.3598 219.814 88.725 218.547 90.1137 217.246C91.5025 215.946 93.0876 214.486 94.8691 212.867C95.356 212.413 95.6736 212.304 95.8218 212.537C95.9699 212.771 95.9944 213.24 95.8952 213.944C95.7959 214.648 95.6039 215.528 95.3191 216.584C95.0417 217.616 94.7135 218.727 94.3345 219.918C93.9555 221.11 93.5441 222.319 93.1004 223.546C92.6817 224.78 92.28 225.91 91.8953 226.937C91.5355 227.971 91.2164 228.868 90.9378 229.627C90.6915 230.369 90.5477 230.856 90.5063 231.088C90.23 232.392 89.9643 233.521 89.709 234.478C89.486 235.417 89.3564 236.315 89.3202 237.174C89.2914 238.007 89.4036 238.868 89.6569 239.757C89.9425 240.629 90.4557 241.65 91.1966 242.819C90.2913 242.85 89.6118 242.622 89.1582 242.136C88.7223 241.681 88.4217 241.09 88.2564 240.362C88.1235 239.617 88.0663 238.799 88.0849 237.908C88.1359 237 88.1758 236.13 88.2047 235.296C88.2658 234.445 88.2564 233.696 88.1763 233.048C88.1285 232.382 87.9306 231.903 87.5827 231.61C87.5577 231.602 87.4828 231.58 87.3579 231.543C87.2654 231.489 87.1442 231.44 86.9943 231.395C86.8694 231.358 86.7409 231.334 86.6086 231.322C86.4837 231.285 86.3963 231.259 86.3464 231.245C86.1068 231.228 85.6528 231.203 84.9841 231.168C84.3405 231.141 83.6307 231.108 82.8548 231.069C82.0788 231.03 81.3279 230.998 80.6019 230.974C79.901 230.957 79.3895 230.942 79.0677 230.928C78.3917 230.919 77.6118 231.123 76.7281 231.541C75.8694 231.966 74.9202 232.514 73.8804 233.184C72.873 233.837 71.8023 234.566 70.6684 235.372C69.5594 236.185 68.4328 236.965 67.2886 237.714C66.1444 238.462 65.0099 239.131 63.885 239.722C62.7601 240.313 61.6831 240.742 60.6541 241.008C59.625 241.275 58.6661 241.304 57.7772 241.096C56.8559 240.905 56.0556 240.397 55.376 239.572ZM80.5489 229.085C80.5915 229.124 80.7127 229.174 80.9125 229.233C81.1373 229.299 81.2908 229.331 81.3731 229.328C81.8448 229.386 82.4325 229.464 83.1364 229.564C83.8402 229.663 84.5477 229.75 85.259 229.824C85.9775 229.873 86.6499 229.895 87.2759 229.89C87.9094 229.86 88.3717 229.766 88.6628 229.607C88.6628 229.607 88.7777 229.356 89.0076 228.854C89.2374 228.351 89.5202 227.715 89.8562 226.946C90.1994 226.151 90.5649 225.281 90.9524 224.337C91.3723 223.375 91.7724 222.434 92.1525 221.514C92.5327 220.595 92.8658 219.743 93.1518 218.958C93.4701 218.156 93.7081 217.534 93.8658 217.092C93.628 216.886 93.17 217.104 92.4918 217.745C91.8209 218.362 90.9279 219.225 89.8127 220.334C88.7225 221.452 87.4036 222.746 85.8559 224.216C84.3406 225.67 82.6159 227.143 80.6817 228.635L80.5489 229.085ZM95.9816 243.58C94.8332 242.78 94.1795 241.867 94.0204 240.842C93.8863 239.825 94.0727 238.781 94.5794 237.708C95.1185 236.619 95.9096 235.549 96.9527 234.499C98.0032 233.425 99.1601 232.449 100.423 231.573C101.687 230.697 102.967 229.948 104.264 229.327C105.561 228.705 106.729 228.29 107.768 228.081C108.832 227.879 109.674 227.924 110.294 228.216C110.914 228.507 111.166 229.125 111.05 230.068C111.007 230.49 110.828 230.912 110.513 231.335C110.223 231.766 109.862 232.161 109.43 232.522C109.03 232.866 108.587 233.169 108.102 233.433C107.649 233.68 107.222 233.839 106.82 233.91C106.444 233.989 106.126 233.963 105.866 233.832C105.631 233.708 105.531 233.448 105.567 233.052C106.014 232.641 106.499 232.241 107.021 231.852C107.551 231.438 108.057 231.058 108.539 230.711C108.47 230.392 108.201 230.245 107.733 230.27C107.264 230.294 106.663 230.443 105.931 230.715C105.199 230.988 104.392 231.374 103.512 231.874C102.663 232.357 101.809 232.906 100.948 233.52C100.088 234.135 99.2788 234.806 98.5211 235.533C97.7958 236.242 97.2028 236.962 96.742 237.695C96.2812 238.428 95.9975 239.159 95.8908 239.888C95.8166 240.599 96.0165 241.255 96.4905 241.857C97.2925 242.175 98.2637 242.381 99.404 242.473C100.552 242.54 101.743 242.553 102.977 242.51C104.212 242.467 105.441 242.396 106.666 242.296C107.922 242.178 109.055 242.065 110.065 241.956C111.1 241.854 111.959 241.795 112.642 241.78C113.358 241.747 113.801 241.81 113.971 241.969C114.372 242.359 114.29 242.728 113.726 243.077C113.186 243.434 112.348 243.743 111.211 244.005C110.075 244.267 108.752 244.473 107.241 244.624C105.762 244.758 104.289 244.825 102.823 244.827C101.363 244.803 100.009 244.702 98.7581 244.522C97.515 244.318 96.5895 244.004 95.9816 243.58ZM116.511 249.643C116.501 249.586 116.529 249.445 116.596 249.22C116.662 248.995 116.719 248.849 116.766 248.781C116.922 248.529 117.199 248.095 117.598 247.48C118.005 246.839 118.431 246.178 118.877 245.495C119.33 244.787 119.756 244.125 120.155 243.51C120.554 242.895 120.832 242.461 120.988 242.208C121.191 241.888 121.421 241.521 121.679 241.109C121.944 240.671 122.102 240.229 122.152 239.782C121.792 239.622 121.316 239.535 120.722 239.523C120.136 239.485 119.553 239.436 118.974 239.373C118.427 239.293 117.928 239.146 117.475 238.931C117.055 238.698 116.819 238.302 116.767 237.744C117.251 237.208 117.819 236.941 118.47 236.943C119.128 236.921 119.818 236.975 120.539 237.107C121.261 237.238 121.956 237.321 122.624 237.356C123.318 237.398 123.93 237.212 124.459 236.798C124.876 236.215 125.37 235.506 125.943 234.67C126.548 233.817 127.176 232.93 127.828 232.009C128.48 231.088 129.154 230.187 129.848 229.306C130.568 228.433 131.267 227.675 131.945 227.034C132.272 226.94 132.5 226.994 132.631 227.196C132.761 227.397 132.82 227.659 132.806 227.98C132.825 228.285 132.802 228.59 132.739 228.897C132.675 229.205 132.616 229.404 132.562 229.497C132.22 230.102 131.752 230.724 131.156 231.362C130.592 231.983 130.037 232.621 129.491 233.274C128.97 233.935 128.499 234.61 128.078 235.301C127.682 235.998 127.472 236.71 127.448 237.436L135.502 239.815C135.527 239.822 135.564 239.928 135.612 240.132C135.668 240.312 135.718 240.462 135.764 240.584C135.785 240.971 135.578 241.167 135.141 241.174C134.705 241.181 134.142 241.11 133.453 240.961C132.771 240.787 131.99 240.583 131.108 240.35C130.259 240.099 129.416 239.918 128.58 239.807C127.777 239.678 127.022 239.659 126.316 239.749C125.618 239.815 125.079 240.076 124.7 240.535C123.556 242.016 122.459 243.525 121.408 245.061C120.364 246.572 119.338 248.116 118.33 249.691C118.258 249.752 118.121 249.847 117.92 249.977C117.725 250.083 117.523 250.172 117.311 250.246C117.107 250.294 116.921 250.28 116.753 250.203C116.611 250.134 116.53 249.947 116.511 249.643ZM129.623 253.515C131.621 250.521 133.316 248.184 134.708 246.504C136.132 244.807 137.234 243.652 138.012 243.04C138.815 242.436 139.276 242.3 139.394 242.634C139.513 242.968 139.282 243.66 138.7 244.71C138.143 245.767 137.197 247.131 135.863 248.8C134.56 250.452 132.864 252.287 130.775 254.303C130.553 254.319 130.313 254.262 130.053 254.131C129.793 254 129.65 253.795 129.623 253.515ZM141.501 237.432C141.488 237.292 141.529 237.06 141.625 236.735C141.721 236.41 141.805 236.218 141.877 236.158C142.51 236.128 142.955 236.232 143.21 236.47C143.466 236.709 143.587 236.989 143.573 237.31C143.567 237.607 143.466 237.903 143.27 238.199C143.099 238.501 142.888 238.71 142.637 238.826C142.393 238.917 142.148 238.872 141.903 238.691C141.69 238.492 141.556 238.072 141.501 237.432ZM141.686 257.078C140.763 256.343 140.289 255.511 140.265 254.581C140.266 253.658 140.555 252.725 141.132 251.782C141.717 250.814 142.509 249.88 143.507 248.981C144.514 248.056 145.565 247.253 146.662 246.572C147.76 245.892 148.812 245.361 149.821 244.98C150.862 244.581 151.693 244.433 152.315 244.535C153.922 244.793 155.1 245.263 155.849 245.945C156.63 246.611 157.069 247.378 157.165 248.248C157.261 249.118 157.079 250.056 156.619 251.061C156.167 252.04 155.524 252.977 154.69 253.871C153.88 254.773 152.92 255.589 151.808 256.319C150.721 257.057 149.578 257.616 148.38 257.995C147.214 258.357 146.049 258.488 144.884 258.388C143.726 258.264 142.66 257.827 141.686 257.078ZM141.905 254.821C141.869 255.679 142.161 256.254 142.78 256.545C143.408 256.812 144.205 256.871 145.172 256.722C146.172 256.556 147.26 256.226 148.438 255.732C149.623 255.213 150.739 254.605 151.786 253.91C152.858 253.222 153.781 252.49 154.553 251.713C155.358 250.919 155.851 250.168 156.032 249.462C156.239 248.762 156.057 248.138 155.486 247.59C154.947 247.023 153.87 246.624 152.255 246.391C151.81 246.613 151.242 246.879 150.553 247.192C149.87 247.479 149.148 247.809 148.387 248.181C147.65 248.561 146.899 248.991 146.132 249.471C145.374 249.925 144.682 250.427 144.059 250.976C143.435 251.525 142.92 252.12 142.513 252.76C142.132 253.408 141.929 254.095 141.905 254.821ZM169.447 265.276C169.615 264.429 169.917 263.636 170.353 262.896C170.821 262.138 171.344 261.424 171.923 260.753C172.533 260.064 173.153 259.392 173.781 258.735C174.442 258.062 175.032 257.394 175.553 256.734C176.082 256.048 176.515 255.361 176.854 254.674C177.2 253.962 177.368 253.21 177.357 252.419C176.799 252.01 176.06 251.846 175.14 251.928C174.245 252.016 173.248 252.265 172.15 252.674C171.059 253.058 169.894 253.555 168.654 254.167C167.447 254.761 166.245 255.383 165.048 256.034C163.883 256.668 162.767 257.275 161.7 257.856C160.632 258.437 159.68 258.902 158.843 259.252C158.039 259.585 157.39 259.76 156.896 259.777C156.41 259.769 156.158 259.518 156.141 259.025C156.123 258.992 156.353 258.721 156.83 258.21C157.339 257.681 157.954 257.021 158.677 256.23C159.424 255.446 160.231 254.598 161.098 253.687C161.99 252.782 162.822 251.942 163.594 251.165C164.374 250.364 165.047 249.694 165.613 249.155C166.18 248.616 166.52 248.337 166.635 248.316C167.056 248.821 167.204 249.285 167.079 249.71C166.986 250.117 166.798 250.523 166.515 250.928C166.24 251.309 165.936 251.694 165.603 252.085C165.296 252.482 165.138 252.925 165.13 253.411C165.611 253.254 166.271 253.042 167.11 252.774C167.982 252.488 168.908 252.205 169.887 251.924C170.891 251.65 171.916 251.396 172.963 251.162C174.034 250.936 175.01 250.803 175.891 250.764C176.778 250.701 177.538 250.749 178.17 250.908C178.827 251.075 179.246 251.402 179.428 251.89C179.609 252.378 179.501 253.066 179.103 253.953C178.738 254.823 177.986 255.945 176.847 257.319C176.72 257.472 176.408 257.841 175.909 258.427C175.442 258.995 174.92 259.615 174.342 260.286C173.796 260.939 173.273 261.559 172.774 262.145C172.308 262.713 172.011 263.073 171.885 263.226C171.83 263.319 171.737 263.495 171.606 263.755C171.508 263.997 171.385 264.273 171.24 264.583C171.101 264.868 170.938 265.146 170.749 265.416C170.568 265.661 170.381 265.837 170.187 265.942C169.992 266.048 169.821 265.984 169.673 265.75C169.532 265.491 169.457 265.333 169.447 265.276Z" fill="#FDD017"/>
<defs>
<clipPath id="clip0_1481_1468">
<rect width="218.103" height="138.013" fill="white" transform="translate(87.0156 0.214844) rotate(19.8318)"/>
</clipPath>
</defs>
</svg>
